<svg width="758" height="549" viewBox="0 0 758 549" fill="none" xmlns="http://www.w3.org/2000/svg">
<path d="M0.741699 100L10.2876 1.17188H43.8105L53.188 100H34.4893L33.0854 84.0527H21.1812L19.9458 100H0.741699ZM22.585 68.2739H31.5693L27.2456 18.0176H26.3472L22.585 68.2739ZM109.228 100.898C102.078 100.898 96.313 98.6711 91.9331 94.2163C87.5907 89.7616 85.4194 83.5286 85.4194 75.5176V29.9219C85.4194 20.3385 87.3099 13.0013 91.0908 7.91016C94.9092 2.81901 101.105 0.273438 109.677 0.273438C114.357 0.273438 118.512 1.13444 122.143 2.85645C125.812 4.57845 128.694 7.16146 130.791 10.6055C132.887 14.012 133.935 18.3171 133.935 23.5205V40.5908H114.282V25.9912C114.282 23.0339 113.907 21.0498 113.159 20.0391C112.41 18.9909 111.25 18.4668 109.677 18.4668C107.843 18.4668 106.608 19.1406 105.971 20.4883C105.335 21.7985 105.017 23.5579 105.017 25.7666V75.2368C105.017 77.9696 105.41 79.8975 106.196 81.0205C107.019 82.1436 108.18 82.7051 109.677 82.7051C111.362 82.7051 112.541 82.0125 113.215 80.6274C113.926 79.2424 114.282 77.4455 114.282 75.2368V57.4365H134.16V76.1353C134.16 84.8201 131.97 91.1279 127.59 95.0586C123.21 98.9518 117.089 100.898 109.228 100.898ZM163.64 100.898C155.404 100.898 149.34 98.5962 145.446 93.9917C141.553 89.3498 139.606 82.5366 139.606 73.5522V1.17188H158.811V72.7661C158.811 74.4132 158.904 76.0042 159.091 77.5391C159.278 79.0365 159.709 80.2718 160.383 81.2451C161.057 82.2184 162.142 82.7051 163.64 82.7051C165.174 82.7051 166.279 82.2371 166.953 81.3013C167.626 80.328 168.038 79.0739 168.188 77.5391C168.375 76.0042 168.469 74.4132 168.469 72.7661V1.17188H187.673V73.5522C187.673 82.5366 185.726 89.3498 181.833 93.9917C177.94 98.5962 171.875 100.898 163.64 100.898ZM203.732 100V20.1514H191.997V1.17188H235.234V20.1514H223.498V100H203.732ZM240.737 100V1.17188H260.502V83.1543H280.83V100H240.737ZM309.299 100.898C301.063 100.898 294.999 98.5962 291.105 93.9917C287.212 89.3498 285.266 82.5366 285.266 73.5522V1.17188H304.47V72.7661C304.47 74.4132 304.563 76.0042 304.75 77.5391C304.938 79.0365 305.368 80.2718 306.042 81.2451C306.716 82.2184 307.801 82.7051 309.299 82.7051C310.834 82.7051 311.938 82.2371 312.612 81.3013C313.286 80.328 313.697 79.0739 313.847 77.5391C314.034 76.0042 314.128 74.4132 314.128 72.7661V1.17188H333.332V73.5522C333.332 82.5366 331.385 89.3498 327.492 93.9917C323.599 98.5962 317.535 100.898 309.299 100.898ZM340.913 100V1.17188H371.235C376.289 1.17188 380.107 2.33236 382.69 4.65332C385.273 6.93685 386.995 10.1562 387.856 14.3115C388.754 18.4294 389.204 23.2772 389.204 28.855C389.204 34.2456 388.511 38.5506 387.126 41.77C385.778 44.9894 383.214 47.2168 379.433 48.4521C382.54 49.0885 384.711 50.6421 385.947 53.1128C387.22 55.5461 387.856 58.7093 387.856 62.6025V100H368.371V61.311C368.371 58.4285 367.772 56.6504 366.574 55.9766C365.414 55.2653 363.523 54.9097 360.903 54.9097V100H340.913ZM361.015 37.7832H365.788C368.521 37.7832 369.887 34.8071 369.887 28.855C369.887 24.9992 369.588 22.4723 368.989 21.2744C368.39 20.0765 367.267 19.4775 365.62 19.4775H361.015V37.7832ZM395.717 100V1.17188H435.249V20.2637H415.82V39.5239H434.462V58.1104H415.82V80.7397H436.54V100H395.717ZM470.063 100V1.17188H497.241C504.353 1.17188 509.707 3.15592 513.3 7.12402C516.894 11.0547 518.691 16.8197 518.691 24.4189V70.6885C518.691 80.0472 517.044 87.2721 513.75 92.3633C510.493 97.4544 504.765 100 496.567 100H470.063ZM489.941 82.5366H493.366C496.997 82.5366 498.813 80.7772 498.813 77.2583V26.272C498.813 22.9777 498.364 20.8626 497.465 19.9268C496.604 18.9535 494.826 18.4668 492.131 18.4668H489.941V82.5366ZM526.777 100V1.17188H557.099C562.153 1.17188 565.971 2.33236 568.554 4.65332C571.137 6.93685 572.859 10.1562 573.72 14.3115C574.619 18.4294 575.068 23.2772 575.068 28.855C575.068 34.2456 574.375 38.5506 572.99 41.77C571.643 44.9894 569.078 47.2168 565.297 48.4521C568.404 49.0885 570.576 50.6421 571.811 53.1128C573.084 55.5461 573.72 58.7093 573.72 62.6025V100H554.235V61.311C554.235 58.4285 553.636 56.6504 552.438 55.9766C551.278 55.2653 549.388 54.9097 546.767 54.9097V100H526.777ZM546.879 37.7832H551.652C554.385 37.7832 555.751 34.8071 555.751 28.855C555.751 24.9992 555.452 22.4723 554.853 21.2744C554.254 20.0765 553.131 19.4775 551.484 19.4775H546.879V37.7832ZM580.683 100V1.17188H599.775V100H580.683ZM616.733 100L604.548 1.11572H623.359L630.603 68.3862L637.06 1.11572H655.871L643.686 100H616.733ZM661.655 100V1.17188H701.186V20.2637H681.757V39.5239H700.4V58.1104H681.757V80.7397H702.478V100H661.655ZM709.047 100V1.17188H729.375L738.471 48.5083V1.17188H757.563V100H738.247L728.364 50.5859V100H709.047ZM41.2837 212.898C34.1336 212.898 28.3687 210.671 23.9888 206.216C19.6463 201.762 17.4751 195.529 17.4751 187.518V141.922C17.4751 132.339 19.3656 125.001 23.1465 119.91C26.9648 114.819 33.1603 112.273 41.7329 112.273C46.4123 112.273 50.5675 113.134 54.1987 114.856C57.8674 116.578 60.7498 119.161 62.8462 122.605C64.9425 126.012 65.9907 130.317 65.9907 135.521V152.591H46.3374V137.991C46.3374 135.034 45.9631 133.05 45.2144 132.039C44.4657 130.991 43.3052 130.467 41.7329 130.467C39.8986 130.467 38.6632 131.141 38.0269 132.488C37.3905 133.799 37.0723 135.558 37.0723 137.767V187.237C37.0723 189.97 37.4653 191.897 38.2515 193.021C39.075 194.144 40.2355 194.705 41.7329 194.705C43.4175 194.705 44.5967 194.013 45.2705 192.627C45.9818 191.242 46.3374 189.445 46.3374 187.237V169.437H66.2153V188.135C66.2153 196.82 64.0254 203.128 59.6455 207.059C55.2656 210.952 49.145 212.898 41.2837 212.898ZM72.8413 212V113.172H103.164C108.217 113.172 112.036 114.332 114.619 116.653C117.202 118.937 118.924 122.156 119.785 126.312C120.683 130.429 121.132 135.277 121.132 140.855C121.132 146.246 120.44 150.551 119.055 153.77C117.707 156.989 115.143 159.217 111.362 160.452C114.469 161.089 116.64 162.642 117.875 165.113C119.148 167.546 119.785 170.709 119.785 174.603V212H100.3V173.311C100.3 170.429 99.7008 168.65 98.5029 167.977C97.3424 167.265 95.452 166.91 92.8315 166.91V212H72.8413ZM92.9438 149.783H97.7168C100.45 149.783 101.816 146.807 101.816 140.855C101.816 136.999 101.516 134.472 100.917 133.274C100.319 132.076 99.1955 131.478 97.5483 131.478H92.9438V149.783ZM127.646 212V113.172H167.177V132.264H147.749V151.524H166.391V170.11H147.749V192.74H168.469V212H127.646ZM172.343 212L181.889 113.172H215.412L224.79 212H206.091L204.687 196.053H192.783L191.547 212H172.343ZM194.187 180.274H203.171L198.847 130.018H197.949L194.187 180.274ZM237.873 212V132.151H226.137V113.172H269.375V132.151H257.639V212H237.873ZM273.979 212V113.172H293.071V212H273.979ZM310.029 212L297.844 113.116H316.655L323.898 180.386L330.356 113.116H349.167L336.982 212H310.029ZM354.951 212V113.172H394.482V132.264H375.053V151.524H393.696V170.11H375.053V192.74H395.773V212H354.951ZM181.496 324V225.172H208.281C215.468 225.172 220.69 226.931 223.947 230.45C227.242 233.932 228.889 239.697 228.889 247.745V252.069C228.889 256.711 228.046 260.473 226.362 263.355C224.715 266.238 222.188 268.128 218.781 269.027C223.236 270.15 226.212 272.789 227.709 276.944C229.244 281.062 230.012 286.097 230.012 292.049C230.012 298.451 229.413 304.047 228.215 308.839C227.017 313.631 224.846 317.355 221.701 320.013C218.557 322.671 214.083 324 208.281 324H181.496ZM200.812 262.401H204.855C206.69 262.401 207.869 261.69 208.393 260.267C208.917 258.845 209.179 257.141 209.179 255.157V245.218C209.179 242.036 207.775 240.445 204.968 240.445H200.812V262.401ZM202.778 306.593C207.906 306.593 210.471 304.16 210.471 299.293V286.939C210.471 284.132 210.04 281.923 209.179 280.313C208.356 278.666 206.783 277.843 204.462 277.843H200.812V306.48C201.636 306.555 202.291 306.593 202.778 306.593ZM259.379 324.898C251.144 324.898 245.079 322.596 241.186 317.992C237.293 313.35 235.346 306.537 235.346 297.552V225.172H254.55V296.766C254.55 298.413 254.644 300.004 254.831 301.539C255.018 303.036 255.449 304.272 256.123 305.245C256.796 306.218 257.882 306.705 259.379 306.705C260.914 306.705 262.019 306.237 262.692 305.301C263.366 304.328 263.778 303.074 263.928 301.539C264.115 300.004 264.208 298.413 264.208 296.766V225.172H283.413V297.552C283.413 306.537 281.466 313.35 277.573 317.992C273.68 322.596 267.615 324.898 259.379 324.898ZM290.095 324V225.172H309.187V324H290.095ZM317.048 324V225.172H336.813V307.154H357.141V324H317.048ZM367.641 324V244.151H355.905V225.172H399.143V244.151H387.407V324H367.641ZM431.599 324V225.172H471.13V244.432H451.477V260.155H470.119V279.19H451.477V324H431.599ZM501.115 324.898C493.216 324.898 487.171 322.521 482.978 317.767C478.823 312.975 476.745 306.069 476.745 297.047V250.104C476.745 241.643 478.804 235.223 482.922 230.843C487.077 226.463 493.142 224.273 501.115 224.273C509.089 224.273 515.135 226.463 519.252 230.843C523.408 235.223 525.485 241.643 525.485 250.104V297.047C525.485 306.069 523.389 312.975 519.196 317.767C515.041 322.521 509.014 324.898 501.115 324.898ZM501.284 306.705C504.278 306.705 505.776 303.804 505.776 298.001V249.767C505.776 244.9 504.316 242.467 501.396 242.467C498.102 242.467 496.455 244.956 496.455 249.935V298.114C496.455 301.183 496.829 303.392 497.578 304.74C498.326 306.05 499.562 306.705 501.284 306.705ZM533.459 324V225.172H563.781C568.835 225.172 572.653 226.332 575.236 228.653C577.819 230.937 579.541 234.156 580.402 238.312C581.301 242.429 581.75 247.277 581.75 252.855C581.75 258.246 581.057 262.551 579.672 265.77C578.325 268.989 575.76 271.217 571.979 272.452C575.087 273.089 577.258 274.642 578.493 277.113C579.766 279.546 580.402 282.709 580.402 286.603V324H560.917V285.311C560.917 282.429 560.319 280.65 559.121 279.977C557.96 279.265 556.07 278.91 553.449 278.91V324H533.459ZM553.562 261.783H558.334C561.067 261.783 562.434 258.807 562.434 252.855C562.434 248.999 562.134 246.472 561.535 245.274C560.936 244.076 559.813 243.478 558.166 243.478H553.562V261.783ZM211.481 436V356.151H199.746V337.172H242.983V356.151H231.247V436H211.481ZM248.486 436V337.172H268.139V372.492H277.46V337.172H297.114V436H277.46V391.19H268.139V436H248.486ZM305.874 436V337.172H345.405V356.264H325.976V375.524H344.619V394.11H325.976V416.74H346.696V436H305.874ZM380.219 436V337.172H400.546L409.643 384.508V337.172H428.735V436H409.418L399.536 386.586V436H380.219ZM437.495 436V337.172H477.026V356.264H457.597V375.524H476.24V394.11H457.597V416.74H478.317V436H437.495ZM492.636 436L482.023 337.172H501.34L506.787 399.557L512.346 337.172H530.764L536.042 399.557L541.32 337.172H560.861L550.08 436H526.384L521.442 388.439L516.726 436H492.636Z" fill="white"/>
<path d="M426.601 212L436.147 113.172H469.67L479.047 212H460.349L458.945 196.053H447.041L445.805 212H426.601ZM448.444 180.274H457.429L453.105 130.018H452.207L448.444 180.274ZM505.495 212.898C491.382 212.898 484.326 202.791 484.326 182.576V139.957C484.326 121.501 492.412 112.273 508.583 112.273C515.247 112.273 520.357 113.621 523.913 116.316C527.469 118.974 529.921 122.868 531.269 127.996C532.617 133.125 533.291 139.376 533.291 146.751H513.974V137.991C513.974 135.857 513.675 134.079 513.076 132.657C512.514 131.197 511.316 130.467 509.482 130.467C507.198 130.467 505.682 131.234 504.934 132.769C504.222 134.304 503.867 135.988 503.867 137.823V185.721C503.867 188.379 504.204 190.55 504.877 192.234C505.589 193.882 506.955 194.705 508.977 194.705C511.073 194.705 512.458 193.882 513.132 192.234C513.843 190.55 514.199 188.341 514.199 185.608V171.514H508.92V154.444H533.066V212H525.148L521.779 203.689C518.335 209.829 512.907 212.898 505.495 212.898ZM540.927 212V113.172H580.458V132.264H561.03V151.524H579.672V170.11H561.03V192.74H581.75V212H540.927ZM588.32 212V113.172H608.647L617.744 160.508V113.172H636.835V212H617.519L607.636 162.586V212H588.32ZM668.618 212.898C661.468 212.898 655.703 210.671 651.323 206.216C646.98 201.762 644.809 195.529 644.809 187.518V141.922C644.809 132.339 646.7 125.001 650.48 119.91C654.299 114.819 660.494 112.273 669.067 112.273C673.746 112.273 677.902 113.134 681.533 114.856C685.201 116.578 688.084 119.161 690.18 122.605C692.277 126.012 693.325 130.317 693.325 135.521V152.591H673.671V137.991C673.671 135.034 673.297 133.05 672.548 132.039C671.8 130.991 670.639 130.467 669.067 130.467C667.233 130.467 665.997 131.141 665.361 132.488C664.724 133.799 664.406 135.558 664.406 137.767V187.237C664.406 189.97 664.799 191.897 665.585 193.021C666.409 194.144 667.569 194.705 669.067 194.705C670.751 194.705 671.931 194.013 672.604 192.627C673.316 191.242 673.671 189.445 673.671 187.237V169.437H693.549V188.135C693.549 196.82 691.359 203.128 686.979 207.059C682.6 210.952 676.479 212.898 668.618 212.898ZM712.136 212V179.488L696.357 113.172H715.954L721.457 146.639L726.96 113.172H746.501L730.778 179.488V212H712.136ZM101.198 548V449.172H131.296L139.606 509.423L147.861 449.172H178.239V548H160.158V476.799L148.815 548H131.071L119.055 476.799V548H101.198ZM184.304 548L193.85 449.172H227.373L236.75 548H218.051L216.647 532.053H204.743L203.508 548H184.304ZM206.147 516.274H215.131L210.808 466.018H209.909L206.147 516.274ZM241.916 548V449.172H261.008V548H241.916ZM268.869 548V449.172H289.196L298.293 496.508V449.172H317.385V548H298.068L288.186 498.586V548H268.869ZM349.616 548.898C340.594 548.898 334.081 546.652 330.075 542.16C326.107 537.668 324.123 530.518 324.123 520.71V511.052H343.664V523.405C343.664 525.689 344.001 527.486 344.675 528.796C345.386 530.069 346.603 530.705 348.325 530.705C350.122 530.705 351.357 530.181 352.031 529.133C352.742 528.085 353.098 526.363 353.098 523.967C353.098 520.935 352.798 518.408 352.199 516.386C351.6 514.327 350.552 512.381 349.055 510.546C347.595 508.675 345.555 506.503 342.934 504.033L334.062 495.61C327.436 489.358 324.123 482.208 324.123 474.16C324.123 465.737 326.07 459.317 329.963 454.899C333.894 450.482 339.565 448.273 346.977 448.273C356.036 448.273 362.456 450.688 366.237 455.517C370.056 460.346 371.965 467.683 371.965 477.529H351.862V470.734C351.862 469.387 351.469 468.339 350.683 467.59C349.934 466.841 348.905 466.467 347.595 466.467C346.022 466.467 344.862 466.916 344.113 467.814C343.402 468.675 343.046 469.799 343.046 471.184C343.046 472.569 343.421 474.066 344.169 475.676C344.918 477.285 346.397 479.139 348.605 481.235L360.004 492.185C362.288 494.356 364.384 496.658 366.293 499.091C368.203 501.487 369.737 504.295 370.898 507.514C372.058 510.696 372.639 514.589 372.639 519.194C372.639 528.478 370.917 535.759 367.473 541.037C364.066 546.278 358.114 548.898 349.616 548.898ZM387.744 548V468.151H376.008V449.172H419.245V468.151H407.509V548H387.744ZM424.748 548V449.172H455.07C460.124 449.172 463.942 450.332 466.525 452.653C469.108 454.937 470.83 458.156 471.691 462.312C472.59 466.429 473.039 471.277 473.039 476.855C473.039 482.246 472.347 486.551 470.961 489.77C469.614 492.989 467.049 495.217 463.269 496.452C466.376 497.089 468.547 498.642 469.782 501.113C471.055 503.546 471.691 506.709 471.691 510.603V548H452.207V509.311C452.207 506.429 451.608 504.65 450.41 503.977C449.249 503.265 447.359 502.91 444.738 502.91V548H424.748ZM444.851 485.783H449.624C452.356 485.783 453.723 482.807 453.723 476.855C453.723 472.999 453.423 470.472 452.824 469.274C452.225 468.076 451.102 467.478 449.455 467.478H444.851V485.783ZM479.553 548V449.172H519.084V468.264H499.655V487.524H518.298V506.11H499.655V528.74H520.375V548H479.553ZM524.25 548L533.796 449.172H567.319L576.696 548H557.998L556.594 532.053H544.689L543.454 548H524.25ZM546.093 516.274H555.078L550.754 466.018H549.855L546.093 516.274ZM582.761 548V449.172H612.858L621.169 509.423L629.423 449.172H659.802V548H641.721V476.799L630.378 548H612.634L600.617 476.799V548H582.761Z" fill="#D2402D"/>
</svg>
