<svg width="593" height="112" viewBox="0 0 593 112" fill="none" xmlns="http://www.w3.org/2000/svg">
<path d="M161.328 93L156.864 79.416H130.032L125.568 93H108.24L133.152 24.264H154.368L179.28 93H161.328ZM134.208 66.648H152.64L143.424 38.568L134.208 66.648ZM207.035 43.944C218.939 43.944 226.715 53.304 226.715 68.184V69.048C226.715 84.36 218.747 94.056 206.747 94.056C200.171 94.056 195.083 90.84 192.251 85.848V93H176.939V24.264H193.403V50.952C196.235 46.68 200.795 43.944 207.035 43.944ZM209.963 69.288V68.808C209.963 60.648 207.419 55.944 201.707 55.944C196.091 55.944 193.211 60.6 193.211 68.712V69.384C193.211 77.544 196.091 82.2 201.707 82.2C207.419 82.2 209.963 77.496 209.963 69.288ZM249.939 94.056C234.867 94.056 224.595 85.08 224.595 69.432V68.568C224.595 52.92 234.867 43.944 249.939 43.944C265.011 43.944 275.283 52.92 275.283 68.568V69.432C275.283 85.08 265.011 94.056 249.939 94.056ZM249.939 81.864C256.035 81.864 258.531 76.968 258.531 69.144V68.856C258.531 61.032 256.035 56.136 249.939 56.136C243.843 56.136 241.299 61.032 241.299 68.856V69.144C241.299 76.968 243.843 81.864 249.939 81.864ZM305.114 45H321.53V93H305.738L305.69 85.512C303.146 90.648 298.346 94.056 291.242 94.056C280.442 94.056 274.73 87.096 274.73 76.92V45H291.194V74.952C291.194 78.744 292.73 81.48 297.482 81.48C302.714 81.48 305.114 77.784 305.114 73.368V45ZM349.444 93H339.796C331.06 93 325.972 89.64 325.972 80.856V57.24H319.54V45H325.972V34.344L342.244 24.264V45H349.444V57.24H342.244V77.736C342.244 79.848 342.868 80.76 345.46 80.76H349.444V93ZM364.5 24.264H382.26V66.312C382.26 75.768 385.62 80.04 394.26 80.04C402.948 80.04 406.308 75.768 406.308 66.312V24.264H423.684V66.792C423.684 84.936 413.22 94.056 394.116 94.056C374.964 94.056 364.5 84.936 364.5 66.792V24.264ZM446.873 94.056C432.377 94.056 423.545 89.448 422.825 76.2H437.033C437.417 82.2 441.113 83.688 446.825 83.688C452.153 83.688 454.457 82.2 454.457 79.32C454.457 76.968 452.825 76.104 449.129 75.336C445.001 74.424 438.761 73.848 433.337 72.264C427.625 70.536 424.025 66.792 424.025 59.832V59.736C424.025 49.56 432.281 43.944 445.433 43.944C459.689 43.944 467.897 48.84 468.617 60.648H454.409C453.929 55.896 451.001 54.264 446.009 54.264C441.641 54.264 439.433 55.512 439.433 58.104C439.433 60.264 440.969 61.176 444.665 61.896C448.841 62.76 455.369 63.576 460.553 65.064C466.265 66.744 469.865 70.392 469.865 77.544V77.64C469.865 88.44 460.841 94.056 446.873 94.056Z" fill="black"/>
<path d="M22.072 93.08C22.552 93.144 22.984 93.304 23.368 93.56C23.752 93.816 24.072 94.136 24.328 94.52C24.584 94.904 24.76 95.304 24.856 95.72C24.952 96.136 24.984 96.536 24.952 96.92C24.856 97.784 24.568 98.792 24.088 99.944C23.64 101.096 22.952 102.2 22.024 103.256C21.096 104.28 19.912 105.16 18.472 105.896C17.064 106.6 15.352 106.952 13.336 106.952H13.096C10.76 106.92 8.664 106.232 6.808 104.888C4.984 103.512 3.528 101.608 2.44 99.176C1.768 97.608 1.304 95.96 1.048 94.232C0.792 92.472 0.744 90.776 0.904 89.144C1.064 87.48 1.432 85.912 2.008 84.44C2.584 82.968 3.352 81.704 4.312 80.648C5.624 79.144 7.096 78.072 8.728 77.432C10.392 76.792 12.136 76.632 13.96 76.952C14.6 77.016 15.208 77.16 15.784 77.384C16.392 77.608 17 77.896 17.608 78.248C18.056 77.64 18.632 77.224 19.336 77C20.04 76.776 20.76 76.792 21.496 77.048C22.392 77.368 23.048 77.96 23.464 78.824C23.88 79.656 23.944 80.52 23.656 81.416C23.56 81.608 23.512 81.88 23.512 82.232C23.544 82.584 23.592 82.952 23.656 83.336C23.72 83.72 23.8 84.104 23.896 84.488C24.024 84.872 24.152 85.208 24.28 85.496C24.632 86.392 24.632 87.272 24.28 88.136C23.928 89 23.32 89.624 22.456 90.008C22.008 90.2 21.544 90.296 21.064 90.296C20.616 90.264 20.184 90.168 19.768 90.008C19.384 89.848 19.032 89.624 18.712 89.336C18.392 89.016 18.136 88.648 17.944 88.232C17.688 87.656 17.368 87.112 16.984 86.6C16.6 86.088 16.184 85.64 15.736 85.256C15.288 84.84 14.808 84.504 14.296 84.248C13.816 83.96 13.336 83.784 12.856 83.72C12.408 83.656 11.896 83.688 11.32 83.816C10.776 83.912 10.152 84.376 9.448 85.208C8.936 85.784 8.536 86.52 8.248 87.416C7.96 88.28 7.784 89.224 7.72 90.248C7.656 91.272 7.704 92.328 7.864 93.416C8.056 94.472 8.344 95.48 8.728 96.44C8.92 96.856 9.144 97.272 9.4 97.688C9.688 98.104 10.008 98.488 10.36 98.84C10.712 99.192 11.128 99.496 11.608 99.752C12.088 99.976 12.616 100.088 13.192 100.088H13.336C14.296 100.088 15.064 99.928 15.64 99.608C16.248 99.288 16.728 98.904 17.08 98.456C17.432 98.008 17.672 97.56 17.8 97.112C17.96 96.664 18.072 96.312 18.136 96.056V96.008C18.2 95.656 18.296 95.304 18.424 94.952C18.584 94.568 18.808 94.232 19.096 93.944C19.384 93.624 19.768 93.384 20.248 93.224C20.728 93.064 21.336 93.016 22.072 93.08ZM43.8963 87.128C43.7683 88.952 43.2723 90.536 42.4083 91.88C42.9203 92.424 43.4323 93.064 43.9443 93.8C44.4563 94.536 44.9203 95.384 45.3363 96.344C45.7523 97.304 46.0723 98.392 46.2963 99.608C46.5523 100.824 46.6803 102.168 46.6803 103.64C46.6803 104.568 46.3443 105.368 45.6723 106.04C45.0003 106.712 44.2003 107.048 43.2723 107.048C42.3123 107.048 41.4963 106.712 40.8243 106.04C40.1523 105.368 39.8163 104.568 39.8163 103.64C39.8163 102.584 39.7203 101.656 39.5283 100.856C39.3683 100.056 39.1443 99.352 38.8563 98.744C38.6003 98.136 38.3123 97.64 37.9922 97.256C37.6723 96.872 37.3683 96.552 37.0803 96.296C35.7043 96.872 34.2963 97.256 32.8563 97.448C33.0163 98.472 33.1763 99.384 33.3363 100.184C33.4963 100.952 33.6883 101.512 33.9123 101.864C34.3923 102.696 34.5203 103.576 34.2963 104.504C34.0723 105.4 33.5443 106.088 32.7122 106.568C32.1683 106.888 31.5763 107.048 30.9363 107.048C30.3603 107.048 29.8003 106.904 29.2563 106.616C28.7443 106.328 28.3123 105.912 27.9603 105.368C27.3843 104.344 26.9043 102.936 26.5203 101.144C26.1683 99.352 25.9123 97.448 25.7523 95.432C25.6242 93.384 25.5762 91.352 25.6082 89.336C25.6402 87.32 25.7523 85.576 25.9443 84.104C25.6882 84.168 25.4962 84.216 25.3682 84.248C24.8882 84.344 24.4242 84.36 23.9762 84.296C23.5282 84.2 23.1122 84.04 22.7282 83.816C22.3442 83.592 22.0242 83.304 21.7682 82.952C21.4802 82.568 21.2882 82.152 21.1922 81.704C21.0962 81.224 21.0962 80.76 21.1922 80.312C21.2562 79.864 21.4002 79.464 21.6242 79.112C21.8482 78.728 22.1522 78.408 22.5362 78.152C22.8882 77.864 23.2882 77.656 23.7362 77.528C24.8562 77.272 26.1683 77.096 27.6723 77C29.2083 76.872 30.7763 76.888 32.3763 77.048C33.9763 77.176 35.5283 77.48 37.0323 77.96C38.5363 78.408 39.8483 79.112 40.9683 80.072C42.0243 80.968 42.7923 82.024 43.2723 83.24C43.7843 84.456 43.9923 85.752 43.8963 87.128ZM32.9043 83.96C32.7123 84.696 32.5843 85.656 32.5203 86.84C32.4563 87.992 32.4403 89.24 32.4723 90.584C32.9523 90.488 33.4483 90.36 33.9603 90.2C34.4723 90.008 34.9523 89.752 35.4003 89.432C35.8483 89.112 36.2163 88.728 36.5043 88.28C36.7923 87.832 36.9683 87.288 37.0323 86.648C37.0643 86.072 36.8883 85.624 36.5043 85.304C36.1203 84.952 35.6083 84.68 34.9683 84.488C34.3603 84.264 33.6723 84.088 32.9043 83.96ZM63.592 90.296C64.552 90.36 65.336 90.744 65.944 91.448C66.584 92.152 66.872 92.984 66.808 93.944C66.68 96.088 66.232 97.976 65.464 99.608C64.696 101.24 63.72 102.6 62.536 103.688C61.352 104.776 60.024 105.592 58.552 106.136C57.08 106.68 55.608 106.952 54.136 106.952H53.752C52.216 106.92 50.792 106.632 49.48 106.088C48.168 105.512 47.032 104.744 46.072 103.784C45.112 102.824 44.36 101.704 43.816 100.424C43.272 99.112 43 97.704 43 96.2C43 95.112 43.16 94.152 43.48 93.32C43.832 92.488 44.312 91.768 44.92 91.16C44.568 90.552 44.344 89.912 44.248 89.24C44.152 88.568 44.12 87.896 44.152 87.224C44.216 86.552 44.328 85.88 44.488 85.208C44.648 84.536 44.824 83.912 45.016 83.336C45.336 82.248 45.736 81.336 46.216 80.6C46.696 79.864 47.192 79.256 47.704 78.776C48.248 78.296 48.792 77.928 49.336 77.672C49.88 77.416 50.392 77.224 50.872 77.096C51.992 76.84 53.112 76.84 54.232 77.096C55.384 77.32 56.488 77.704 57.544 78.248C57.768 77.608 58.152 77.112 58.696 76.76C59.24 76.376 59.88 76.184 60.616 76.184C61.544 76.184 62.344 76.52 63.016 77.192C63.688 77.864 64.024 78.664 64.024 79.592C64.024 79.976 64.056 80.424 64.12 80.936C64.184 81.416 64.248 81.896 64.312 82.376C64.408 82.856 64.488 83.304 64.552 83.72C64.648 84.104 64.728 84.408 64.792 84.632C64.984 85.368 64.92 86.088 64.6 86.792C64.312 87.496 63.832 88.024 63.16 88.376C62.52 88.792 61.816 88.936 61.048 88.808C60.28 88.68 59.624 88.344 59.08 87.8C58.504 87.224 57.88 86.68 57.208 86.168C56.568 85.624 55.928 85.16 55.288 84.776C54.68 84.392 54.12 84.104 53.608 83.912C53.096 83.72 52.696 83.656 52.408 83.72C52.088 83.784 51.784 84.312 51.496 85.304C51.24 86.136 51.08 86.776 51.016 87.224C51.304 87.256 51.608 87.272 51.928 87.272C52.28 87.24 52.616 87.224 52.936 87.224C53.288 87.192 53.64 87.176 53.992 87.176C54.344 87.176 54.728 87.176 55.144 87.176C56.072 87.176 56.856 87.496 57.496 88.136C58.136 88.776 58.472 89.56 58.504 90.488C58.536 91.416 58.232 92.216 57.592 92.888C56.952 93.56 56.184 93.912 55.288 93.944C54.744 93.976 54.152 94.056 53.512 94.184C52.872 94.312 52.264 94.488 51.688 94.712C51.144 94.904 50.68 95.128 50.296 95.384C49.944 95.64 49.768 95.912 49.768 96.2C49.768 96.904 49.896 97.512 50.152 98.024C50.408 98.504 50.728 98.904 51.112 99.224C51.528 99.544 51.992 99.784 52.504 99.944C53.016 100.104 53.512 100.184 53.992 100.184C54.632 100.184 55.288 100.088 55.96 99.896C56.664 99.672 57.304 99.304 57.88 98.792C58.456 98.248 58.936 97.544 59.32 96.68C59.736 95.816 59.976 94.76 60.04 93.512C60.104 92.552 60.472 91.768 61.144 91.16C61.848 90.52 62.664 90.232 63.592 90.296ZM84.0006 90.968C84.4486 92.408 84.8646 93.816 85.2486 95.192C85.6646 96.568 86.0166 97.8 86.3046 98.888C86.6246 99.976 86.8646 100.872 87.0246 101.576C87.2166 102.248 87.3126 102.616 87.3126 102.68C87.5686 103.608 87.4566 104.472 86.9766 105.272C86.4966 106.04 85.8086 106.536 84.9126 106.76C83.9846 107.016 83.1046 106.904 82.2726 106.424C81.4726 105.944 80.9606 105.24 80.7366 104.312C80.6726 104.056 80.6086 103.816 80.5446 103.592C80.5126 103.336 80.4646 103.08 80.4006 102.824C79.5046 102.632 78.5926 102.472 77.6646 102.344C76.7366 102.184 75.8086 102.056 74.8806 101.96C73.9846 101.864 73.1206 101.816 72.2886 101.816C71.4566 101.784 70.7046 101.8 70.0326 101.864C69.9046 102.312 69.7766 102.744 69.6486 103.16C69.5526 103.544 69.4566 103.944 69.3606 104.36C69.1686 105.096 68.7526 105.704 68.1126 106.184C67.5046 106.664 66.8326 106.904 66.0966 106.904C65.7766 106.904 65.4726 106.856 65.1846 106.76C64.2566 106.504 63.5526 105.992 63.0726 105.224C62.6246 104.424 62.5286 103.56 62.7846 102.632C62.8166 102.6 62.9126 102.248 63.0726 101.576C63.2646 100.872 63.5206 99.976 63.8406 98.888C64.1606 97.8 64.5126 96.568 64.8966 95.192C65.3126 93.784 65.7606 92.36 66.2406 90.92C67.1046 88.296 67.9046 86.104 68.6406 84.344C69.3766 82.552 70.0806 81.128 70.7526 80.072C71.4566 78.984 72.1606 78.216 72.8646 77.768C73.5686 77.288 74.3366 77.048 75.1686 77.048C76.0006 77.048 76.7686 77.288 77.4726 77.768C78.1766 78.216 78.8646 78.984 79.5366 80.072C80.2406 81.128 80.9446 82.552 81.6486 84.344C82.3846 86.136 83.1686 88.344 84.0006 90.968ZM72.0486 95C74.1926 95 76.2886 95.176 78.3366 95.528C77.7926 93.704 77.2326 92.008 76.6566 90.44C76.1126 88.84 75.6166 87.448 75.1686 86.264C74.7206 87.384 74.2246 88.696 73.6806 90.2C73.1366 91.672 72.5926 93.272 72.0486 95ZM101.46 78.44C102.388 78.44 103.172 78.76 103.812 79.4C104.484 80.04 104.82 80.824 104.82 81.752C104.82 82.68 104.5 83.464 103.859 84.104C103.22 84.744 102.436 85.08 101.508 85.112H101.124C99.8435 85.112 98.6755 85.064 97.6195 84.968C96.5955 84.872 95.6195 84.76 94.6915 84.632C94.6275 85.656 94.5635 86.872 94.4995 88.28C94.4355 89.656 94.4035 91.16 94.4035 92.792C94.4355 94.392 94.4995 96.088 94.5955 97.88C94.6915 99.64 94.8675 101.432 95.1235 103.256C95.2515 104.184 95.0275 105.016 94.4515 105.752C93.9075 106.456 93.1875 106.872 92.2915 107C92.1955 107 92.0995 107 92.0035 107C91.9395 107.032 91.8755 107.048 91.8115 107.048C90.9795 107.048 90.2435 106.776 89.6035 106.232C88.9955 105.688 88.6435 104.984 88.5475 104.12C88.2595 102.104 88.0515 100.12 87.9235 98.168C87.8275 96.184 87.7795 94.312 87.7795 92.552C87.7795 90.76 87.8115 89.128 87.8755 87.656C87.9395 86.152 88.0035 84.856 88.0675 83.768C86.4675 83.672 84.6275 83.832 82.5475 84.248C81.6195 84.44 80.7715 84.296 80.0035 83.816C79.2675 83.304 78.8035 82.6 78.6115 81.704C78.4195 80.776 78.5795 79.928 79.0915 79.16C79.5715 78.392 80.2595 77.928 81.1555 77.768C82.4995 77.48 83.7155 77.288 84.8035 77.192C85.9235 77.096 86.9635 77.064 87.9235 77.096C88.9155 77.128 89.8595 77.208 90.7555 77.336C91.6515 77.464 92.5475 77.592 93.4435 77.72C94.5955 77.912 95.7955 78.088 97.0435 78.248C98.3235 78.408 99.7955 78.472 101.46 78.44ZM108.882 92.504C108.786 94.424 108.722 96.232 108.69 97.928C108.658 99.592 108.866 101.192 109.314 102.728C109.57 103.624 109.474 104.472 109.026 105.272C108.578 106.072 107.906 106.6 107.01 106.856C106.85 106.888 106.69 106.92 106.53 106.952C106.402 106.952 106.258 106.952 106.098 106.952C105.362 106.952 104.69 106.728 104.082 106.28C103.506 105.832 103.106 105.24 102.882 104.504C102.274 102.424 101.97 100.376 101.97 98.36C102.002 96.312 102.082 94.216 102.21 92.072C102.274 90.856 102.338 89.64 102.402 88.424C102.466 87.176 102.466 85.88 102.402 84.536C102.37 83.608 102.658 82.824 103.266 82.184C103.906 81.512 104.69 81.144 105.618 81.08C106.546 81.016 107.346 81.304 108.018 81.944C108.69 82.552 109.058 83.32 109.122 84.248C109.186 85.72 109.186 87.144 109.122 88.52C109.058 89.864 108.978 91.192 108.882 92.504ZM105.906 80.024C104.978 79.992 104.194 79.64 103.554 78.968C102.914 78.296 102.61 77.496 102.642 76.568L102.738 74.12C102.77 73.224 103.122 72.456 103.794 71.816C104.498 71.176 105.314 70.872 106.242 70.904C107.138 70.968 107.89 71.336 108.498 72.008C109.138 72.68 109.442 73.48 109.41 74.408L109.314 76.808C109.282 77.736 108.946 78.52 108.306 79.16C107.666 79.768 106.914 80.072 106.05 80.072C105.954 80.072 105.906 80.056 105.906 80.024ZM128.707 77.048C129.635 77.048 130.435 77.384 131.107 78.056C131.779 78.728 132.115 79.528 132.115 80.456C132.115 81.384 132.051 82.456 131.923 83.672C131.795 84.856 131.619 86.104 131.395 87.416C131.203 88.728 130.947 90.072 130.627 91.448C130.339 92.792 130.003 94.088 129.619 95.336C128.435 99.336 127.107 102.28 125.635 104.168C124.163 106.056 122.467 107.016 120.547 107.048H120.499C119.891 107.048 119.155 106.904 118.291 106.616C117.459 106.328 116.579 105.72 115.651 104.792C114.595 103.736 113.603 102.344 112.675 100.616C111.779 98.856 110.995 96.888 110.323 94.712C109.651 92.536 109.139 90.232 108.787 87.8C108.403 85.336 108.211 82.888 108.211 80.456C108.211 79.528 108.547 78.728 109.219 78.056C109.891 77.384 110.691 77.048 111.619 77.048C112.547 77.048 113.347 77.384 114.019 78.056C114.691 78.728 115.027 79.528 115.027 80.456C115.027 82.888 115.203 85.176 115.555 87.32C115.939 89.464 116.403 91.384 116.947 93.08C117.491 94.776 118.067 96.216 118.675 97.4C119.283 98.584 119.827 99.416 120.307 99.896C120.659 99.416 121.107 98.568 121.651 97.352C122.227 96.136 122.835 94.376 123.475 92.072C123.795 90.888 124.067 89.72 124.291 88.568C124.515 87.416 124.691 86.344 124.819 85.352C124.979 84.328 125.091 83.4 125.155 82.568C125.251 81.736 125.299 81.032 125.299 80.456C125.299 79.528 125.635 78.728 126.307 78.056C126.979 77.384 127.779 77.048 128.707 77.048ZM149.983 90.296C150.943 90.36 151.727 90.744 152.335 91.448C152.975 92.152 153.263 92.984 153.199 93.944C153.071 96.088 152.623 97.976 151.855 99.608C151.087 101.24 150.111 102.6 148.927 103.688C147.743 104.776 146.415 105.592 144.943 106.136C143.471 106.68 141.999 106.952 140.527 106.952H140.143C138.607 106.92 137.183 106.632 135.871 106.088C134.559 105.512 133.423 104.744 132.463 103.784C131.503 102.824 130.751 101.704 130.207 100.424C129.663 99.112 129.391 97.704 129.391 96.2C129.391 95.112 129.551 94.152 129.871 93.32C130.223 92.488 130.703 91.768 131.311 91.16C130.959 90.552 130.735 89.912 130.639 89.24C130.543 88.568 130.511 87.896 130.543 87.224C130.607 86.552 130.719 85.88 130.879 85.208C131.039 84.536 131.215 83.912 131.407 83.336C131.727 82.248 132.127 81.336 132.607 80.6C133.087 79.864 133.583 79.256 134.095 78.776C134.639 78.296 135.183 77.928 135.727 77.672C136.271 77.416 136.783 77.224 137.263 77.096C138.383 76.84 139.503 76.84 140.623 77.096C141.775 77.32 142.879 77.704 143.935 78.248C144.159 77.608 144.543 77.112 145.087 76.76C145.631 76.376 146.271 76.184 147.007 76.184C147.935 76.184 148.735 76.52 149.407 77.192C150.079 77.864 150.415 78.664 150.415 79.592C150.415 79.976 150.447 80.424 150.511 80.936C150.575 81.416 150.639 81.896 150.703 82.376C150.799 82.856 150.879 83.304 150.943 83.72C151.039 84.104 151.119 84.408 151.183 84.632C151.375 85.368 151.311 86.088 150.991 86.792C150.703 87.496 150.223 88.024 149.551 88.376C148.911 88.792 148.207 88.936 147.439 88.808C146.671 88.68 146.015 88.344 145.471 87.8C144.895 87.224 144.271 86.68 143.599 86.168C142.959 85.624 142.319 85.16 141.679 84.776C141.071 84.392 140.511 84.104 139.999 83.912C139.487 83.72 139.087 83.656 138.799 83.72C138.479 83.784 138.175 84.312 137.887 85.304C137.631 86.136 137.471 86.776 137.407 87.224C137.695 87.256 137.999 87.272 138.319 87.272C138.671 87.24 139.007 87.224 139.327 87.224C139.679 87.192 140.031 87.176 140.383 87.176C140.735 87.176 141.119 87.176 141.535 87.176C142.463 87.176 143.247 87.496 143.887 88.136C144.527 88.776 144.863 89.56 144.895 90.488C144.927 91.416 144.623 92.216 143.983 92.888C143.343 93.56 142.575 93.912 141.679 93.944C141.135 93.976 140.543 94.056 139.903 94.184C139.263 94.312 138.655 94.488 138.079 94.712C137.535 94.904 137.071 95.128 136.687 95.384C136.335 95.64 136.159 95.912 136.159 96.2C136.159 96.904 136.287 97.512 136.543 98.024C136.799 98.504 137.119 98.904 137.503 99.224C137.919 99.544 138.383 99.784 138.895 99.944C139.407 100.104 139.903 100.184 140.383 100.184C141.023 100.184 141.679 100.088 142.351 99.896C143.055 99.672 143.695 99.304 144.271 98.792C144.847 98.248 145.327 97.544 145.711 96.68C146.127 95.816 146.367 94.76 146.431 93.512C146.495 92.552 146.863 91.768 147.535 91.16C148.239 90.52 149.055 90.232 149.983 90.296ZM184.353 93.08C184.833 93.144 185.265 93.304 185.649 93.56C186.033 93.816 186.353 94.136 186.609 94.52C186.865 94.904 187.041 95.304 187.137 95.72C187.233 96.136 187.265 96.536 187.233 96.92C187.137 97.784 186.849 98.792 186.369 99.944C185.921 101.096 185.233 102.2 184.305 103.256C183.377 104.28 182.193 105.16 180.753 105.896C179.345 106.6 177.633 106.952 175.617 106.952H175.377C173.041 106.92 170.945 106.232 169.089 104.888C167.265 103.512 165.809 101.608 164.721 99.176C164.049 97.608 163.585 95.96 163.329 94.232C163.073 92.472 163.025 90.776 163.185 89.144C163.345 87.48 163.713 85.912 164.289 84.44C164.865 82.968 165.633 81.704 166.593 80.648C167.905 79.144 169.377 78.072 171.009 77.432C172.673 76.792 174.417 76.632 176.241 76.952C176.881 77.016 177.489 77.16 178.065 77.384C178.673 77.608 179.281 77.896 179.889 78.248C180.337 77.64 180.913 77.224 181.617 77C182.321 76.776 183.041 76.792 183.777 77.048C184.673 77.368 185.329 77.96 185.745 78.824C186.161 79.656 186.225 80.52 185.937 81.416C185.841 81.608 185.793 81.88 185.793 82.232C185.825 82.584 185.873 82.952 185.937 83.336C186.001 83.72 186.081 84.104 186.177 84.488C186.305 84.872 186.433 85.208 186.561 85.496C186.913 86.392 186.913 87.272 186.561 88.136C186.209 89 185.601 89.624 184.737 90.008C184.289 90.2 183.825 90.296 183.345 90.296C182.897 90.264 182.465 90.168 182.049 90.008C181.665 89.848 181.313 89.624 180.993 89.336C180.673 89.016 180.417 88.648 180.225 88.232C179.969 87.656 179.649 87.112 179.265 86.6C178.881 86.088 178.465 85.64 178.017 85.256C177.569 84.84 177.089 84.504 176.577 84.248C176.097 83.96 175.617 83.784 175.137 83.72C174.689 83.656 174.177 83.688 173.601 83.816C173.057 83.912 172.433 84.376 171.729 85.208C171.217 85.784 170.817 86.52 170.529 87.416C170.241 88.28 170.065 89.224 170.001 90.248C169.937 91.272 169.985 92.328 170.145 93.416C170.337 94.472 170.625 95.48 171.009 96.44C171.201 96.856 171.425 97.272 171.681 97.688C171.969 98.104 172.289 98.488 172.641 98.84C172.993 99.192 173.409 99.496 173.889 99.752C174.369 99.976 174.897 100.088 175.473 100.088H175.617C176.577 100.088 177.345 99.928 177.921 99.608C178.529 99.288 179.009 98.904 179.361 98.456C179.713 98.008 179.953 97.56 180.081 97.112C180.241 96.664 180.353 96.312 180.417 96.056V96.008C180.481 95.656 180.577 95.304 180.705 94.952C180.865 94.568 181.089 94.232 181.377 93.944C181.665 93.624 182.049 93.384 182.529 93.224C183.009 93.064 183.617 93.016 184.353 93.08ZM203.703 79.64C204.599 79.352 205.463 79.432 206.295 79.88C207.127 80.296 207.671 80.952 207.927 81.848C209.623 87.128 210.423 91.544 210.327 95.096C210.231 98.648 209.271 101.464 207.447 103.544C207.095 103.96 206.647 104.376 206.103 104.792C205.591 105.208 204.983 105.576 204.279 105.896C203.607 106.216 202.823 106.488 201.927 106.712C201.031 106.904 200.023 107 198.903 107C198.359 107 197.783 106.968 197.175 106.904C196.599 106.84 195.975 106.744 195.303 106.616C192.615 106.136 190.535 104.792 189.063 102.584C187.815 100.696 187.111 98.504 186.951 96.008C186.791 93.48 186.903 90.856 187.287 88.136C186.711 88.136 186.167 88.008 185.655 87.752C185.143 87.464 184.727 87.048 184.407 86.504C183.895 85.704 183.751 84.856 183.975 83.96C184.199 83.064 184.695 82.36 185.463 81.848C185.719 81.688 186.023 81.496 186.375 81.272C186.727 81.016 187.079 80.744 187.431 80.456C187.783 80.136 188.119 79.816 188.439 79.496C188.791 79.176 189.079 78.872 189.303 78.584C189.783 77.88 190.423 77.416 191.223 77.192C192.023 76.968 192.791 77.032 193.527 77.384C193.719 77.48 193.943 77.624 194.199 77.816C194.487 78.008 194.743 78.28 194.967 78.632C195.191 78.952 195.351 79.368 195.447 79.88C195.575 80.36 195.575 80.952 195.447 81.656C195.383 81.848 195.319 82.072 195.255 82.328C195.223 82.552 195.175 82.824 195.111 83.144C194.951 83.912 194.727 85 194.439 86.408C194.151 87.784 193.927 89.256 193.767 90.824C193.607 92.36 193.575 93.864 193.671 95.336C193.767 96.808 194.103 97.976 194.679 98.84C194.935 99.16 195.191 99.416 195.447 99.608C195.735 99.768 196.103 99.88 196.551 99.944C197.031 100.04 197.543 100.12 198.087 100.184C198.663 100.216 199.207 100.216 199.719 100.184C200.263 100.12 200.759 100.008 201.207 99.848C201.687 99.688 202.071 99.432 202.359 99.08C202.583 98.824 202.807 98.392 203.031 97.784C203.287 97.176 203.431 96.296 203.463 95.144C203.527 93.992 203.415 92.504 203.127 90.68C202.871 88.856 202.327 86.6 201.495 83.912C201.207 82.984 201.271 82.104 201.687 81.272C202.135 80.44 202.807 79.896 203.703 79.64ZM228.948 94.712C228.916 95.096 228.932 95.576 228.996 96.152C229.092 96.728 229.204 97.352 229.332 98.024C229.46 98.664 229.604 99.32 229.764 99.992C229.924 100.632 230.084 101.208 230.244 101.72C230.596 102.936 230.34 104.024 229.476 104.984C229.092 105.432 228.628 105.752 228.084 105.944C227.54 106.136 226.98 106.184 226.404 106.088C225.764 105.992 224.9 105.96 223.812 105.992C222.724 106.024 221.556 106.088 220.308 106.184C219.06 106.248 217.796 106.344 216.516 106.472C215.268 106.6 214.18 106.728 213.252 106.856C213.124 106.888 212.964 106.904 212.772 106.904C212.292 106.904 211.828 106.808 211.38 106.616C210.932 106.424 210.548 106.136 210.228 105.752C209.428 104.856 209.156 103.816 209.412 102.632C209.54 102.12 209.652 101.384 209.748 100.424C209.876 99.464 209.972 98.376 210.036 97.16C210.1 95.912 210.132 94.568 210.132 93.128C210.132 91.688 210.1 90.248 210.036 88.808C209.972 87.368 209.86 85.96 209.7 84.584C209.54 83.208 209.316 81.96 209.028 80.84C208.932 80.36 208.932 79.896 209.028 79.448C209.092 79 209.236 78.584 209.46 78.2C209.684 77.816 209.972 77.496 210.324 77.24C210.708 76.952 211.124 76.76 211.572 76.664C212.5 76.44 213.364 76.584 214.164 77.096C214.996 77.576 215.524 78.28 215.748 79.208C216.132 80.712 216.42 82.36 216.612 84.152C216.804 85.912 216.916 87.704 216.948 89.528C217.012 91.32 217.012 93.08 216.948 94.808C216.916 96.536 216.852 98.104 216.756 99.512C217.652 99.448 218.596 99.384 219.588 99.32C220.58 99.224 221.556 99.16 222.516 99.128C222.356 98.296 222.212 97.464 222.084 96.632C221.988 95.768 221.972 94.968 222.036 94.232C222.1 93.304 222.484 92.52 223.188 91.88C223.924 91.24 224.772 90.952 225.732 91.016C226.66 91.08 227.444 91.48 228.084 92.216C228.724 92.92 229.012 93.752 228.948 94.712ZM243.022 78.44C243.95 78.44 244.734 78.76 245.374 79.4C246.046 80.04 246.382 80.824 246.382 81.752C246.382 82.68 246.062 83.464 245.422 84.104C244.782 84.744 243.998 85.08 243.07 85.112H242.686C241.406 85.112 240.238 85.064 239.182 84.968C238.158 84.872 237.182 84.76 236.254 84.632C236.19 85.656 236.126 86.872 236.062 88.28C235.998 89.656 235.966 91.16 235.966 92.792C235.998 94.392 236.062 96.088 236.158 97.88C236.254 99.64 236.43 101.432 236.686 103.256C236.814 104.184 236.59 105.016 236.014 105.752C235.47 106.456 234.75 106.872 233.854 107C233.758 107 233.662 107 233.566 107C233.502 107.032 233.438 107.048 233.374 107.048C232.542 107.048 231.806 106.776 231.166 106.232C230.558 105.688 230.206 104.984 230.11 104.12C229.822 102.104 229.614 100.12 229.486 98.168C229.39 96.184 229.342 94.312 229.342 92.552C229.342 90.76 229.374 89.128 229.438 87.656C229.502 86.152 229.566 84.856 229.63 83.768C228.03 83.672 226.19 83.832 224.11 84.248C223.182 84.44 222.334 84.296 221.566 83.816C220.83 83.304 220.366 82.6 220.174 81.704C219.982 80.776 220.142 79.928 220.654 79.16C221.134 78.392 221.822 77.928 222.718 77.768C224.062 77.48 225.278 77.288 226.366 77.192C227.486 77.096 228.526 77.064 229.486 77.096C230.478 77.128 231.422 77.208 232.318 77.336C233.214 77.464 234.11 77.592 235.006 77.72C236.158 77.912 237.358 78.088 238.606 78.248C239.886 78.408 241.358 78.472 243.022 78.44ZM259.578 79.64C260.474 79.352 261.338 79.432 262.17 79.88C263.002 80.296 263.546 80.952 263.802 81.848C265.498 87.128 266.298 91.544 266.202 95.096C266.106 98.648 265.146 101.464 263.322 103.544C262.97 103.96 262.522 104.376 261.978 104.792C261.466 105.208 260.858 105.576 260.154 105.896C259.482 106.216 258.698 106.488 257.802 106.712C256.906 106.904 255.898 107 254.778 107C254.234 107 253.658 106.968 253.05 106.904C252.474 106.84 251.85 106.744 251.178 106.616C248.49 106.136 246.41 104.792 244.938 102.584C243.69 100.696 242.986 98.504 242.826 96.008C242.666 93.48 242.778 90.856 243.162 88.136C242.586 88.136 242.042 88.008 241.53 87.752C241.018 87.464 240.602 87.048 240.282 86.504C239.77 85.704 239.626 84.856 239.85 83.96C240.074 83.064 240.57 82.36 241.338 81.848C241.594 81.688 241.898 81.496 242.25 81.272C242.602 81.016 242.954 80.744 243.306 80.456C243.658 80.136 243.994 79.816 244.314 79.496C244.666 79.176 244.954 78.872 245.178 78.584C245.658 77.88 246.298 77.416 247.098 77.192C247.898 76.968 248.666 77.032 249.402 77.384C249.594 77.48 249.818 77.624 250.074 77.816C250.362 78.008 250.618 78.28 250.842 78.632C251.066 78.952 251.226 79.368 251.322 79.88C251.45 80.36 251.45 80.952 251.322 81.656C251.258 81.848 251.194 82.072 251.13 82.328C251.098 82.552 251.05 82.824 250.986 83.144C250.826 83.912 250.602 85 250.314 86.408C250.026 87.784 249.802 89.256 249.642 90.824C249.482 92.36 249.45 93.864 249.546 95.336C249.642 96.808 249.978 97.976 250.554 98.84C250.81 99.16 251.066 99.416 251.322 99.608C251.61 99.768 251.978 99.88 252.426 99.944C252.906 100.04 253.418 100.12 253.962 100.184C254.538 100.216 255.082 100.216 255.594 100.184C256.138 100.12 256.634 100.008 257.082 99.848C257.562 99.688 257.946 99.432 258.234 99.08C258.458 98.824 258.682 98.392 258.906 97.784C259.162 97.176 259.306 96.296 259.338 95.144C259.402 93.992 259.29 92.504 259.002 90.68C258.746 88.856 258.202 86.6 257.37 83.912C257.082 82.984 257.146 82.104 257.562 81.272C258.01 80.44 258.682 79.896 259.578 79.64ZM284.131 87.128C284.003 88.952 283.507 90.536 282.643 91.88C283.155 92.424 283.667 93.064 284.179 93.8C284.691 94.536 285.155 95.384 285.571 96.344C285.987 97.304 286.307 98.392 286.531 99.608C286.787 100.824 286.915 102.168 286.915 103.64C286.915 104.568 286.579 105.368 285.907 106.04C285.235 106.712 284.435 107.048 283.507 107.048C282.547 107.048 281.731 106.712 281.059 106.04C280.387 105.368 280.051 104.568 280.051 103.64C280.051 102.584 279.955 101.656 279.763 100.856C279.603 100.056 279.379 99.352 279.091 98.744C278.835 98.136 278.547 97.64 278.227 97.256C277.907 96.872 277.603 96.552 277.315 96.296C275.939 96.872 274.531 97.256 273.091 97.448C273.251 98.472 273.411 99.384 273.571 100.184C273.731 100.952 273.923 101.512 274.147 101.864C274.627 102.696 274.755 103.576 274.531 104.504C274.307 105.4 273.779 106.088 272.947 106.568C272.403 106.888 271.811 107.048 271.171 107.048C270.595 107.048 270.035 106.904 269.491 106.616C268.979 106.328 268.547 105.912 268.195 105.368C267.619 104.344 267.139 102.936 266.755 101.144C266.403 99.352 266.147 97.448 265.987 95.432C265.859 93.384 265.811 91.352 265.843 89.336C265.875 87.32 265.987 85.576 266.179 84.104C265.923 84.168 265.731 84.216 265.603 84.248C265.123 84.344 264.659 84.36 264.211 84.296C263.763 84.2 263.347 84.04 262.963 83.816C262.579 83.592 262.259 83.304 262.003 82.952C261.715 82.568 261.523 82.152 261.427 81.704C261.331 81.224 261.331 80.76 261.427 80.312C261.491 79.864 261.635 79.464 261.859 79.112C262.083 78.728 262.387 78.408 262.771 78.152C263.123 77.864 263.523 77.656 263.971 77.528C265.091 77.272 266.403 77.096 267.907 77C269.443 76.872 271.011 76.888 272.611 77.048C274.211 77.176 275.763 77.48 277.267 77.96C278.771 78.408 280.083 79.112 281.203 80.072C282.259 80.968 283.027 82.024 283.507 83.24C284.019 84.456 284.227 85.752 284.131 87.128ZM273.139 83.96C272.947 84.696 272.819 85.656 272.755 86.84C272.691 87.992 272.675 89.24 272.707 90.584C273.187 90.488 273.683 90.36 274.195 90.2C274.707 90.008 275.187 89.752 275.635 89.432C276.083 89.112 276.451 88.728 276.739 88.28C277.027 87.832 277.203 87.288 277.267 86.648C277.299 86.072 277.123 85.624 276.739 85.304C276.355 84.952 275.843 84.68 275.203 84.488C274.595 84.264 273.907 84.088 273.139 83.96ZM304.813 90.488C305.773 90.552 306.573 90.936 307.213 91.64C307.853 92.312 308.141 93.128 308.077 94.088C307.949 96.104 307.549 97.88 306.877 99.416C306.205 100.92 305.357 102.232 304.333 103.352V103.4V103.592H304.285H304.237C304.237 103.688 304.253 103.752 304.285 103.784C304.381 103.944 304.365 104.088 304.237 104.216C304.141 104.312 304.077 104.36 304.045 104.36C303.821 104.392 303.709 104.712 303.709 105.32V105.8V105.896V105.992V107.864V108.104C303.741 108.264 303.757 108.408 303.757 108.536C303.789 108.664 303.773 108.792 303.709 108.92C303.549 109.176 303.341 109.304 303.085 109.304H302.845C302.685 109.24 302.573 109.128 302.509 108.968C302.477 108.84 302.461 108.712 302.461 108.584V108.44C302.461 108.408 302.477 108.376 302.509 108.344V108.296V108.248C302.477 108.248 302.445 108.232 302.413 108.2V108.056C302.349 107.928 302.301 107.752 302.269 107.528C302.269 107.336 302.285 107.112 302.317 106.856V106.616C302.125 106.68 302.029 106.968 302.029 107.48V108.056V108.104V108.248V110.12V110.312C302.061 110.44 302.077 110.584 302.077 110.744C302.109 110.904 302.093 111.048 302.029 111.176C301.869 111.432 301.661 111.56 301.405 111.56C301.309 111.56 301.229 111.544 301.165 111.512C301.005 111.48 300.893 111.384 300.829 111.224C300.797 111.096 300.781 110.952 300.781 110.792V110.744V110.696V110.552V110.504V110.456C300.781 110.424 300.765 110.392 300.733 110.36V110.264C300.669 110.168 300.621 110.008 300.589 109.784C300.589 109.56 300.605 109.32 300.637 109.064V108.824V108.152V107.672V107.48C300.669 107.288 300.653 107.128 300.589 107C300.493 107.096 300.429 107.144 300.397 107.144H300.445C300.445 107.24 300.429 107.288 300.397 107.288C300.333 107.352 300.285 107.384 300.253 107.384C300.221 107.384 300.189 107.368 300.157 107.336C300.061 107.24 300.029 107.176 300.061 107.144L300.109 107.096C300.109 107.096 300.141 107.08 300.205 107.048C300.205 107.048 300.189 107.032 300.157 107L300.205 106.904C300.205 106.84 300.237 106.808 300.301 106.808C300.301 106.712 300.237 106.632 300.109 106.568H300.013C299.949 106.536 299.917 106.52 299.917 106.52C299.917 106.488 299.901 106.456 299.869 106.424V106.376C299.133 106.728 298.381 106.968 297.613 107.096C296.845 107.224 296.061 107.288 295.261 107.288H294.877C293.277 107.256 291.805 106.968 290.461 106.424C289.149 105.848 288.013 105.08 287.053 104.12C286.093 103.16 285.341 102.024 284.797 100.712C284.253 99.4 283.981 97.976 283.981 96.44C283.981 95.352 284.157 94.376 284.509 93.512C284.861 92.648 285.341 91.896 285.949 91.256C285.277 90.072 285.021 88.776 285.181 87.368C285.341 85.928 285.629 84.584 286.045 83.336C286.365 82.248 286.765 81.336 287.245 80.6C287.725 79.864 288.221 79.256 288.733 78.776C289.277 78.296 289.821 77.928 290.365 77.672C290.941 77.416 291.469 77.224 291.949 77.096C293.069 76.84 294.205 76.84 295.357 77.096C296.509 77.32 297.597 77.704 298.621 78.248C298.909 77.608 299.325 77.096 299.869 76.712C300.445 76.328 301.085 76.136 301.789 76.136C302.749 76.136 303.565 76.472 304.237 77.144C304.909 77.816 305.245 78.632 305.245 79.592C305.245 80.008 305.277 80.472 305.341 80.984C305.405 81.464 305.485 81.944 305.581 82.424C305.677 82.904 305.757 83.352 305.821 83.768C305.917 84.152 305.981 84.456 306.013 84.68C306.237 85.416 306.189 86.152 305.869 86.888C305.581 87.592 305.085 88.152 304.381 88.568C303.677 88.92 302.941 89.048 302.173 88.952C301.437 88.824 300.781 88.472 300.205 87.896C299.629 87.32 299.005 86.776 298.333 86.264C297.693 85.72 297.053 85.256 296.413 84.872C295.805 84.488 295.245 84.2 294.733 84.008C294.221 83.816 293.821 83.752 293.533 83.816C293.213 83.816 292.877 84.344 292.525 85.4C292.397 85.848 292.301 86.232 292.237 86.552C292.205 86.872 292.157 87.144 292.093 87.368H294.013C294.365 87.336 294.717 87.32 295.069 87.32C295.453 87.32 295.853 87.32 296.269 87.32C297.197 87.32 297.997 87.64 298.669 88.28C299.341 88.888 299.693 89.656 299.725 90.584C299.725 91.544 299.405 92.36 298.765 93.032C298.125 93.704 297.341 94.072 296.413 94.136C295.837 94.168 295.213 94.248 294.541 94.376C293.901 94.504 293.293 94.68 292.717 94.904C292.173 95.096 291.709 95.32 291.325 95.576C290.973 95.832 290.797 96.12 290.797 96.44C290.797 97.176 290.925 97.8 291.181 98.312C291.437 98.792 291.773 99.192 292.189 99.512C292.605 99.8 293.069 100.024 293.581 100.184C294.093 100.344 294.605 100.424 295.117 100.424C295.757 100.456 296.413 100.36 297.085 100.136C297.789 99.912 298.429 99.544 299.005 99.032C299.613 98.488 300.109 97.784 300.493 96.92C300.909 96.024 301.165 94.936 301.261 93.656C301.325 92.728 301.693 91.96 302.365 91.352C303.069 90.712 303.885 90.424 304.813 90.488ZM304.813 103.784C304.877 103.72 304.989 103.72 305.149 103.784C305.181 103.88 305.181 103.944 305.149 103.976C305.085 104.04 305.021 104.072 304.957 104.072C304.925 104.072 304.909 104.056 304.909 104.024L304.861 103.976C304.797 103.976 304.765 103.944 304.765 103.88V103.832C304.765 103.832 304.781 103.816 304.813 103.784ZM337.696 79.208C341.408 81.576 343.696 85.656 344.56 91.448C344.944 94.04 344.704 96.408 343.84 98.552C342.976 100.696 341.52 102.488 339.472 103.928C338.032 104.952 336.4 105.72 334.576 106.232C332.784 106.712 330.96 106.952 329.104 106.952C327.664 106.952 326.24 106.808 324.832 106.52C323.456 106.2 322.192 105.72 321.04 105.08C320.208 104.632 319.664 103.96 319.408 103.064C319.152 102.136 319.264 101.256 319.744 100.424C320.16 99.624 320.768 99.096 321.568 98.84C322.368 98.552 323.184 98.584 324.016 98.936C323.728 97.848 323.472 96.712 323.248 95.528C323.056 94.344 322.88 93.16 322.72 91.976C322.592 90.76 322.496 89.592 322.432 88.472C322.368 87.32 322.352 86.264 322.384 85.304C322.256 85.304 322.144 85.32 322.048 85.352C321.12 85.512 320.256 85.352 319.456 84.872C318.656 84.36 318.16 83.64 317.968 82.712C317.776 81.784 317.936 80.92 318.448 80.12C318.992 79.32 319.728 78.824 320.656 78.632C320.72 78.6 320.832 78.568 320.992 78.536C321.184 78.472 321.376 78.424 321.568 78.392C322.336 78.168 323.328 77.912 324.544 77.624C325.792 77.336 327.136 77.16 328.576 77.096C330.048 77 331.568 77.096 333.136 77.384C334.704 77.64 336.224 78.248 337.696 79.208ZM335.536 98.312C337.424 97.032 338.176 95.096 337.792 92.504C337.216 88.76 335.952 86.232 334 84.92C333.328 84.472 332.592 84.184 331.792 84.056C331.024 83.928 330.224 83.864 329.392 83.864C329.232 84.824 329.184 86.072 329.248 87.608C329.344 89.144 329.504 90.712 329.728 92.312C329.952 93.912 330.224 95.416 330.544 96.824C330.896 98.2 331.248 99.208 331.6 99.848C332.336 99.688 333.04 99.496 333.712 99.272C334.384 99.016 334.992 98.696 335.536 98.312ZM362.646 87.128C362.518 88.952 362.022 90.536 361.158 91.88C361.67 92.424 362.182 93.064 362.694 93.8C363.206 94.536 363.67 95.384 364.086 96.344C364.502 97.304 364.822 98.392 365.046 99.608C365.302 100.824 365.43 102.168 365.43 103.64C365.43 104.568 365.094 105.368 364.422 106.04C363.75 106.712 362.95 107.048 362.022 107.048C361.062 107.048 360.246 106.712 359.574 106.04C358.902 105.368 358.566 104.568 358.566 103.64C358.566 102.584 358.47 101.656 358.278 100.856C358.118 100.056 357.894 99.352 357.606 98.744C357.35 98.136 357.062 97.64 356.742 97.256C356.422 96.872 356.118 96.552 355.83 96.296C354.454 96.872 353.046 97.256 351.606 97.448C351.766 98.472 351.926 99.384 352.086 100.184C352.246 100.952 352.438 101.512 352.662 101.864C353.142 102.696 353.27 103.576 353.046 104.504C352.822 105.4 352.294 106.088 351.462 106.568C350.918 106.888 350.326 107.048 349.686 107.048C349.11 107.048 348.55 106.904 348.006 106.616C347.494 106.328 347.062 105.912 346.71 105.368C346.134 104.344 345.654 102.936 345.27 101.144C344.918 99.352 344.662 97.448 344.502 95.432C344.374 93.384 344.326 91.352 344.358 89.336C344.39 87.32 344.502 85.576 344.694 84.104C344.438 84.168 344.246 84.216 344.118 84.248C343.638 84.344 343.174 84.36 342.726 84.296C342.278 84.2 341.862 84.04 341.478 83.816C341.094 83.592 340.774 83.304 340.518 82.952C340.23 82.568 340.038 82.152 339.942 81.704C339.846 81.224 339.846 80.76 339.942 80.312C340.006 79.864 340.15 79.464 340.374 79.112C340.598 78.728 340.902 78.408 341.286 78.152C341.638 77.864 342.038 77.656 342.486 77.528C343.606 77.272 344.918 77.096 346.422 77C347.958 76.872 349.526 76.888 351.126 77.048C352.726 77.176 354.278 77.48 355.782 77.96C357.286 78.408 358.598 79.112 359.718 80.072C360.774 80.968 361.542 82.024 362.022 83.24C362.534 84.456 362.742 85.752 362.646 87.128ZM351.654 83.96C351.462 84.696 351.334 85.656 351.27 86.84C351.206 87.992 351.19 89.24 351.222 90.584C351.702 90.488 352.198 90.36 352.71 90.2C353.222 90.008 353.702 89.752 354.15 89.432C354.598 89.112 354.966 88.728 355.254 88.28C355.542 87.832 355.718 87.288 355.782 86.648C355.814 86.072 355.638 85.624 355.254 85.304C354.87 84.952 354.358 84.68 353.718 84.488C353.11 84.264 352.422 84.088 351.654 83.96ZM370.773 92.504C370.677 94.424 370.613 96.232 370.581 97.928C370.549 99.592 370.757 101.192 371.205 102.728C371.461 103.624 371.365 104.472 370.917 105.272C370.469 106.072 369.797 106.6 368.901 106.856C368.741 106.888 368.581 106.92 368.421 106.952C368.293 106.952 368.149 106.952 367.989 106.952C367.253 106.952 366.581 106.728 365.973 106.28C365.397 105.832 364.997 105.24 364.773 104.504C364.165 102.424 363.861 100.376 363.861 98.36C363.893 96.312 363.973 94.216 364.101 92.072C364.165 90.856 364.229 89.64 364.293 88.424C364.357 87.176 364.357 85.88 364.293 84.536C364.261 83.608 364.549 82.824 365.157 82.184C365.797 81.512 366.581 81.144 367.509 81.08C368.437 81.016 369.237 81.304 369.909 81.944C370.581 82.552 370.949 83.32 371.013 84.248C371.077 85.72 371.077 87.144 371.013 88.52C370.949 89.864 370.869 91.192 370.773 92.504ZM367.797 80.024C366.869 79.992 366.085 79.64 365.445 78.968C364.805 78.296 364.501 77.496 364.533 76.568L364.629 74.12C364.661 73.224 365.013 72.456 365.685 71.816C366.389 71.176 367.205 70.872 368.133 70.904C369.029 70.968 369.781 71.336 370.389 72.008C371.029 72.68 371.333 73.48 371.301 74.408L371.205 76.808C371.173 77.736 370.837 78.52 370.197 79.16C369.557 79.768 368.805 80.072 367.941 80.072C367.845 80.072 367.797 80.056 367.797 80.024ZM390.597 77.048C391.525 77.048 392.325 77.384 392.997 78.056C393.669 78.728 394.005 79.528 394.005 80.456C394.005 81.384 393.941 82.456 393.813 83.672C393.685 84.856 393.509 86.104 393.285 87.416C393.093 88.728 392.837 90.072 392.517 91.448C392.229 92.792 391.893 94.088 391.509 95.336C390.325 99.336 388.997 102.28 387.525 104.168C386.053 106.056 384.357 107.016 382.437 107.048H382.389C381.781 107.048 381.045 106.904 380.181 106.616C379.349 106.328 378.469 105.72 377.541 104.792C376.485 103.736 375.493 102.344 374.565 100.616C373.669 98.856 372.885 96.888 372.213 94.712C371.541 92.536 371.029 90.232 370.677 87.8C370.293 85.336 370.101 82.888 370.101 80.456C370.101 79.528 370.437 78.728 371.109 78.056C371.781 77.384 372.581 77.048 373.509 77.048C374.437 77.048 375.237 77.384 375.909 78.056C376.581 78.728 376.917 79.528 376.917 80.456C376.917 82.888 377.093 85.176 377.445 87.32C377.829 89.464 378.293 91.384 378.837 93.08C379.381 94.776 379.957 96.216 380.565 97.4C381.173 98.584 381.717 99.416 382.197 99.896C382.549 99.416 382.997 98.568 383.541 97.352C384.117 96.136 384.725 94.376 385.365 92.072C385.685 90.888 385.957 89.72 386.181 88.568C386.405 87.416 386.581 86.344 386.709 85.352C386.869 84.328 386.981 83.4 387.045 82.568C387.141 81.736 387.189 81.032 387.189 80.456C387.189 79.528 387.525 78.728 388.197 78.056C388.869 77.384 389.669 77.048 390.597 77.048ZM411.873 90.296C412.833 90.36 413.617 90.744 414.225 91.448C414.865 92.152 415.153 92.984 415.089 93.944C414.961 96.088 414.513 97.976 413.745 99.608C412.977 101.24 412.001 102.6 410.817 103.688C409.633 104.776 408.305 105.592 406.833 106.136C405.361 106.68 403.889 106.952 402.417 106.952H402.033C400.497 106.92 399.073 106.632 397.761 106.088C396.449 105.512 395.313 104.744 394.353 103.784C393.393 102.824 392.641 101.704 392.097 100.424C391.553 99.112 391.281 97.704 391.281 96.2C391.281 95.112 391.441 94.152 391.761 93.32C392.113 92.488 392.593 91.768 393.201 91.16C392.849 90.552 392.625 89.912 392.529 89.24C392.433 88.568 392.401 87.896 392.433 87.224C392.497 86.552 392.609 85.88 392.769 85.208C392.929 84.536 393.105 83.912 393.297 83.336C393.617 82.248 394.017 81.336 394.497 80.6C394.977 79.864 395.473 79.256 395.985 78.776C396.529 78.296 397.073 77.928 397.617 77.672C398.161 77.416 398.673 77.224 399.153 77.096C400.273 76.84 401.393 76.84 402.513 77.096C403.665 77.32 404.769 77.704 405.825 78.248C406.049 77.608 406.433 77.112 406.977 76.76C407.521 76.376 408.161 76.184 408.897 76.184C409.825 76.184 410.625 76.52 411.297 77.192C411.969 77.864 412.305 78.664 412.305 79.592C412.305 79.976 412.337 80.424 412.401 80.936C412.465 81.416 412.529 81.896 412.593 82.376C412.689 82.856 412.769 83.304 412.833 83.72C412.929 84.104 413.009 84.408 413.073 84.632C413.265 85.368 413.201 86.088 412.881 86.792C412.593 87.496 412.113 88.024 411.441 88.376C410.801 88.792 410.097 88.936 409.329 88.808C408.561 88.68 407.905 88.344 407.361 87.8C406.785 87.224 406.161 86.68 405.489 86.168C404.849 85.624 404.209 85.16 403.569 84.776C402.961 84.392 402.401 84.104 401.889 83.912C401.377 83.72 400.977 83.656 400.689 83.72C400.369 83.784 400.065 84.312 399.777 85.304C399.521 86.136 399.361 86.776 399.297 87.224C399.585 87.256 399.889 87.272 400.209 87.272C400.561 87.24 400.897 87.224 401.217 87.224C401.569 87.192 401.921 87.176 402.273 87.176C402.625 87.176 403.009 87.176 403.425 87.176C404.353 87.176 405.137 87.496 405.777 88.136C406.417 88.776 406.753 89.56 406.785 90.488C406.817 91.416 406.513 92.216 405.873 92.888C405.233 93.56 404.465 93.912 403.569 93.944C403.025 93.976 402.433 94.056 401.793 94.184C401.153 94.312 400.545 94.488 399.969 94.712C399.425 94.904 398.961 95.128 398.577 95.384C398.225 95.64 398.049 95.912 398.049 96.2C398.049 96.904 398.177 97.512 398.433 98.024C398.689 98.504 399.009 98.904 399.393 99.224C399.809 99.544 400.273 99.784 400.785 99.944C401.297 100.104 401.793 100.184 402.273 100.184C402.913 100.184 403.569 100.088 404.241 99.896C404.945 99.672 405.585 99.304 406.161 98.792C406.737 98.248 407.217 97.544 407.601 96.68C408.017 95.816 408.257 94.76 408.321 93.512C408.385 92.552 408.753 91.768 409.425 91.16C410.129 90.52 410.945 90.232 411.873 90.296ZM430.684 77.912C431.58 77.56 432.444 77.592 433.276 78.008C434.108 78.424 434.684 79.064 435.004 79.928C435.644 81.688 436.14 83.496 436.492 85.352C436.844 87.176 437.084 88.968 437.212 90.728C437.372 92.456 437.436 94.104 437.404 95.672C437.404 97.24 437.372 98.616 437.308 99.8C437.244 100.984 437.164 101.944 437.068 102.68C436.972 103.416 436.924 103.832 436.924 103.928C436.828 104.664 436.524 105.288 436.012 105.8C435.5 106.312 434.876 106.632 434.14 106.76C433.404 106.888 432.716 106.792 432.076 106.472C431.436 106.12 430.94 105.624 430.588 104.984C429.756 103.384 428.876 101.752 427.948 100.088C427.02 98.392 426.092 96.76 425.164 95.192C424.236 93.624 423.34 92.152 422.476 90.776C421.612 89.368 420.812 88.136 420.076 87.08C420.012 88.36 419.996 89.752 420.028 91.256C420.06 92.76 420.108 94.248 420.172 95.72C420.268 97.192 420.38 98.6 420.508 99.944C420.636 101.256 420.78 102.376 420.94 103.304C421.1 104.232 420.908 105.08 420.364 105.848C419.82 106.584 419.084 107.032 418.156 107.192C418.06 107.192 417.964 107.192 417.868 107.192C417.772 107.224 417.692 107.24 417.628 107.24C416.796 107.24 416.06 106.984 415.42 106.472C414.812 105.928 414.444 105.24 414.316 104.408C414.252 103.96 414.156 103.192 414.028 102.104C413.9 101.016 413.772 99.736 413.644 98.264C413.548 96.792 413.468 95.208 413.404 93.512C413.308 91.784 413.276 90.088 413.308 88.424C413.34 86.76 413.452 85.192 413.644 83.72C413.836 82.216 414.124 80.936 414.508 79.88C414.796 79.08 415.244 78.44 415.852 77.96C416.492 77.48 417.228 77.208 418.06 77.144C418.732 77.112 419.42 77.256 420.124 77.576C420.828 77.864 421.628 78.472 422.524 79.4C423.452 80.328 424.524 81.656 425.74 83.384C426.956 85.112 428.396 87.368 430.06 90.152C430.124 90.312 430.188 90.456 430.252 90.584C430.348 90.68 430.428 90.792 430.492 90.92C430.364 89.48 430.156 88.024 429.868 86.552C429.58 85.048 429.18 83.608 428.668 82.232C428.348 81.368 428.38 80.52 428.764 79.688C429.18 78.824 429.82 78.232 430.684 77.912ZM469.219 90.968C469.667 92.408 470.083 93.816 470.467 95.192C470.883 96.568 471.235 97.8 471.523 98.888C471.843 99.976 472.083 100.872 472.243 101.576C472.435 102.248 472.531 102.616 472.531 102.68C472.787 103.608 472.675 104.472 472.195 105.272C471.715 106.04 471.027 106.536 470.131 106.76C469.203 107.016 468.323 106.904 467.491 106.424C466.691 105.944 466.179 105.24 465.955 104.312C465.891 104.056 465.827 103.816 465.763 103.592C465.731 103.336 465.683 103.08 465.619 102.824C464.723 102.632 463.811 102.472 462.883 102.344C461.955 102.184 461.027 102.056 460.099 101.96C459.203 101.864 458.339 101.816 457.507 101.816C456.675 101.784 455.923 101.8 455.251 101.864C455.123 102.312 454.995 102.744 454.867 103.16C454.771 103.544 454.675 103.944 454.579 104.36C454.387 105.096 453.971 105.704 453.331 106.184C452.723 106.664 452.051 106.904 451.315 106.904C450.995 106.904 450.691 106.856 450.403 106.76C449.475 106.504 448.771 105.992 448.291 105.224C447.843 104.424 447.747 103.56 448.003 102.632C448.035 102.6 448.131 102.248 448.291 101.576C448.483 100.872 448.739 99.976 449.059 98.888C449.379 97.8 449.731 96.568 450.115 95.192C450.531 93.784 450.979 92.36 451.459 90.92C452.323 88.296 453.123 86.104 453.859 84.344C454.595 82.552 455.299 81.128 455.971 80.072C456.675 78.984 457.379 78.216 458.083 77.768C458.787 77.288 459.555 77.048 460.387 77.048C461.219 77.048 461.987 77.288 462.691 77.768C463.395 78.216 464.083 78.984 464.755 80.072C465.459 81.128 466.163 82.552 466.867 84.344C467.603 86.136 468.387 88.344 469.219 90.968ZM457.267 95C459.411 95 461.507 95.176 463.555 95.528C463.011 93.704 462.451 92.008 461.875 90.44C461.331 88.84 460.835 87.448 460.387 86.264C459.939 87.384 459.443 88.696 458.899 90.2C458.355 91.672 457.811 93.272 457.267 95ZM490.103 91.304C490.999 91.304 491.767 91.608 492.407 92.216C493.079 92.824 493.447 93.576 493.511 94.472C493.511 94.632 493.511 95.032 493.511 95.672C493.511 96.28 493.415 97.032 493.223 97.928C493.031 98.792 492.711 99.736 492.263 100.76C491.847 101.752 491.207 102.696 490.343 103.592C489.991 103.976 489.543 104.376 488.999 104.792C488.487 105.176 487.879 105.528 487.175 105.848C486.471 106.168 485.655 106.44 484.727 106.664C483.831 106.856 482.823 106.952 481.703 106.952C479.399 106.952 477.335 106.296 475.511 104.984C473.719 103.672 472.279 101.816 471.191 99.416C470.487 97.848 469.991 96.2 469.703 94.472C469.447 92.712 469.399 91 469.559 89.336C469.719 87.672 470.071 86.104 470.615 84.632C471.191 83.128 471.959 81.848 472.919 80.792C474.263 79.288 475.751 78.216 477.383 77.576C479.047 76.936 480.759 76.76 482.519 77.048C483.831 77.24 485.063 77.672 486.215 78.344C486.663 77.8 487.223 77.416 487.895 77.192C488.599 76.968 489.319 76.984 490.055 77.24C490.951 77.56 491.591 78.136 491.975 78.968C492.391 79.8 492.455 80.664 492.167 81.56C492.071 81.816 492.023 82.136 492.023 82.52C492.023 82.872 492.039 83.24 492.071 83.624C492.135 84.008 492.199 84.376 492.263 84.728C492.359 85.048 492.439 85.304 492.503 85.496C492.823 86.36 492.791 87.208 492.407 88.04C492.023 88.872 491.415 89.464 490.583 89.816C489.751 90.168 488.903 90.168 488.039 89.816C487.175 89.464 486.551 88.856 486.167 87.992C485.687 86.872 485.015 85.928 484.151 85.16C483.287 84.392 482.407 83.944 481.511 83.816C481.255 83.752 480.823 83.768 480.215 83.864C479.607 83.928 478.887 84.424 478.055 85.352C477.543 85.928 477.143 86.664 476.855 87.56C476.567 88.456 476.391 89.416 476.327 90.44C476.295 91.464 476.359 92.52 476.519 93.608C476.711 94.696 477.015 95.704 477.431 96.632C477.623 97.048 477.847 97.464 478.103 97.88C478.359 98.296 478.663 98.68 479.015 99.032C479.367 99.352 479.767 99.624 480.215 99.848C480.663 100.04 481.159 100.136 481.703 100.136C483.399 100.136 484.631 99.72 485.399 98.888C485.495 98.792 485.591 98.68 485.687 98.552C485.783 98.424 485.863 98.296 485.927 98.168H483.671C482.711 98.168 481.895 97.848 481.223 97.208C480.583 96.536 480.247 95.736 480.215 94.808C480.215 93.848 480.535 93.032 481.175 92.36C481.847 91.688 482.663 91.352 483.623 91.352L490.055 91.304H490.103ZM512.514 90.296C513.474 90.36 514.258 90.744 514.866 91.448C515.506 92.152 515.794 92.984 515.73 93.944C515.602 96.088 515.154 97.976 514.386 99.608C513.618 101.24 512.642 102.6 511.458 103.688C510.274 104.776 508.946 105.592 507.474 106.136C506.002 106.68 504.53 106.952 503.058 106.952H502.674C501.138 106.92 499.714 106.632 498.402 106.088C497.09 105.512 495.954 104.744 494.994 103.784C494.034 102.824 493.282 101.704 492.738 100.424C492.194 99.112 491.922 97.704 491.922 96.2C491.922 95.112 492.082 94.152 492.402 93.32C492.754 92.488 493.234 91.768 493.842 91.16C493.49 90.552 493.266 89.912 493.17 89.24C493.074 88.568 493.042 87.896 493.074 87.224C493.138 86.552 493.25 85.88 493.41 85.208C493.57 84.536 493.746 83.912 493.938 83.336C494.258 82.248 494.658 81.336 495.138 80.6C495.618 79.864 496.114 79.256 496.626 78.776C497.17 78.296 497.714 77.928 498.258 77.672C498.802 77.416 499.314 77.224 499.794 77.096C500.914 76.84 502.034 76.84 503.154 77.096C504.306 77.32 505.41 77.704 506.466 78.248C506.69 77.608 507.074 77.112 507.618 76.76C508.162 76.376 508.802 76.184 509.538 76.184C510.466 76.184 511.266 76.52 511.938 77.192C512.61 77.864 512.946 78.664 512.946 79.592C512.946 79.976 512.978 80.424 513.042 80.936C513.106 81.416 513.17 81.896 513.234 82.376C513.33 82.856 513.41 83.304 513.474 83.72C513.57 84.104 513.65 84.408 513.714 84.632C513.906 85.368 513.842 86.088 513.522 86.792C513.234 87.496 512.754 88.024 512.082 88.376C511.442 88.792 510.738 88.936 509.97 88.808C509.202 88.68 508.546 88.344 508.002 87.8C507.426 87.224 506.802 86.68 506.13 86.168C505.49 85.624 504.85 85.16 504.21 84.776C503.602 84.392 503.042 84.104 502.53 83.912C502.018 83.72 501.618 83.656 501.33 83.72C501.01 83.784 500.706 84.312 500.418 85.304C500.162 86.136 500.002 86.776 499.938 87.224C500.226 87.256 500.53 87.272 500.85 87.272C501.202 87.24 501.538 87.224 501.858 87.224C502.21 87.192 502.562 87.176 502.914 87.176C503.266 87.176 503.65 87.176 504.066 87.176C504.994 87.176 505.778 87.496 506.418 88.136C507.058 88.776 507.394 89.56 507.426 90.488C507.458 91.416 507.154 92.216 506.514 92.888C505.874 93.56 505.106 93.912 504.21 93.944C503.666 93.976 503.074 94.056 502.434 94.184C501.794 94.312 501.186 94.488 500.61 94.712C500.066 94.904 499.602 95.128 499.218 95.384C498.866 95.64 498.69 95.912 498.69 96.2C498.69 96.904 498.818 97.512 499.074 98.024C499.33 98.504 499.65 98.904 500.034 99.224C500.45 99.544 500.914 99.784 501.426 99.944C501.938 100.104 502.434 100.184 502.914 100.184C503.554 100.184 504.21 100.088 504.882 99.896C505.586 99.672 506.226 99.304 506.802 98.792C507.378 98.248 507.858 97.544 508.242 96.68C508.658 95.816 508.898 94.76 508.962 93.512C509.026 92.552 509.394 91.768 510.066 91.16C510.77 90.52 511.586 90.232 512.514 90.296ZM531.325 77.912C532.221 77.56 533.085 77.592 533.917 78.008C534.749 78.424 535.325 79.064 535.645 79.928C536.285 81.688 536.781 83.496 537.133 85.352C537.485 87.176 537.725 88.968 537.853 90.728C538.013 92.456 538.077 94.104 538.045 95.672C538.045 97.24 538.013 98.616 537.949 99.8C537.885 100.984 537.805 101.944 537.709 102.68C537.613 103.416 537.565 103.832 537.565 103.928C537.469 104.664 537.165 105.288 536.653 105.8C536.141 106.312 535.517 106.632 534.781 106.76C534.045 106.888 533.357 106.792 532.717 106.472C532.077 106.12 531.581 105.624 531.229 104.984C530.397 103.384 529.517 101.752 528.589 100.088C527.661 98.392 526.733 96.76 525.805 95.192C524.877 93.624 523.981 92.152 523.117 90.776C522.253 89.368 521.453 88.136 520.717 87.08C520.653 88.36 520.637 89.752 520.669 91.256C520.701 92.76 520.749 94.248 520.813 95.72C520.909 97.192 521.021 98.6 521.149 99.944C521.277 101.256 521.421 102.376 521.581 103.304C521.741 104.232 521.549 105.08 521.005 105.848C520.461 106.584 519.725 107.032 518.797 107.192C518.701 107.192 518.605 107.192 518.509 107.192C518.413 107.224 518.333 107.24 518.269 107.24C517.437 107.24 516.701 106.984 516.061 106.472C515.453 105.928 515.085 105.24 514.957 104.408C514.893 103.96 514.797 103.192 514.669 102.104C514.541 101.016 514.413 99.736 514.285 98.264C514.189 96.792 514.109 95.208 514.045 93.512C513.949 91.784 513.917 90.088 513.949 88.424C513.981 86.76 514.093 85.192 514.285 83.72C514.477 82.216 514.765 80.936 515.149 79.88C515.437 79.08 515.885 78.44 516.493 77.96C517.133 77.48 517.869 77.208 518.701 77.144C519.373 77.112 520.061 77.256 520.765 77.576C521.469 77.864 522.269 78.472 523.165 79.4C524.093 80.328 525.165 81.656 526.381 83.384C527.597 85.112 529.037 87.368 530.701 90.152C530.765 90.312 530.829 90.456 530.893 90.584C530.989 90.68 531.069 90.792 531.133 90.92C531.005 89.48 530.797 88.024 530.509 86.552C530.221 85.048 529.821 83.608 529.309 82.232C528.989 81.368 529.021 80.52 529.405 79.688C529.821 78.824 530.461 78.232 531.325 77.912ZM558.088 93.08C558.568 93.144 559 93.304 559.384 93.56C559.768 93.816 560.088 94.136 560.344 94.52C560.6 94.904 560.776 95.304 560.872 95.72C560.968 96.136 561 96.536 560.968 96.92C560.872 97.784 560.584 98.792 560.104 99.944C559.656 101.096 558.968 102.2 558.04 103.256C557.112 104.28 555.928 105.16 554.488 105.896C553.08 106.6 551.368 106.952 549.352 106.952H549.112C546.776 106.92 544.68 106.232 542.824 104.888C541 103.512 539.544 101.608 538.456 99.176C537.784 97.608 537.32 95.96 537.064 94.232C536.808 92.472 536.76 90.776 536.92 89.144C537.08 87.48 537.448 85.912 538.024 84.44C538.6 82.968 539.368 81.704 540.328 80.648C541.64 79.144 543.112 78.072 544.744 77.432C546.408 76.792 548.152 76.632 549.976 76.952C550.616 77.016 551.224 77.16 551.8 77.384C552.408 77.608 553.016 77.896 553.624 78.248C554.072 77.64 554.648 77.224 555.352 77C556.056 76.776 556.776 76.792 557.512 77.048C558.408 77.368 559.064 77.96 559.48 78.824C559.896 79.656 559.96 80.52 559.672 81.416C559.576 81.608 559.528 81.88 559.528 82.232C559.56 82.584 559.608 82.952 559.672 83.336C559.736 83.72 559.816 84.104 559.912 84.488C560.04 84.872 560.168 85.208 560.296 85.496C560.648 86.392 560.648 87.272 560.296 88.136C559.944 89 559.336 89.624 558.472 90.008C558.024 90.2 557.56 90.296 557.08 90.296C556.632 90.264 556.2 90.168 555.784 90.008C555.4 89.848 555.048 89.624 554.728 89.336C554.408 89.016 554.152 88.648 553.96 88.232C553.704 87.656 553.384 87.112 553 86.6C552.616 86.088 552.2 85.64 551.752 85.256C551.304 84.84 550.824 84.504 550.312 84.248C549.832 83.96 549.352 83.784 548.872 83.72C548.424 83.656 547.912 83.688 547.336 83.816C546.792 83.912 546.168 84.376 545.464 85.208C544.952 85.784 544.552 86.52 544.264 87.416C543.976 88.28 543.8 89.224 543.736 90.248C543.672 91.272 543.72 92.328 543.88 93.416C544.072 94.472 544.36 95.48 544.744 96.44C544.936 96.856 545.16 97.272 545.416 97.688C545.704 98.104 546.024 98.488 546.376 98.84C546.728 99.192 547.144 99.496 547.624 99.752C548.104 99.976 548.632 100.088 549.208 100.088H549.352C550.312 100.088 551.08 99.928 551.656 99.608C552.264 99.288 552.744 98.904 553.096 98.456C553.448 98.008 553.688 97.56 553.816 97.112C553.976 96.664 554.088 96.312 554.152 96.056V96.008C554.216 95.656 554.312 95.304 554.44 94.952C554.6 94.568 554.824 94.232 555.112 93.944C555.4 93.624 555.784 93.384 556.264 93.224C556.744 93.064 557.352 93.016 558.088 93.08ZM585.363 81.656C586.099 82.2 586.547 82.936 586.707 83.864C586.899 84.792 586.723 85.64 586.179 86.408C585.891 86.856 585.523 87.208 585.075 87.464C584.627 87.688 584.163 87.816 583.683 87.848C583.587 89 583.427 90.2 583.203 91.448C582.979 92.664 582.659 93.896 582.243 95.144C581.859 96.392 581.347 97.608 580.707 98.792C580.099 99.944 579.347 101.016 578.451 102.008C575.411 105.336 571.395 107 566.403 107C566.243 107 566.099 107 565.971 107C565.843 107 565.699 106.984 565.539 106.952C564.611 106.92 563.811 106.568 563.139 105.896C562.499 105.192 562.195 104.376 562.227 103.448C562.291 102.52 562.659 101.736 563.331 101.096C564.035 100.424 564.851 100.104 565.779 100.136C568.467 100.264 570.643 99.688 572.307 98.408C567.731 98.408 564.307 97.08 562.035 94.424C560.851 93.048 560.083 91.544 559.731 89.912C559.379 88.28 559.235 86.728 559.299 85.256C559.363 83.784 559.539 82.52 559.827 81.464C560.115 80.408 560.291 79.752 560.355 79.496C560.707 78.6 561.299 77.944 562.131 77.528C562.963 77.112 563.827 77.08 564.723 77.432C565.619 77.752 566.275 78.328 566.691 79.16C567.107 79.992 567.155 80.856 566.835 81.752C566.707 82.104 566.563 82.632 566.403 83.336C566.275 84.04 566.179 84.792 566.115 85.592C566.083 86.392 566.131 87.192 566.259 87.992C566.419 88.76 566.739 89.416 567.219 89.96C567.891 90.792 568.995 91.304 570.531 91.496C572.099 91.688 574.019 91.608 576.291 91.256C576.515 90.264 576.675 89.256 576.771 88.232C576.867 87.208 576.931 86.248 576.963 85.352C576.995 84.424 576.979 83.592 576.915 82.856C576.883 82.088 576.835 81.464 576.771 80.984C576.643 80.152 576.819 79.384 577.299 78.68C577.779 77.944 578.435 77.464 579.267 77.24C580.099 76.984 580.883 77.048 581.619 77.432C582.387 77.816 582.931 78.392 583.251 79.16C583.411 79.448 583.587 79.752 583.779 80.072C583.939 80.328 584.147 80.6 584.403 80.888C584.691 81.176 585.011 81.432 585.363 81.656Z" fill="#D2402D"/>
</svg>
