<svg width="595" height="114" viewBox="0 0 595 114" fill="none" xmlns="http://www.w3.org/2000/svg">
<path d="M163.328 93L158.864 79.416H132.032L127.568 93H110.24L135.152 24.264H156.368L181.28 93H163.328ZM136.208 66.648H154.64L145.424 38.568L136.208 66.648ZM209.035 43.944C220.939 43.944 228.715 53.304 228.715 68.184V69.048C228.715 84.36 220.747 94.056 208.747 94.056C202.171 94.056 197.083 90.84 194.251 85.848V93H178.939V24.264H195.403V50.952C198.235 46.68 202.795 43.944 209.035 43.944ZM211.963 69.288V68.808C211.963 60.648 209.419 55.944 203.707 55.944C198.091 55.944 195.211 60.6 195.211 68.712V69.384C195.211 77.544 198.091 82.2 203.707 82.2C209.419 82.2 211.963 77.496 211.963 69.288ZM251.939 94.056C236.867 94.056 226.595 85.08 226.595 69.432V68.568C226.595 52.92 236.867 43.944 251.939 43.944C267.011 43.944 277.283 52.92 277.283 68.568V69.432C277.283 85.08 267.011 94.056 251.939 94.056ZM251.939 81.864C258.035 81.864 260.531 76.968 260.531 69.144V68.856C260.531 61.032 258.035 56.136 251.939 56.136C245.843 56.136 243.299 61.032 243.299 68.856V69.144C243.299 76.968 245.843 81.864 251.939 81.864ZM307.114 45H323.53V93H307.738L307.69 85.512C305.146 90.648 300.346 94.056 293.242 94.056C282.442 94.056 276.73 87.096 276.73 76.92V45H293.194V74.952C293.194 78.744 294.73 81.48 299.482 81.48C304.714 81.48 307.114 77.784 307.114 73.368V45ZM351.444 93H341.796C333.06 93 327.972 89.64 327.972 80.856V57.24H321.54V45H327.972V34.344L344.244 24.264V45H351.444V57.24H344.244V77.736C344.244 79.848 344.868 80.76 347.46 80.76H351.444V93ZM366.5 24.264H384.26V66.312C384.26 75.768 387.62 80.04 396.26 80.04C404.948 80.04 408.308 75.768 408.308 66.312V24.264H425.684V66.792C425.684 84.936 415.22 94.056 396.116 94.056C376.964 94.056 366.5 84.936 366.5 66.792V24.264ZM448.873 94.056C434.377 94.056 425.545 89.448 424.825 76.2H439.033C439.417 82.2 443.113 83.688 448.825 83.688C454.153 83.688 456.457 82.2 456.457 79.32C456.457 76.968 454.825 76.104 451.129 75.336C447.001 74.424 440.761 73.848 435.337 72.264C429.625 70.536 426.025 66.792 426.025 59.832V59.736C426.025 49.56 434.281 43.944 447.433 43.944C461.689 43.944 469.897 48.84 470.617 60.648H456.409C455.929 55.896 453.001 54.264 448.009 54.264C443.641 54.264 441.433 55.512 441.433 58.104C441.433 60.264 442.969 61.176 446.665 61.896C450.841 62.76 457.369 63.576 462.553 65.064C468.265 66.744 471.865 70.392 471.865 77.544V77.64C471.865 88.44 462.841 94.056 448.873 94.056Z" fill="black"/>
<g filter="url(#filter0_f_80_2)">
<path d="M24.072 93.08C24.552 93.144 24.984 93.304 25.368 93.56C25.752 93.816 26.072 94.136 26.328 94.52C26.584 94.904 26.76 95.304 26.856 95.72C26.952 96.136 26.984 96.536 26.952 96.92C26.856 97.784 26.568 98.792 26.088 99.944C25.64 101.096 24.952 102.2 24.024 103.256C23.096 104.28 21.912 105.16 20.472 105.896C19.064 106.6 17.352 106.952 15.336 106.952H15.096C12.76 106.92 10.664 106.232 8.808 104.888C6.984 103.512 5.528 101.608 4.44 99.176C3.768 97.608 3.304 95.96 3.048 94.232C2.792 92.472 2.744 90.776 2.904 89.144C3.064 87.48 3.432 85.912 4.008 84.44C4.584 82.968 5.352 81.704 6.312 80.648C7.624 79.144 9.096 78.072 10.728 77.432C12.392 76.792 14.136 76.632 15.96 76.952C16.6 77.016 17.208 77.16 17.784 77.384C18.392 77.608 19 77.896 19.608 78.248C20.056 77.64 20.632 77.224 21.336 77C22.04 76.776 22.76 76.792 23.496 77.048C24.392 77.368 25.048 77.96 25.464 78.824C25.88 79.656 25.944 80.52 25.656 81.416C25.56 81.608 25.512 81.88 25.512 82.232C25.544 82.584 25.592 82.952 25.656 83.336C25.72 83.72 25.8 84.104 25.896 84.488C26.024 84.872 26.152 85.208 26.28 85.496C26.632 86.392 26.632 87.272 26.28 88.136C25.928 89 25.32 89.624 24.456 90.008C24.008 90.2 23.544 90.296 23.064 90.296C22.616 90.264 22.184 90.168 21.768 90.008C21.384 89.848 21.032 89.624 20.712 89.336C20.392 89.016 20.136 88.648 19.944 88.232C19.688 87.656 19.368 87.112 18.984 86.6C18.6 86.088 18.184 85.64 17.736 85.256C17.288 84.84 16.808 84.504 16.296 84.248C15.816 83.96 15.336 83.784 14.856 83.72C14.408 83.656 13.896 83.688 13.32 83.816C12.776 83.912 12.152 84.376 11.448 85.208C10.936 85.784 10.536 86.52 10.248 87.416C9.96 88.28 9.784 89.224 9.72 90.248C9.656 91.272 9.704 92.328 9.864 93.416C10.056 94.472 10.344 95.48 10.728 96.44C10.92 96.856 11.144 97.272 11.4 97.688C11.688 98.104 12.008 98.488 12.36 98.84C12.712 99.192 13.128 99.496 13.608 99.752C14.088 99.976 14.616 100.088 15.192 100.088H15.336C16.296 100.088 17.064 99.928 17.64 99.608C18.248 99.288 18.728 98.904 19.08 98.456C19.432 98.008 19.672 97.56 19.8 97.112C19.96 96.664 20.072 96.312 20.136 96.056V96.008C20.2 95.656 20.296 95.304 20.424 94.952C20.584 94.568 20.808 94.232 21.096 93.944C21.384 93.624 21.768 93.384 22.248 93.224C22.728 93.064 23.336 93.016 24.072 93.08ZM45.8963 87.128C45.7683 88.952 45.2723 90.536 44.4083 91.88C44.9203 92.424 45.4323 93.064 45.9443 93.8C46.4563 94.536 46.9203 95.384 47.3363 96.344C47.7523 97.304 48.0723 98.392 48.2963 99.608C48.5523 100.824 48.6803 102.168 48.6803 103.64C48.6803 104.568 48.3443 105.368 47.6723 106.04C47.0003 106.712 46.2003 107.048 45.2723 107.048C44.3123 107.048 43.4963 106.712 42.8243 106.04C42.1523 105.368 41.8163 104.568 41.8163 103.64C41.8163 102.584 41.7203 101.656 41.5283 100.856C41.3683 100.056 41.1443 99.352 40.8563 98.744C40.6003 98.136 40.3123 97.64 39.9922 97.256C39.6723 96.872 39.3683 96.552 39.0803 96.296C37.7043 96.872 36.2963 97.256 34.8563 97.448C35.0163 98.472 35.1763 99.384 35.3363 100.184C35.4963 100.952 35.6883 101.512 35.9123 101.864C36.3923 102.696 36.5203 103.576 36.2963 104.504C36.0723 105.4 35.5443 106.088 34.7122 106.568C34.1683 106.888 33.5763 107.048 32.9363 107.048C32.3603 107.048 31.8003 106.904 31.2563 106.616C30.7443 106.328 30.3123 105.912 29.9603 105.368C29.3843 104.344 28.9043 102.936 28.5203 101.144C28.1683 99.352 27.9123 97.448 27.7523 95.432C27.6242 93.384 27.5762 91.352 27.6082 89.336C27.6402 87.32 27.7523 85.576 27.9443 84.104C27.6882 84.168 27.4962 84.216 27.3682 84.248C26.8882 84.344 26.4242 84.36 25.9762 84.296C25.5282 84.2 25.1122 84.04 24.7282 83.816C24.3442 83.592 24.0242 83.304 23.7682 82.952C23.4802 82.568 23.2882 82.152 23.1922 81.704C23.0962 81.224 23.0962 80.76 23.1922 80.312C23.2562 79.864 23.4002 79.464 23.6242 79.112C23.8482 78.728 24.1522 78.408 24.5362 78.152C24.8882 77.864 25.2882 77.656 25.7362 77.528C26.8562 77.272 28.1683 77.096 29.6723 77C31.2083 76.872 32.7763 76.888 34.3763 77.048C35.9763 77.176 37.5283 77.48 39.0323 77.96C40.5363 78.408 41.8483 79.112 42.9683 80.072C44.0243 80.968 44.7923 82.024 45.2723 83.24C45.7843 84.456 45.9923 85.752 45.8963 87.128ZM34.9043 83.96C34.7123 84.696 34.5843 85.656 34.5203 86.84C34.4563 87.992 34.4403 89.24 34.4723 90.584C34.9523 90.488 35.4483 90.36 35.9603 90.2C36.4723 90.008 36.9523 89.752 37.4003 89.432C37.8483 89.112 38.2163 88.728 38.5043 88.28C38.7923 87.832 38.9683 87.288 39.0323 86.648C39.0643 86.072 38.8883 85.624 38.5043 85.304C38.1203 84.952 37.6083 84.68 36.9683 84.488C36.3603 84.264 35.6723 84.088 34.9043 83.96ZM65.592 90.296C66.552 90.36 67.336 90.744 67.944 91.448C68.584 92.152 68.872 92.984 68.808 93.944C68.68 96.088 68.232 97.976 67.464 99.608C66.696 101.24 65.72 102.6 64.536 103.688C63.352 104.776 62.024 105.592 60.552 106.136C59.08 106.68 57.608 106.952 56.136 106.952H55.752C54.216 106.92 52.792 106.632 51.48 106.088C50.168 105.512 49.032 104.744 48.072 103.784C47.112 102.824 46.36 101.704 45.816 100.424C45.272 99.112 45 97.704 45 96.2C45 95.112 45.16 94.152 45.48 93.32C45.832 92.488 46.312 91.768 46.92 91.16C46.568 90.552 46.344 89.912 46.248 89.24C46.152 88.568 46.12 87.896 46.152 87.224C46.216 86.552 46.328 85.88 46.488 85.208C46.648 84.536 46.824 83.912 47.016 83.336C47.336 82.248 47.736 81.336 48.216 80.6C48.696 79.864 49.192 79.256 49.704 78.776C50.248 78.296 50.792 77.928 51.336 77.672C51.88 77.416 52.392 77.224 52.872 77.096C53.992 76.84 55.112 76.84 56.232 77.096C57.384 77.32 58.488 77.704 59.544 78.248C59.768 77.608 60.152 77.112 60.696 76.76C61.24 76.376 61.88 76.184 62.616 76.184C63.544 76.184 64.344 76.52 65.016 77.192C65.688 77.864 66.024 78.664 66.024 79.592C66.024 79.976 66.056 80.424 66.12 80.936C66.184 81.416 66.248 81.896 66.312 82.376C66.408 82.856 66.488 83.304 66.552 83.72C66.648 84.104 66.728 84.408 66.792 84.632C66.984 85.368 66.92 86.088 66.6 86.792C66.312 87.496 65.832 88.024 65.16 88.376C64.52 88.792 63.816 88.936 63.048 88.808C62.28 88.68 61.624 88.344 61.08 87.8C60.504 87.224 59.88 86.68 59.208 86.168C58.568 85.624 57.928 85.16 57.288 84.776C56.68 84.392 56.12 84.104 55.608 83.912C55.096 83.72 54.696 83.656 54.408 83.72C54.088 83.784 53.784 84.312 53.496 85.304C53.24 86.136 53.08 86.776 53.016 87.224C53.304 87.256 53.608 87.272 53.928 87.272C54.28 87.24 54.616 87.224 54.936 87.224C55.288 87.192 55.64 87.176 55.992 87.176C56.344 87.176 56.728 87.176 57.144 87.176C58.072 87.176 58.856 87.496 59.496 88.136C60.136 88.776 60.472 89.56 60.504 90.488C60.536 91.416 60.232 92.216 59.592 92.888C58.952 93.56 58.184 93.912 57.288 93.944C56.744 93.976 56.152 94.056 55.512 94.184C54.872 94.312 54.264 94.488 53.688 94.712C53.144 94.904 52.68 95.128 52.296 95.384C51.944 95.64 51.768 95.912 51.768 96.2C51.768 96.904 51.896 97.512 52.152 98.024C52.408 98.504 52.728 98.904 53.112 99.224C53.528 99.544 53.992 99.784 54.504 99.944C55.016 100.104 55.512 100.184 55.992 100.184C56.632 100.184 57.288 100.088 57.96 99.896C58.664 99.672 59.304 99.304 59.88 98.792C60.456 98.248 60.936 97.544 61.32 96.68C61.736 95.816 61.976 94.76 62.04 93.512C62.104 92.552 62.472 91.768 63.144 91.16C63.848 90.52 64.664 90.232 65.592 90.296ZM86.0006 90.968C86.4486 92.408 86.8646 93.816 87.2486 95.192C87.6646 96.568 88.0166 97.8 88.3046 98.888C88.6246 99.976 88.8646 100.872 89.0246 101.576C89.2166 102.248 89.3126 102.616 89.3126 102.68C89.5686 103.608 89.4566 104.472 88.9766 105.272C88.4966 106.04 87.8086 106.536 86.9126 106.76C85.9846 107.016 85.1046 106.904 84.2726 106.424C83.4726 105.944 82.9606 105.24 82.7366 104.312C82.6726 104.056 82.6086 103.816 82.5446 103.592C82.5126 103.336 82.4646 103.08 82.4006 102.824C81.5046 102.632 80.5926 102.472 79.6646 102.344C78.7366 102.184 77.8086 102.056 76.8806 101.96C75.9846 101.864 75.1206 101.816 74.2886 101.816C73.4566 101.784 72.7046 101.8 72.0326 101.864C71.9046 102.312 71.7766 102.744 71.6486 103.16C71.5526 103.544 71.4566 103.944 71.3606 104.36C71.1686 105.096 70.7526 105.704 70.1126 106.184C69.5046 106.664 68.8326 106.904 68.0966 106.904C67.7766 106.904 67.4726 106.856 67.1846 106.76C66.2566 106.504 65.5526 105.992 65.0726 105.224C64.6246 104.424 64.5286 103.56 64.7846 102.632C64.8166 102.6 64.9126 102.248 65.0726 101.576C65.2646 100.872 65.5206 99.976 65.8406 98.888C66.1606 97.8 66.5126 96.568 66.8966 95.192C67.3126 93.784 67.7606 92.36 68.2406 90.92C69.1046 88.296 69.9046 86.104 70.6406 84.344C71.3766 82.552 72.0806 81.128 72.7526 80.072C73.4566 78.984 74.1606 78.216 74.8646 77.768C75.5686 77.288 76.3366 77.048 77.1686 77.048C78.0006 77.048 78.7686 77.288 79.4726 77.768C80.1766 78.216 80.8646 78.984 81.5366 80.072C82.2406 81.128 82.9446 82.552 83.6486 84.344C84.3846 86.136 85.1686 88.344 86.0006 90.968ZM74.0486 95C76.1926 95 78.2886 95.176 80.3366 95.528C79.7926 93.704 79.2326 92.008 78.6566 90.44C78.1126 88.84 77.6166 87.448 77.1686 86.264C76.7206 87.384 76.2246 88.696 75.6806 90.2C75.1366 91.672 74.5926 93.272 74.0486 95ZM103.46 78.44C104.388 78.44 105.172 78.76 105.812 79.4C106.484 80.04 106.82 80.824 106.82 81.752C106.82 82.68 106.5 83.464 105.859 84.104C105.22 84.744 104.436 85.08 103.508 85.112H103.124C101.844 85.112 100.676 85.064 99.6195 84.968C98.5955 84.872 97.6195 84.76 96.6915 84.632C96.6275 85.656 96.5635 86.872 96.4995 88.28C96.4355 89.656 96.4035 91.16 96.4035 92.792C96.4355 94.392 96.4995 96.088 96.5955 97.88C96.6915 99.64 96.8675 101.432 97.1235 103.256C97.2515 104.184 97.0275 105.016 96.4515 105.752C95.9075 106.456 95.1875 106.872 94.2915 107C94.1955 107 94.0995 107 94.0035 107C93.9395 107.032 93.8755 107.048 93.8115 107.048C92.9795 107.048 92.2435 106.776 91.6035 106.232C90.9955 105.688 90.6435 104.984 90.5475 104.12C90.2595 102.104 90.0515 100.12 89.9235 98.168C89.8275 96.184 89.7795 94.312 89.7795 92.552C89.7795 90.76 89.8115 89.128 89.8755 87.656C89.9395 86.152 90.0035 84.856 90.0675 83.768C88.4675 83.672 86.6275 83.832 84.5475 84.248C83.6195 84.44 82.7715 84.296 82.0035 83.816C81.2675 83.304 80.8035 82.6 80.6115 81.704C80.4195 80.776 80.5795 79.928 81.0915 79.16C81.5715 78.392 82.2595 77.928 83.1555 77.768C84.4995 77.48 85.7155 77.288 86.8035 77.192C87.9235 77.096 88.9635 77.064 89.9235 77.096C90.9155 77.128 91.8595 77.208 92.7555 77.336C93.6515 77.464 94.5475 77.592 95.4435 77.72C96.5955 77.912 97.7955 78.088 99.0435 78.248C100.324 78.408 101.796 78.472 103.46 78.44ZM110.882 92.504C110.786 94.424 110.722 96.232 110.69 97.928C110.658 99.592 110.866 101.192 111.314 102.728C111.57 103.624 111.474 104.472 111.026 105.272C110.578 106.072 109.906 106.6 109.01 106.856C108.85 106.888 108.69 106.92 108.53 106.952C108.402 106.952 108.258 106.952 108.098 106.952C107.362 106.952 106.69 106.728 106.082 106.28C105.506 105.832 105.106 105.24 104.882 104.504C104.274 102.424 103.97 100.376 103.97 98.36C104.002 96.312 104.082 94.216 104.21 92.072C104.274 90.856 104.338 89.64 104.402 88.424C104.466 87.176 104.466 85.88 104.402 84.536C104.37 83.608 104.658 82.824 105.266 82.184C105.906 81.512 106.69 81.144 107.618 81.08C108.546 81.016 109.346 81.304 110.018 81.944C110.69 82.552 111.058 83.32 111.122 84.248C111.186 85.72 111.186 87.144 111.122 88.52C111.058 89.864 110.978 91.192 110.882 92.504ZM107.906 80.024C106.978 79.992 106.194 79.64 105.554 78.968C104.914 78.296 104.61 77.496 104.642 76.568L104.738 74.12C104.77 73.224 105.122 72.456 105.794 71.816C106.498 71.176 107.314 70.872 108.242 70.904C109.138 70.968 109.89 71.336 110.498 72.008C111.138 72.68 111.442 73.48 111.41 74.408L111.314 76.808C111.282 77.736 110.946 78.52 110.306 79.16C109.666 79.768 108.914 80.072 108.05 80.072C107.954 80.072 107.906 80.056 107.906 80.024ZM130.707 77.048C131.635 77.048 132.435 77.384 133.107 78.056C133.779 78.728 134.115 79.528 134.115 80.456C134.115 81.384 134.051 82.456 133.923 83.672C133.795 84.856 133.619 86.104 133.395 87.416C133.203 88.728 132.947 90.072 132.627 91.448C132.339 92.792 132.003 94.088 131.619 95.336C130.435 99.336 129.107 102.28 127.635 104.168C126.163 106.056 124.467 107.016 122.547 107.048H122.499C121.891 107.048 121.155 106.904 120.291 106.616C119.459 106.328 118.579 105.72 117.651 104.792C116.595 103.736 115.603 102.344 114.675 100.616C113.779 98.856 112.995 96.888 112.323 94.712C111.651 92.536 111.139 90.232 110.787 87.8C110.403 85.336 110.211 82.888 110.211 80.456C110.211 79.528 110.547 78.728 111.219 78.056C111.891 77.384 112.691 77.048 113.619 77.048C114.547 77.048 115.347 77.384 116.019 78.056C116.691 78.728 117.027 79.528 117.027 80.456C117.027 82.888 117.203 85.176 117.555 87.32C117.939 89.464 118.403 91.384 118.947 93.08C119.491 94.776 120.067 96.216 120.675 97.4C121.283 98.584 121.827 99.416 122.307 99.896C122.659 99.416 123.107 98.568 123.651 97.352C124.227 96.136 124.835 94.376 125.475 92.072C125.795 90.888 126.067 89.72 126.291 88.568C126.515 87.416 126.691 86.344 126.819 85.352C126.979 84.328 127.091 83.4 127.155 82.568C127.251 81.736 127.299 81.032 127.299 80.456C127.299 79.528 127.635 78.728 128.307 78.056C128.979 77.384 129.779 77.048 130.707 77.048ZM151.983 90.296C152.943 90.36 153.727 90.744 154.335 91.448C154.975 92.152 155.263 92.984 155.199 93.944C155.071 96.088 154.623 97.976 153.855 99.608C153.087 101.24 152.111 102.6 150.927 103.688C149.743 104.776 148.415 105.592 146.943 106.136C145.471 106.68 143.999 106.952 142.527 106.952H142.143C140.607 106.92 139.183 106.632 137.871 106.088C136.559 105.512 135.423 104.744 134.463 103.784C133.503 102.824 132.751 101.704 132.207 100.424C131.663 99.112 131.391 97.704 131.391 96.2C131.391 95.112 131.551 94.152 131.871 93.32C132.223 92.488 132.703 91.768 133.311 91.16C132.959 90.552 132.735 89.912 132.639 89.24C132.543 88.568 132.511 87.896 132.543 87.224C132.607 86.552 132.719 85.88 132.879 85.208C133.039 84.536 133.215 83.912 133.407 83.336C133.727 82.248 134.127 81.336 134.607 80.6C135.087 79.864 135.583 79.256 136.095 78.776C136.639 78.296 137.183 77.928 137.727 77.672C138.271 77.416 138.783 77.224 139.263 77.096C140.383 76.84 141.503 76.84 142.623 77.096C143.775 77.32 144.879 77.704 145.935 78.248C146.159 77.608 146.543 77.112 147.087 76.76C147.631 76.376 148.271 76.184 149.007 76.184C149.935 76.184 150.735 76.52 151.407 77.192C152.079 77.864 152.415 78.664 152.415 79.592C152.415 79.976 152.447 80.424 152.511 80.936C152.575 81.416 152.639 81.896 152.703 82.376C152.799 82.856 152.879 83.304 152.943 83.72C153.039 84.104 153.119 84.408 153.183 84.632C153.375 85.368 153.311 86.088 152.991 86.792C152.703 87.496 152.223 88.024 151.551 88.376C150.911 88.792 150.207 88.936 149.439 88.808C148.671 88.68 148.015 88.344 147.471 87.8C146.895 87.224 146.271 86.68 145.599 86.168C144.959 85.624 144.319 85.16 143.679 84.776C143.071 84.392 142.511 84.104 141.999 83.912C141.487 83.72 141.087 83.656 140.799 83.72C140.479 83.784 140.175 84.312 139.887 85.304C139.631 86.136 139.471 86.776 139.407 87.224C139.695 87.256 139.999 87.272 140.319 87.272C140.671 87.24 141.007 87.224 141.327 87.224C141.679 87.192 142.031 87.176 142.383 87.176C142.735 87.176 143.119 87.176 143.535 87.176C144.463 87.176 145.247 87.496 145.887 88.136C146.527 88.776 146.863 89.56 146.895 90.488C146.927 91.416 146.623 92.216 145.983 92.888C145.343 93.56 144.575 93.912 143.679 93.944C143.135 93.976 142.543 94.056 141.903 94.184C141.263 94.312 140.655 94.488 140.079 94.712C139.535 94.904 139.071 95.128 138.687 95.384C138.335 95.64 138.159 95.912 138.159 96.2C138.159 96.904 138.287 97.512 138.543 98.024C138.799 98.504 139.119 98.904 139.503 99.224C139.919 99.544 140.383 99.784 140.895 99.944C141.407 100.104 141.903 100.184 142.383 100.184C143.023 100.184 143.679 100.088 144.351 99.896C145.055 99.672 145.695 99.304 146.271 98.792C146.847 98.248 147.327 97.544 147.711 96.68C148.127 95.816 148.367 94.76 148.431 93.512C148.495 92.552 148.863 91.768 149.535 91.16C150.239 90.52 151.055 90.232 151.983 90.296ZM186.353 93.08C186.833 93.144 187.265 93.304 187.649 93.56C188.033 93.816 188.353 94.136 188.609 94.52C188.865 94.904 189.041 95.304 189.137 95.72C189.233 96.136 189.265 96.536 189.233 96.92C189.137 97.784 188.849 98.792 188.369 99.944C187.921 101.096 187.233 102.2 186.305 103.256C185.377 104.28 184.193 105.16 182.753 105.896C181.345 106.6 179.633 106.952 177.617 106.952H177.377C175.041 106.92 172.945 106.232 171.089 104.888C169.265 103.512 167.809 101.608 166.721 99.176C166.049 97.608 165.585 95.96 165.329 94.232C165.073 92.472 165.025 90.776 165.185 89.144C165.345 87.48 165.713 85.912 166.289 84.44C166.865 82.968 167.633 81.704 168.593 80.648C169.905 79.144 171.377 78.072 173.009 77.432C174.673 76.792 176.417 76.632 178.241 76.952C178.881 77.016 179.489 77.16 180.065 77.384C180.673 77.608 181.281 77.896 181.889 78.248C182.337 77.64 182.913 77.224 183.617 77C184.321 76.776 185.041 76.792 185.777 77.048C186.673 77.368 187.329 77.96 187.745 78.824C188.161 79.656 188.225 80.52 187.937 81.416C187.841 81.608 187.793 81.88 187.793 82.232C187.825 82.584 187.873 82.952 187.937 83.336C188.001 83.72 188.081 84.104 188.177 84.488C188.305 84.872 188.433 85.208 188.561 85.496C188.913 86.392 188.913 87.272 188.561 88.136C188.209 89 187.601 89.624 186.737 90.008C186.289 90.2 185.825 90.296 185.345 90.296C184.897 90.264 184.465 90.168 184.049 90.008C183.665 89.848 183.313 89.624 182.993 89.336C182.673 89.016 182.417 88.648 182.225 88.232C181.969 87.656 181.649 87.112 181.265 86.6C180.881 86.088 180.465 85.64 180.017 85.256C179.569 84.84 179.089 84.504 178.577 84.248C178.097 83.96 177.617 83.784 177.137 83.72C176.689 83.656 176.177 83.688 175.601 83.816C175.057 83.912 174.433 84.376 173.729 85.208C173.217 85.784 172.817 86.52 172.529 87.416C172.241 88.28 172.065 89.224 172.001 90.248C171.937 91.272 171.985 92.328 172.145 93.416C172.337 94.472 172.625 95.48 173.009 96.44C173.201 96.856 173.425 97.272 173.681 97.688C173.969 98.104 174.289 98.488 174.641 98.84C174.993 99.192 175.409 99.496 175.889 99.752C176.369 99.976 176.897 100.088 177.473 100.088H177.617C178.577 100.088 179.345 99.928 179.921 99.608C180.529 99.288 181.009 98.904 181.361 98.456C181.713 98.008 181.953 97.56 182.081 97.112C182.241 96.664 182.353 96.312 182.417 96.056V96.008C182.481 95.656 182.577 95.304 182.705 94.952C182.865 94.568 183.089 94.232 183.377 93.944C183.665 93.624 184.049 93.384 184.529 93.224C185.009 93.064 185.617 93.016 186.353 93.08ZM205.703 79.64C206.599 79.352 207.463 79.432 208.295 79.88C209.127 80.296 209.671 80.952 209.927 81.848C211.623 87.128 212.423 91.544 212.327 95.096C212.231 98.648 211.271 101.464 209.447 103.544C209.095 103.96 208.647 104.376 208.103 104.792C207.591 105.208 206.983 105.576 206.279 105.896C205.607 106.216 204.823 106.488 203.927 106.712C203.031 106.904 202.023 107 200.903 107C200.359 107 199.783 106.968 199.175 106.904C198.599 106.84 197.975 106.744 197.303 106.616C194.615 106.136 192.535 104.792 191.063 102.584C189.815 100.696 189.111 98.504 188.951 96.008C188.791 93.48 188.903 90.856 189.287 88.136C188.711 88.136 188.167 88.008 187.655 87.752C187.143 87.464 186.727 87.048 186.407 86.504C185.895 85.704 185.751 84.856 185.975 83.96C186.199 83.064 186.695 82.36 187.463 81.848C187.719 81.688 188.023 81.496 188.375 81.272C188.727 81.016 189.079 80.744 189.431 80.456C189.783 80.136 190.119 79.816 190.439 79.496C190.791 79.176 191.079 78.872 191.303 78.584C191.783 77.88 192.423 77.416 193.223 77.192C194.023 76.968 194.791 77.032 195.527 77.384C195.719 77.48 195.943 77.624 196.199 77.816C196.487 78.008 196.743 78.28 196.967 78.632C197.191 78.952 197.351 79.368 197.447 79.88C197.575 80.36 197.575 80.952 197.447 81.656C197.383 81.848 197.319 82.072 197.255 82.328C197.223 82.552 197.175 82.824 197.111 83.144C196.951 83.912 196.727 85 196.439 86.408C196.151 87.784 195.927 89.256 195.767 90.824C195.607 92.36 195.575 93.864 195.671 95.336C195.767 96.808 196.103 97.976 196.679 98.84C196.935 99.16 197.191 99.416 197.447 99.608C197.735 99.768 198.103 99.88 198.551 99.944C199.031 100.04 199.543 100.12 200.087 100.184C200.663 100.216 201.207 100.216 201.719 100.184C202.263 100.12 202.759 100.008 203.207 99.848C203.687 99.688 204.071 99.432 204.359 99.08C204.583 98.824 204.807 98.392 205.031 97.784C205.287 97.176 205.431 96.296 205.463 95.144C205.527 93.992 205.415 92.504 205.127 90.68C204.871 88.856 204.327 86.6 203.495 83.912C203.207 82.984 203.271 82.104 203.687 81.272C204.135 80.44 204.807 79.896 205.703 79.64ZM230.948 94.712C230.916 95.096 230.932 95.576 230.996 96.152C231.092 96.728 231.204 97.352 231.332 98.024C231.46 98.664 231.604 99.32 231.764 99.992C231.924 100.632 232.084 101.208 232.244 101.72C232.596 102.936 232.34 104.024 231.476 104.984C231.092 105.432 230.628 105.752 230.084 105.944C229.54 106.136 228.98 106.184 228.404 106.088C227.764 105.992 226.9 105.96 225.812 105.992C224.724 106.024 223.556 106.088 222.308 106.184C221.06 106.248 219.796 106.344 218.516 106.472C217.268 106.6 216.18 106.728 215.252 106.856C215.124 106.888 214.964 106.904 214.772 106.904C214.292 106.904 213.828 106.808 213.38 106.616C212.932 106.424 212.548 106.136 212.228 105.752C211.428 104.856 211.156 103.816 211.412 102.632C211.54 102.12 211.652 101.384 211.748 100.424C211.876 99.464 211.972 98.376 212.036 97.16C212.1 95.912 212.132 94.568 212.132 93.128C212.132 91.688 212.1 90.248 212.036 88.808C211.972 87.368 211.86 85.96 211.7 84.584C211.54 83.208 211.316 81.96 211.028 80.84C210.932 80.36 210.932 79.896 211.028 79.448C211.092 79 211.236 78.584 211.46 78.2C211.684 77.816 211.972 77.496 212.324 77.24C212.708 76.952 213.124 76.76 213.572 76.664C214.5 76.44 215.364 76.584 216.164 77.096C216.996 77.576 217.524 78.28 217.748 79.208C218.132 80.712 218.42 82.36 218.612 84.152C218.804 85.912 218.916 87.704 218.948 89.528C219.012 91.32 219.012 93.08 218.948 94.808C218.916 96.536 218.852 98.104 218.756 99.512C219.652 99.448 220.596 99.384 221.588 99.32C222.58 99.224 223.556 99.16 224.516 99.128C224.356 98.296 224.212 97.464 224.084 96.632C223.988 95.768 223.972 94.968 224.036 94.232C224.1 93.304 224.484 92.52 225.188 91.88C225.924 91.24 226.772 90.952 227.732 91.016C228.66 91.08 229.444 91.48 230.084 92.216C230.724 92.92 231.012 93.752 230.948 94.712ZM245.022 78.44C245.95 78.44 246.734 78.76 247.374 79.4C248.046 80.04 248.382 80.824 248.382 81.752C248.382 82.68 248.062 83.464 247.422 84.104C246.782 84.744 245.998 85.08 245.07 85.112H244.686C243.406 85.112 242.238 85.064 241.182 84.968C240.158 84.872 239.182 84.76 238.254 84.632C238.19 85.656 238.126 86.872 238.062 88.28C237.998 89.656 237.966 91.16 237.966 92.792C237.998 94.392 238.062 96.088 238.158 97.88C238.254 99.64 238.43 101.432 238.686 103.256C238.814 104.184 238.59 105.016 238.014 105.752C237.47 106.456 236.75 106.872 235.854 107C235.758 107 235.662 107 235.566 107C235.502 107.032 235.438 107.048 235.374 107.048C234.542 107.048 233.806 106.776 233.166 106.232C232.558 105.688 232.206 104.984 232.11 104.12C231.822 102.104 231.614 100.12 231.486 98.168C231.39 96.184 231.342 94.312 231.342 92.552C231.342 90.76 231.374 89.128 231.438 87.656C231.502 86.152 231.566 84.856 231.63 83.768C230.03 83.672 228.19 83.832 226.11 84.248C225.182 84.44 224.334 84.296 223.566 83.816C222.83 83.304 222.366 82.6 222.174 81.704C221.982 80.776 222.142 79.928 222.654 79.16C223.134 78.392 223.822 77.928 224.718 77.768C226.062 77.48 227.278 77.288 228.366 77.192C229.486 77.096 230.526 77.064 231.486 77.096C232.478 77.128 233.422 77.208 234.318 77.336C235.214 77.464 236.11 77.592 237.006 77.72C238.158 77.912 239.358 78.088 240.606 78.248C241.886 78.408 243.358 78.472 245.022 78.44ZM261.578 79.64C262.474 79.352 263.338 79.432 264.17 79.88C265.002 80.296 265.546 80.952 265.802 81.848C267.498 87.128 268.298 91.544 268.202 95.096C268.106 98.648 267.146 101.464 265.322 103.544C264.97 103.96 264.522 104.376 263.978 104.792C263.466 105.208 262.858 105.576 262.154 105.896C261.482 106.216 260.698 106.488 259.802 106.712C258.906 106.904 257.898 107 256.778 107C256.234 107 255.658 106.968 255.05 106.904C254.474 106.84 253.85 106.744 253.178 106.616C250.49 106.136 248.41 104.792 246.938 102.584C245.69 100.696 244.986 98.504 244.826 96.008C244.666 93.48 244.778 90.856 245.162 88.136C244.586 88.136 244.042 88.008 243.53 87.752C243.018 87.464 242.602 87.048 242.282 86.504C241.77 85.704 241.626 84.856 241.85 83.96C242.074 83.064 242.57 82.36 243.338 81.848C243.594 81.688 243.898 81.496 244.25 81.272C244.602 81.016 244.954 80.744 245.306 80.456C245.658 80.136 245.994 79.816 246.314 79.496C246.666 79.176 246.954 78.872 247.178 78.584C247.658 77.88 248.298 77.416 249.098 77.192C249.898 76.968 250.666 77.032 251.402 77.384C251.594 77.48 251.818 77.624 252.074 77.816C252.362 78.008 252.618 78.28 252.842 78.632C253.066 78.952 253.226 79.368 253.322 79.88C253.45 80.36 253.45 80.952 253.322 81.656C253.258 81.848 253.194 82.072 253.13 82.328C253.098 82.552 253.05 82.824 252.986 83.144C252.826 83.912 252.602 85 252.314 86.408C252.026 87.784 251.802 89.256 251.642 90.824C251.482 92.36 251.45 93.864 251.546 95.336C251.642 96.808 251.978 97.976 252.554 98.84C252.81 99.16 253.066 99.416 253.322 99.608C253.61 99.768 253.978 99.88 254.426 99.944C254.906 100.04 255.418 100.12 255.962 100.184C256.538 100.216 257.082 100.216 257.594 100.184C258.138 100.12 258.634 100.008 259.082 99.848C259.562 99.688 259.946 99.432 260.234 99.08C260.458 98.824 260.682 98.392 260.906 97.784C261.162 97.176 261.306 96.296 261.338 95.144C261.402 93.992 261.29 92.504 261.002 90.68C260.746 88.856 260.202 86.6 259.37 83.912C259.082 82.984 259.146 82.104 259.562 81.272C260.01 80.44 260.682 79.896 261.578 79.64ZM286.131 87.128C286.003 88.952 285.507 90.536 284.643 91.88C285.155 92.424 285.667 93.064 286.179 93.8C286.691 94.536 287.155 95.384 287.571 96.344C287.987 97.304 288.307 98.392 288.531 99.608C288.787 100.824 288.915 102.168 288.915 103.64C288.915 104.568 288.579 105.368 287.907 106.04C287.235 106.712 286.435 107.048 285.507 107.048C284.547 107.048 283.731 106.712 283.059 106.04C282.387 105.368 282.051 104.568 282.051 103.64C282.051 102.584 281.955 101.656 281.763 100.856C281.603 100.056 281.379 99.352 281.091 98.744C280.835 98.136 280.547 97.64 280.227 97.256C279.907 96.872 279.603 96.552 279.315 96.296C277.939 96.872 276.531 97.256 275.091 97.448C275.251 98.472 275.411 99.384 275.571 100.184C275.731 100.952 275.923 101.512 276.147 101.864C276.627 102.696 276.755 103.576 276.531 104.504C276.307 105.4 275.779 106.088 274.947 106.568C274.403 106.888 273.811 107.048 273.171 107.048C272.595 107.048 272.035 106.904 271.491 106.616C270.979 106.328 270.547 105.912 270.195 105.368C269.619 104.344 269.139 102.936 268.755 101.144C268.403 99.352 268.147 97.448 267.987 95.432C267.859 93.384 267.811 91.352 267.843 89.336C267.875 87.32 267.987 85.576 268.179 84.104C267.923 84.168 267.731 84.216 267.603 84.248C267.123 84.344 266.659 84.36 266.211 84.296C265.763 84.2 265.347 84.04 264.963 83.816C264.579 83.592 264.259 83.304 264.003 82.952C263.715 82.568 263.523 82.152 263.427 81.704C263.331 81.224 263.331 80.76 263.427 80.312C263.491 79.864 263.635 79.464 263.859 79.112C264.083 78.728 264.387 78.408 264.771 78.152C265.123 77.864 265.523 77.656 265.971 77.528C267.091 77.272 268.403 77.096 269.907 77C271.443 76.872 273.011 76.888 274.611 77.048C276.211 77.176 277.763 77.48 279.267 77.96C280.771 78.408 282.083 79.112 283.203 80.072C284.259 80.968 285.027 82.024 285.507 83.24C286.019 84.456 286.227 85.752 286.131 87.128ZM275.139 83.96C274.947 84.696 274.819 85.656 274.755 86.84C274.691 87.992 274.675 89.24 274.707 90.584C275.187 90.488 275.683 90.36 276.195 90.2C276.707 90.008 277.187 89.752 277.635 89.432C278.083 89.112 278.451 88.728 278.739 88.28C279.027 87.832 279.203 87.288 279.267 86.648C279.299 86.072 279.123 85.624 278.739 85.304C278.355 84.952 277.843 84.68 277.203 84.488C276.595 84.264 275.907 84.088 275.139 83.96ZM306.813 90.488C307.773 90.552 308.573 90.936 309.213 91.64C309.853 92.312 310.141 93.128 310.077 94.088C309.949 96.104 309.549 97.88 308.877 99.416C308.205 100.92 307.357 102.232 306.333 103.352V103.4V103.592H306.285H306.237C306.237 103.688 306.253 103.752 306.285 103.784C306.381 103.944 306.365 104.088 306.237 104.216C306.141 104.312 306.077 104.36 306.045 104.36C305.821 104.392 305.709 104.712 305.709 105.32V105.8V105.896V105.992V107.864V108.104C305.741 108.264 305.757 108.408 305.757 108.536C305.789 108.664 305.773 108.792 305.709 108.92C305.549 109.176 305.341 109.304 305.085 109.304H304.845C304.685 109.24 304.573 109.128 304.509 108.968C304.477 108.84 304.461 108.712 304.461 108.584V108.44C304.461 108.408 304.477 108.376 304.509 108.344V108.296V108.248C304.477 108.248 304.445 108.232 304.413 108.2V108.056C304.349 107.928 304.301 107.752 304.269 107.528C304.269 107.336 304.285 107.112 304.317 106.856V106.616C304.125 106.68 304.029 106.968 304.029 107.48V108.056V108.104V108.248V110.12V110.312C304.061 110.44 304.077 110.584 304.077 110.744C304.109 110.904 304.093 111.048 304.029 111.176C303.869 111.432 303.661 111.56 303.405 111.56C303.309 111.56 303.229 111.544 303.165 111.512C303.005 111.48 302.893 111.384 302.829 111.224C302.797 111.096 302.781 110.952 302.781 110.792V110.744V110.696V110.552V110.504V110.456C302.781 110.424 302.765 110.392 302.733 110.36V110.264C302.669 110.168 302.621 110.008 302.589 109.784C302.589 109.56 302.605 109.32 302.637 109.064V108.824V108.152V107.672V107.48C302.669 107.288 302.653 107.128 302.589 107C302.493 107.096 302.429 107.144 302.397 107.144H302.445C302.445 107.24 302.429 107.288 302.397 107.288C302.333 107.352 302.285 107.384 302.253 107.384C302.221 107.384 302.189 107.368 302.157 107.336C302.061 107.24 302.029 107.176 302.061 107.144L302.109 107.096C302.109 107.096 302.141 107.08 302.205 107.048C302.205 107.048 302.189 107.032 302.157 107L302.205 106.904C302.205 106.84 302.237 106.808 302.301 106.808C302.301 106.712 302.237 106.632 302.109 106.568H302.013C301.949 106.536 301.917 106.52 301.917 106.52C301.917 106.488 301.901 106.456 301.869 106.424V106.376C301.133 106.728 300.381 106.968 299.613 107.096C298.845 107.224 298.061 107.288 297.261 107.288H296.877C295.277 107.256 293.805 106.968 292.461 106.424C291.149 105.848 290.013 105.08 289.053 104.12C288.093 103.16 287.341 102.024 286.797 100.712C286.253 99.4 285.981 97.976 285.981 96.44C285.981 95.352 286.157 94.376 286.509 93.512C286.861 92.648 287.341 91.896 287.949 91.256C287.277 90.072 287.021 88.776 287.181 87.368C287.341 85.928 287.629 84.584 288.045 83.336C288.365 82.248 288.765 81.336 289.245 80.6C289.725 79.864 290.221 79.256 290.733 78.776C291.277 78.296 291.821 77.928 292.365 77.672C292.941 77.416 293.469 77.224 293.949 77.096C295.069 76.84 296.205 76.84 297.357 77.096C298.509 77.32 299.597 77.704 300.621 78.248C300.909 77.608 301.325 77.096 301.869 76.712C302.445 76.328 303.085 76.136 303.789 76.136C304.749 76.136 305.565 76.472 306.237 77.144C306.909 77.816 307.245 78.632 307.245 79.592C307.245 80.008 307.277 80.472 307.341 80.984C307.405 81.464 307.485 81.944 307.581 82.424C307.677 82.904 307.757 83.352 307.821 83.768C307.917 84.152 307.981 84.456 308.013 84.68C308.237 85.416 308.189 86.152 307.869 86.888C307.581 87.592 307.085 88.152 306.381 88.568C305.677 88.92 304.941 89.048 304.173 88.952C303.437 88.824 302.781 88.472 302.205 87.896C301.629 87.32 301.005 86.776 300.333 86.264C299.693 85.72 299.053 85.256 298.413 84.872C297.805 84.488 297.245 84.2 296.733 84.008C296.221 83.816 295.821 83.752 295.533 83.816C295.213 83.816 294.877 84.344 294.525 85.4C294.397 85.848 294.301 86.232 294.237 86.552C294.205 86.872 294.157 87.144 294.093 87.368H296.013C296.365 87.336 296.717 87.32 297.069 87.32C297.453 87.32 297.853 87.32 298.269 87.32C299.197 87.32 299.997 87.64 300.669 88.28C301.341 88.888 301.693 89.656 301.725 90.584C301.725 91.544 301.405 92.36 300.765 93.032C300.125 93.704 299.341 94.072 298.413 94.136C297.837 94.168 297.213 94.248 296.541 94.376C295.901 94.504 295.293 94.68 294.717 94.904C294.173 95.096 293.709 95.32 293.325 95.576C292.973 95.832 292.797 96.12 292.797 96.44C292.797 97.176 292.925 97.8 293.181 98.312C293.437 98.792 293.773 99.192 294.189 99.512C294.605 99.8 295.069 100.024 295.581 100.184C296.093 100.344 296.605 100.424 297.117 100.424C297.757 100.456 298.413 100.36 299.085 100.136C299.789 99.912 300.429 99.544 301.005 99.032C301.613 98.488 302.109 97.784 302.493 96.92C302.909 96.024 303.165 94.936 303.261 93.656C303.325 92.728 303.693 91.96 304.365 91.352C305.069 90.712 305.885 90.424 306.813 90.488ZM306.813 103.784C306.877 103.72 306.989 103.72 307.149 103.784C307.181 103.88 307.181 103.944 307.149 103.976C307.085 104.04 307.021 104.072 306.957 104.072C306.925 104.072 306.909 104.056 306.909 104.024L306.861 103.976C306.797 103.976 306.765 103.944 306.765 103.88V103.832C306.765 103.832 306.781 103.816 306.813 103.784ZM339.696 79.208C343.408 81.576 345.696 85.656 346.56 91.448C346.944 94.04 346.704 96.408 345.84 98.552C344.976 100.696 343.52 102.488 341.472 103.928C340.032 104.952 338.4 105.72 336.576 106.232C334.784 106.712 332.96 106.952 331.104 106.952C329.664 106.952 328.24 106.808 326.832 106.52C325.456 106.2 324.192 105.72 323.04 105.08C322.208 104.632 321.664 103.96 321.408 103.064C321.152 102.136 321.264 101.256 321.744 100.424C322.16 99.624 322.768 99.096 323.568 98.84C324.368 98.552 325.184 98.584 326.016 98.936C325.728 97.848 325.472 96.712 325.248 95.528C325.056 94.344 324.88 93.16 324.72 91.976C324.592 90.76 324.496 89.592 324.432 88.472C324.368 87.32 324.352 86.264 324.384 85.304C324.256 85.304 324.144 85.32 324.048 85.352C323.12 85.512 322.256 85.352 321.456 84.872C320.656 84.36 320.16 83.64 319.968 82.712C319.776 81.784 319.936 80.92 320.448 80.12C320.992 79.32 321.728 78.824 322.656 78.632C322.72 78.6 322.832 78.568 322.992 78.536C323.184 78.472 323.376 78.424 323.568 78.392C324.336 78.168 325.328 77.912 326.544 77.624C327.792 77.336 329.136 77.16 330.576 77.096C332.048 77 333.568 77.096 335.136 77.384C336.704 77.64 338.224 78.248 339.696 79.208ZM337.536 98.312C339.424 97.032 340.176 95.096 339.792 92.504C339.216 88.76 337.952 86.232 336 84.92C335.328 84.472 334.592 84.184 333.792 84.056C333.024 83.928 332.224 83.864 331.392 83.864C331.232 84.824 331.184 86.072 331.248 87.608C331.344 89.144 331.504 90.712 331.728 92.312C331.952 93.912 332.224 95.416 332.544 96.824C332.896 98.2 333.248 99.208 333.6 99.848C334.336 99.688 335.04 99.496 335.712 99.272C336.384 99.016 336.992 98.696 337.536 98.312ZM364.646 87.128C364.518 88.952 364.022 90.536 363.158 91.88C363.67 92.424 364.182 93.064 364.694 93.8C365.206 94.536 365.67 95.384 366.086 96.344C366.502 97.304 366.822 98.392 367.046 99.608C367.302 100.824 367.43 102.168 367.43 103.64C367.43 104.568 367.094 105.368 366.422 106.04C365.75 106.712 364.95 107.048 364.022 107.048C363.062 107.048 362.246 106.712 361.574 106.04C360.902 105.368 360.566 104.568 360.566 103.64C360.566 102.584 360.47 101.656 360.278 100.856C360.118 100.056 359.894 99.352 359.606 98.744C359.35 98.136 359.062 97.64 358.742 97.256C358.422 96.872 358.118 96.552 357.83 96.296C356.454 96.872 355.046 97.256 353.606 97.448C353.766 98.472 353.926 99.384 354.086 100.184C354.246 100.952 354.438 101.512 354.662 101.864C355.142 102.696 355.27 103.576 355.046 104.504C354.822 105.4 354.294 106.088 353.462 106.568C352.918 106.888 352.326 107.048 351.686 107.048C351.11 107.048 350.55 106.904 350.006 106.616C349.494 106.328 349.062 105.912 348.71 105.368C348.134 104.344 347.654 102.936 347.27 101.144C346.918 99.352 346.662 97.448 346.502 95.432C346.374 93.384 346.326 91.352 346.358 89.336C346.39 87.32 346.502 85.576 346.694 84.104C346.438 84.168 346.246 84.216 346.118 84.248C345.638 84.344 345.174 84.36 344.726 84.296C344.278 84.2 343.862 84.04 343.478 83.816C343.094 83.592 342.774 83.304 342.518 82.952C342.23 82.568 342.038 82.152 341.942 81.704C341.846 81.224 341.846 80.76 341.942 80.312C342.006 79.864 342.15 79.464 342.374 79.112C342.598 78.728 342.902 78.408 343.286 78.152C343.638 77.864 344.038 77.656 344.486 77.528C345.606 77.272 346.918 77.096 348.422 77C349.958 76.872 351.526 76.888 353.126 77.048C354.726 77.176 356.278 77.48 357.782 77.96C359.286 78.408 360.598 79.112 361.718 80.072C362.774 80.968 363.542 82.024 364.022 83.24C364.534 84.456 364.742 85.752 364.646 87.128ZM353.654 83.96C353.462 84.696 353.334 85.656 353.27 86.84C353.206 87.992 353.19 89.24 353.222 90.584C353.702 90.488 354.198 90.36 354.71 90.2C355.222 90.008 355.702 89.752 356.15 89.432C356.598 89.112 356.966 88.728 357.254 88.28C357.542 87.832 357.718 87.288 357.782 86.648C357.814 86.072 357.638 85.624 357.254 85.304C356.87 84.952 356.358 84.68 355.718 84.488C355.11 84.264 354.422 84.088 353.654 83.96ZM372.773 92.504C372.677 94.424 372.613 96.232 372.581 97.928C372.549 99.592 372.757 101.192 373.205 102.728C373.461 103.624 373.365 104.472 372.917 105.272C372.469 106.072 371.797 106.6 370.901 106.856C370.741 106.888 370.581 106.92 370.421 106.952C370.293 106.952 370.149 106.952 369.989 106.952C369.253 106.952 368.581 106.728 367.973 106.28C367.397 105.832 366.997 105.24 366.773 104.504C366.165 102.424 365.861 100.376 365.861 98.36C365.893 96.312 365.973 94.216 366.101 92.072C366.165 90.856 366.229 89.64 366.293 88.424C366.357 87.176 366.357 85.88 366.293 84.536C366.261 83.608 366.549 82.824 367.157 82.184C367.797 81.512 368.581 81.144 369.509 81.08C370.437 81.016 371.237 81.304 371.909 81.944C372.581 82.552 372.949 83.32 373.013 84.248C373.077 85.72 373.077 87.144 373.013 88.52C372.949 89.864 372.869 91.192 372.773 92.504ZM369.797 80.024C368.869 79.992 368.085 79.64 367.445 78.968C366.805 78.296 366.501 77.496 366.533 76.568L366.629 74.12C366.661 73.224 367.013 72.456 367.685 71.816C368.389 71.176 369.205 70.872 370.133 70.904C371.029 70.968 371.781 71.336 372.389 72.008C373.029 72.68 373.333 73.48 373.301 74.408L373.205 76.808C373.173 77.736 372.837 78.52 372.197 79.16C371.557 79.768 370.805 80.072 369.941 80.072C369.845 80.072 369.797 80.056 369.797 80.024ZM392.597 77.048C393.525 77.048 394.325 77.384 394.997 78.056C395.669 78.728 396.005 79.528 396.005 80.456C396.005 81.384 395.941 82.456 395.813 83.672C395.685 84.856 395.509 86.104 395.285 87.416C395.093 88.728 394.837 90.072 394.517 91.448C394.229 92.792 393.893 94.088 393.509 95.336C392.325 99.336 390.997 102.28 389.525 104.168C388.053 106.056 386.357 107.016 384.437 107.048H384.389C383.781 107.048 383.045 106.904 382.181 106.616C381.349 106.328 380.469 105.72 379.541 104.792C378.485 103.736 377.493 102.344 376.565 100.616C375.669 98.856 374.885 96.888 374.213 94.712C373.541 92.536 373.029 90.232 372.677 87.8C372.293 85.336 372.101 82.888 372.101 80.456C372.101 79.528 372.437 78.728 373.109 78.056C373.781 77.384 374.581 77.048 375.509 77.048C376.437 77.048 377.237 77.384 377.909 78.056C378.581 78.728 378.917 79.528 378.917 80.456C378.917 82.888 379.093 85.176 379.445 87.32C379.829 89.464 380.293 91.384 380.837 93.08C381.381 94.776 381.957 96.216 382.565 97.4C383.173 98.584 383.717 99.416 384.197 99.896C384.549 99.416 384.997 98.568 385.541 97.352C386.117 96.136 386.725 94.376 387.365 92.072C387.685 90.888 387.957 89.72 388.181 88.568C388.405 87.416 388.581 86.344 388.709 85.352C388.869 84.328 388.981 83.4 389.045 82.568C389.141 81.736 389.189 81.032 389.189 80.456C389.189 79.528 389.525 78.728 390.197 78.056C390.869 77.384 391.669 77.048 392.597 77.048ZM413.873 90.296C414.833 90.36 415.617 90.744 416.225 91.448C416.865 92.152 417.153 92.984 417.089 93.944C416.961 96.088 416.513 97.976 415.745 99.608C414.977 101.24 414.001 102.6 412.817 103.688C411.633 104.776 410.305 105.592 408.833 106.136C407.361 106.68 405.889 106.952 404.417 106.952H404.033C402.497 106.92 401.073 106.632 399.761 106.088C398.449 105.512 397.313 104.744 396.353 103.784C395.393 102.824 394.641 101.704 394.097 100.424C393.553 99.112 393.281 97.704 393.281 96.2C393.281 95.112 393.441 94.152 393.761 93.32C394.113 92.488 394.593 91.768 395.201 91.16C394.849 90.552 394.625 89.912 394.529 89.24C394.433 88.568 394.401 87.896 394.433 87.224C394.497 86.552 394.609 85.88 394.769 85.208C394.929 84.536 395.105 83.912 395.297 83.336C395.617 82.248 396.017 81.336 396.497 80.6C396.977 79.864 397.473 79.256 397.985 78.776C398.529 78.296 399.073 77.928 399.617 77.672C400.161 77.416 400.673 77.224 401.153 77.096C402.273 76.84 403.393 76.84 404.513 77.096C405.665 77.32 406.769 77.704 407.825 78.248C408.049 77.608 408.433 77.112 408.977 76.76C409.521 76.376 410.161 76.184 410.897 76.184C411.825 76.184 412.625 76.52 413.297 77.192C413.969 77.864 414.305 78.664 414.305 79.592C414.305 79.976 414.337 80.424 414.401 80.936C414.465 81.416 414.529 81.896 414.593 82.376C414.689 82.856 414.769 83.304 414.833 83.72C414.929 84.104 415.009 84.408 415.073 84.632C415.265 85.368 415.201 86.088 414.881 86.792C414.593 87.496 414.113 88.024 413.441 88.376C412.801 88.792 412.097 88.936 411.329 88.808C410.561 88.68 409.905 88.344 409.361 87.8C408.785 87.224 408.161 86.68 407.489 86.168C406.849 85.624 406.209 85.16 405.569 84.776C404.961 84.392 404.401 84.104 403.889 83.912C403.377 83.72 402.977 83.656 402.689 83.72C402.369 83.784 402.065 84.312 401.777 85.304C401.521 86.136 401.361 86.776 401.297 87.224C401.585 87.256 401.889 87.272 402.209 87.272C402.561 87.24 402.897 87.224 403.217 87.224C403.569 87.192 403.921 87.176 404.273 87.176C404.625 87.176 405.009 87.176 405.425 87.176C406.353 87.176 407.137 87.496 407.777 88.136C408.417 88.776 408.753 89.56 408.785 90.488C408.817 91.416 408.513 92.216 407.873 92.888C407.233 93.56 406.465 93.912 405.569 93.944C405.025 93.976 404.433 94.056 403.793 94.184C403.153 94.312 402.545 94.488 401.969 94.712C401.425 94.904 400.961 95.128 400.577 95.384C400.225 95.64 400.049 95.912 400.049 96.2C400.049 96.904 400.177 97.512 400.433 98.024C400.689 98.504 401.009 98.904 401.393 99.224C401.809 99.544 402.273 99.784 402.785 99.944C403.297 100.104 403.793 100.184 404.273 100.184C404.913 100.184 405.569 100.088 406.241 99.896C406.945 99.672 407.585 99.304 408.161 98.792C408.737 98.248 409.217 97.544 409.601 96.68C410.017 95.816 410.257 94.76 410.321 93.512C410.385 92.552 410.753 91.768 411.425 91.16C412.129 90.52 412.945 90.232 413.873 90.296ZM432.684 77.912C433.58 77.56 434.444 77.592 435.276 78.008C436.108 78.424 436.684 79.064 437.004 79.928C437.644 81.688 438.14 83.496 438.492 85.352C438.844 87.176 439.084 88.968 439.212 90.728C439.372 92.456 439.436 94.104 439.404 95.672C439.404 97.24 439.372 98.616 439.308 99.8C439.244 100.984 439.164 101.944 439.068 102.68C438.972 103.416 438.924 103.832 438.924 103.928C438.828 104.664 438.524 105.288 438.012 105.8C437.5 106.312 436.876 106.632 436.14 106.76C435.404 106.888 434.716 106.792 434.076 106.472C433.436 106.12 432.94 105.624 432.588 104.984C431.756 103.384 430.876 101.752 429.948 100.088C429.02 98.392 428.092 96.76 427.164 95.192C426.236 93.624 425.34 92.152 424.476 90.776C423.612 89.368 422.812 88.136 422.076 87.08C422.012 88.36 421.996 89.752 422.028 91.256C422.06 92.76 422.108 94.248 422.172 95.72C422.268 97.192 422.38 98.6 422.508 99.944C422.636 101.256 422.78 102.376 422.94 103.304C423.1 104.232 422.908 105.08 422.364 105.848C421.82 106.584 421.084 107.032 420.156 107.192C420.06 107.192 419.964 107.192 419.868 107.192C419.772 107.224 419.692 107.24 419.628 107.24C418.796 107.24 418.06 106.984 417.42 106.472C416.812 105.928 416.444 105.24 416.316 104.408C416.252 103.96 416.156 103.192 416.028 102.104C415.9 101.016 415.772 99.736 415.644 98.264C415.548 96.792 415.468 95.208 415.404 93.512C415.308 91.784 415.276 90.088 415.308 88.424C415.34 86.76 415.452 85.192 415.644 83.72C415.836 82.216 416.124 80.936 416.508 79.88C416.796 79.08 417.244 78.44 417.852 77.96C418.492 77.48 419.228 77.208 420.06 77.144C420.732 77.112 421.42 77.256 422.124 77.576C422.828 77.864 423.628 78.472 424.524 79.4C425.452 80.328 426.524 81.656 427.74 83.384C428.956 85.112 430.396 87.368 432.06 90.152C432.124 90.312 432.188 90.456 432.252 90.584C432.348 90.68 432.428 90.792 432.492 90.92C432.364 89.48 432.156 88.024 431.868 86.552C431.58 85.048 431.18 83.608 430.668 82.232C430.348 81.368 430.38 80.52 430.764 79.688C431.18 78.824 431.82 78.232 432.684 77.912ZM471.219 90.968C471.667 92.408 472.083 93.816 472.467 95.192C472.883 96.568 473.235 97.8 473.523 98.888C473.843 99.976 474.083 100.872 474.243 101.576C474.435 102.248 474.531 102.616 474.531 102.68C474.787 103.608 474.675 104.472 474.195 105.272C473.715 106.04 473.027 106.536 472.131 106.76C471.203 107.016 470.323 106.904 469.491 106.424C468.691 105.944 468.179 105.24 467.955 104.312C467.891 104.056 467.827 103.816 467.763 103.592C467.731 103.336 467.683 103.08 467.619 102.824C466.723 102.632 465.811 102.472 464.883 102.344C463.955 102.184 463.027 102.056 462.099 101.96C461.203 101.864 460.339 101.816 459.507 101.816C458.675 101.784 457.923 101.8 457.251 101.864C457.123 102.312 456.995 102.744 456.867 103.16C456.771 103.544 456.675 103.944 456.579 104.36C456.387 105.096 455.971 105.704 455.331 106.184C454.723 106.664 454.051 106.904 453.315 106.904C452.995 106.904 452.691 106.856 452.403 106.76C451.475 106.504 450.771 105.992 450.291 105.224C449.843 104.424 449.747 103.56 450.003 102.632C450.035 102.6 450.131 102.248 450.291 101.576C450.483 100.872 450.739 99.976 451.059 98.888C451.379 97.8 451.731 96.568 452.115 95.192C452.531 93.784 452.979 92.36 453.459 90.92C454.323 88.296 455.123 86.104 455.859 84.344C456.595 82.552 457.299 81.128 457.971 80.072C458.675 78.984 459.379 78.216 460.083 77.768C460.787 77.288 461.555 77.048 462.387 77.048C463.219 77.048 463.987 77.288 464.691 77.768C465.395 78.216 466.083 78.984 466.755 80.072C467.459 81.128 468.163 82.552 468.867 84.344C469.603 86.136 470.387 88.344 471.219 90.968ZM459.267 95C461.411 95 463.507 95.176 465.555 95.528C465.011 93.704 464.451 92.008 463.875 90.44C463.331 88.84 462.835 87.448 462.387 86.264C461.939 87.384 461.443 88.696 460.899 90.2C460.355 91.672 459.811 93.272 459.267 95ZM492.103 91.304C492.999 91.304 493.767 91.608 494.407 92.216C495.079 92.824 495.447 93.576 495.511 94.472C495.511 94.632 495.511 95.032 495.511 95.672C495.511 96.28 495.415 97.032 495.223 97.928C495.031 98.792 494.711 99.736 494.263 100.76C493.847 101.752 493.207 102.696 492.343 103.592C491.991 103.976 491.543 104.376 490.999 104.792C490.487 105.176 489.879 105.528 489.175 105.848C488.471 106.168 487.655 106.44 486.727 106.664C485.831 106.856 484.823 106.952 483.703 106.952C481.399 106.952 479.335 106.296 477.511 104.984C475.719 103.672 474.279 101.816 473.191 99.416C472.487 97.848 471.991 96.2 471.703 94.472C471.447 92.712 471.399 91 471.559 89.336C471.719 87.672 472.071 86.104 472.615 84.632C473.191 83.128 473.959 81.848 474.919 80.792C476.263 79.288 477.751 78.216 479.383 77.576C481.047 76.936 482.759 76.76 484.519 77.048C485.831 77.24 487.063 77.672 488.215 78.344C488.663 77.8 489.223 77.416 489.895 77.192C490.599 76.968 491.319 76.984 492.055 77.24C492.951 77.56 493.591 78.136 493.975 78.968C494.391 79.8 494.455 80.664 494.167 81.56C494.071 81.816 494.023 82.136 494.023 82.52C494.023 82.872 494.039 83.24 494.071 83.624C494.135 84.008 494.199 84.376 494.263 84.728C494.359 85.048 494.439 85.304 494.503 85.496C494.823 86.36 494.791 87.208 494.407 88.04C494.023 88.872 493.415 89.464 492.583 89.816C491.751 90.168 490.903 90.168 490.039 89.816C489.175 89.464 488.551 88.856 488.167 87.992C487.687 86.872 487.015 85.928 486.151 85.16C485.287 84.392 484.407 83.944 483.511 83.816C483.255 83.752 482.823 83.768 482.215 83.864C481.607 83.928 480.887 84.424 480.055 85.352C479.543 85.928 479.143 86.664 478.855 87.56C478.567 88.456 478.391 89.416 478.327 90.44C478.295 91.464 478.359 92.52 478.519 93.608C478.711 94.696 479.015 95.704 479.431 96.632C479.623 97.048 479.847 97.464 480.103 97.88C480.359 98.296 480.663 98.68 481.015 99.032C481.367 99.352 481.767 99.624 482.215 99.848C482.663 100.04 483.159 100.136 483.703 100.136C485.399 100.136 486.631 99.72 487.399 98.888C487.495 98.792 487.591 98.68 487.687 98.552C487.783 98.424 487.863 98.296 487.927 98.168H485.671C484.711 98.168 483.895 97.848 483.223 97.208C482.583 96.536 482.247 95.736 482.215 94.808C482.215 93.848 482.535 93.032 483.175 92.36C483.847 91.688 484.663 91.352 485.623 91.352L492.055 91.304H492.103ZM514.514 90.296C515.474 90.36 516.258 90.744 516.866 91.448C517.506 92.152 517.794 92.984 517.73 93.944C517.602 96.088 517.154 97.976 516.386 99.608C515.618 101.24 514.642 102.6 513.458 103.688C512.274 104.776 510.946 105.592 509.474 106.136C508.002 106.68 506.53 106.952 505.058 106.952H504.674C503.138 106.92 501.714 106.632 500.402 106.088C499.09 105.512 497.954 104.744 496.994 103.784C496.034 102.824 495.282 101.704 494.738 100.424C494.194 99.112 493.922 97.704 493.922 96.2C493.922 95.112 494.082 94.152 494.402 93.32C494.754 92.488 495.234 91.768 495.842 91.16C495.49 90.552 495.266 89.912 495.17 89.24C495.074 88.568 495.042 87.896 495.074 87.224C495.138 86.552 495.25 85.88 495.41 85.208C495.57 84.536 495.746 83.912 495.938 83.336C496.258 82.248 496.658 81.336 497.138 80.6C497.618 79.864 498.114 79.256 498.626 78.776C499.17 78.296 499.714 77.928 500.258 77.672C500.802 77.416 501.314 77.224 501.794 77.096C502.914 76.84 504.034 76.84 505.154 77.096C506.306 77.32 507.41 77.704 508.466 78.248C508.69 77.608 509.074 77.112 509.618 76.76C510.162 76.376 510.802 76.184 511.538 76.184C512.466 76.184 513.266 76.52 513.938 77.192C514.61 77.864 514.946 78.664 514.946 79.592C514.946 79.976 514.978 80.424 515.042 80.936C515.106 81.416 515.17 81.896 515.234 82.376C515.33 82.856 515.41 83.304 515.474 83.72C515.57 84.104 515.65 84.408 515.714 84.632C515.906 85.368 515.842 86.088 515.522 86.792C515.234 87.496 514.754 88.024 514.082 88.376C513.442 88.792 512.738 88.936 511.97 88.808C511.202 88.68 510.546 88.344 510.002 87.8C509.426 87.224 508.802 86.68 508.13 86.168C507.49 85.624 506.85 85.16 506.21 84.776C505.602 84.392 505.042 84.104 504.53 83.912C504.018 83.72 503.618 83.656 503.33 83.72C503.01 83.784 502.706 84.312 502.418 85.304C502.162 86.136 502.002 86.776 501.938 87.224C502.226 87.256 502.53 87.272 502.85 87.272C503.202 87.24 503.538 87.224 503.858 87.224C504.21 87.192 504.562 87.176 504.914 87.176C505.266 87.176 505.65 87.176 506.066 87.176C506.994 87.176 507.778 87.496 508.418 88.136C509.058 88.776 509.394 89.56 509.426 90.488C509.458 91.416 509.154 92.216 508.514 92.888C507.874 93.56 507.106 93.912 506.21 93.944C505.666 93.976 505.074 94.056 504.434 94.184C503.794 94.312 503.186 94.488 502.61 94.712C502.066 94.904 501.602 95.128 501.218 95.384C500.866 95.64 500.69 95.912 500.69 96.2C500.69 96.904 500.818 97.512 501.074 98.024C501.33 98.504 501.65 98.904 502.034 99.224C502.45 99.544 502.914 99.784 503.426 99.944C503.938 100.104 504.434 100.184 504.914 100.184C505.554 100.184 506.21 100.088 506.882 99.896C507.586 99.672 508.226 99.304 508.802 98.792C509.378 98.248 509.858 97.544 510.242 96.68C510.658 95.816 510.898 94.76 510.962 93.512C511.026 92.552 511.394 91.768 512.066 91.16C512.77 90.52 513.586 90.232 514.514 90.296ZM533.325 77.912C534.221 77.56 535.085 77.592 535.917 78.008C536.749 78.424 537.325 79.064 537.645 79.928C538.285 81.688 538.781 83.496 539.133 85.352C539.485 87.176 539.725 88.968 539.853 90.728C540.013 92.456 540.077 94.104 540.045 95.672C540.045 97.24 540.013 98.616 539.949 99.8C539.885 100.984 539.805 101.944 539.709 102.68C539.613 103.416 539.565 103.832 539.565 103.928C539.469 104.664 539.165 105.288 538.653 105.8C538.141 106.312 537.517 106.632 536.781 106.76C536.045 106.888 535.357 106.792 534.717 106.472C534.077 106.12 533.581 105.624 533.229 104.984C532.397 103.384 531.517 101.752 530.589 100.088C529.661 98.392 528.733 96.76 527.805 95.192C526.877 93.624 525.981 92.152 525.117 90.776C524.253 89.368 523.453 88.136 522.717 87.08C522.653 88.36 522.637 89.752 522.669 91.256C522.701 92.76 522.749 94.248 522.813 95.72C522.909 97.192 523.021 98.6 523.149 99.944C523.277 101.256 523.421 102.376 523.581 103.304C523.741 104.232 523.549 105.08 523.005 105.848C522.461 106.584 521.725 107.032 520.797 107.192C520.701 107.192 520.605 107.192 520.509 107.192C520.413 107.224 520.333 107.24 520.269 107.24C519.437 107.24 518.701 106.984 518.061 106.472C517.453 105.928 517.085 105.24 516.957 104.408C516.893 103.96 516.797 103.192 516.669 102.104C516.541 101.016 516.413 99.736 516.285 98.264C516.189 96.792 516.109 95.208 516.045 93.512C515.949 91.784 515.917 90.088 515.949 88.424C515.981 86.76 516.093 85.192 516.285 83.72C516.477 82.216 516.765 80.936 517.149 79.88C517.437 79.08 517.885 78.44 518.493 77.96C519.133 77.48 519.869 77.208 520.701 77.144C521.373 77.112 522.061 77.256 522.765 77.576C523.469 77.864 524.269 78.472 525.165 79.4C526.093 80.328 527.165 81.656 528.381 83.384C529.597 85.112 531.037 87.368 532.701 90.152C532.765 90.312 532.829 90.456 532.893 90.584C532.989 90.68 533.069 90.792 533.133 90.92C533.005 89.48 532.797 88.024 532.509 86.552C532.221 85.048 531.821 83.608 531.309 82.232C530.989 81.368 531.021 80.52 531.405 79.688C531.821 78.824 532.461 78.232 533.325 77.912ZM560.088 93.08C560.568 93.144 561 93.304 561.384 93.56C561.768 93.816 562.088 94.136 562.344 94.52C562.6 94.904 562.776 95.304 562.872 95.72C562.968 96.136 563 96.536 562.968 96.92C562.872 97.784 562.584 98.792 562.104 99.944C561.656 101.096 560.968 102.2 560.04 103.256C559.112 104.28 557.928 105.16 556.488 105.896C555.08 106.6 553.368 106.952 551.352 106.952H551.112C548.776 106.92 546.68 106.232 544.824 104.888C543 103.512 541.544 101.608 540.456 99.176C539.784 97.608 539.32 95.96 539.064 94.232C538.808 92.472 538.76 90.776 538.92 89.144C539.08 87.48 539.448 85.912 540.024 84.44C540.6 82.968 541.368 81.704 542.328 80.648C543.64 79.144 545.112 78.072 546.744 77.432C548.408 76.792 550.152 76.632 551.976 76.952C552.616 77.016 553.224 77.16 553.8 77.384C554.408 77.608 555.016 77.896 555.624 78.248C556.072 77.64 556.648 77.224 557.352 77C558.056 76.776 558.776 76.792 559.512 77.048C560.408 77.368 561.064 77.96 561.48 78.824C561.896 79.656 561.96 80.52 561.672 81.416C561.576 81.608 561.528 81.88 561.528 82.232C561.56 82.584 561.608 82.952 561.672 83.336C561.736 83.72 561.816 84.104 561.912 84.488C562.04 84.872 562.168 85.208 562.296 85.496C562.648 86.392 562.648 87.272 562.296 88.136C561.944 89 561.336 89.624 560.472 90.008C560.024 90.2 559.56 90.296 559.08 90.296C558.632 90.264 558.2 90.168 557.784 90.008C557.4 89.848 557.048 89.624 556.728 89.336C556.408 89.016 556.152 88.648 555.96 88.232C555.704 87.656 555.384 87.112 555 86.6C554.616 86.088 554.2 85.64 553.752 85.256C553.304 84.84 552.824 84.504 552.312 84.248C551.832 83.96 551.352 83.784 550.872 83.72C550.424 83.656 549.912 83.688 549.336 83.816C548.792 83.912 548.168 84.376 547.464 85.208C546.952 85.784 546.552 86.52 546.264 87.416C545.976 88.28 545.8 89.224 545.736 90.248C545.672 91.272 545.72 92.328 545.88 93.416C546.072 94.472 546.36 95.48 546.744 96.44C546.936 96.856 547.16 97.272 547.416 97.688C547.704 98.104 548.024 98.488 548.376 98.84C548.728 99.192 549.144 99.496 549.624 99.752C550.104 99.976 550.632 100.088 551.208 100.088H551.352C552.312 100.088 553.08 99.928 553.656 99.608C554.264 99.288 554.744 98.904 555.096 98.456C555.448 98.008 555.688 97.56 555.816 97.112C555.976 96.664 556.088 96.312 556.152 96.056V96.008C556.216 95.656 556.312 95.304 556.44 94.952C556.6 94.568 556.824 94.232 557.112 93.944C557.4 93.624 557.784 93.384 558.264 93.224C558.744 93.064 559.352 93.016 560.088 93.08ZM587.363 81.656C588.099 82.2 588.547 82.936 588.707 83.864C588.899 84.792 588.723 85.64 588.179 86.408C587.891 86.856 587.523 87.208 587.075 87.464C586.627 87.688 586.163 87.816 585.683 87.848C585.587 89 585.427 90.2 585.203 91.448C584.979 92.664 584.659 93.896 584.243 95.144C583.859 96.392 583.347 97.608 582.707 98.792C582.099 99.944 581.347 101.016 580.451 102.008C577.411 105.336 573.395 107 568.403 107C568.243 107 568.099 107 567.971 107C567.843 107 567.699 106.984 567.539 106.952C566.611 106.92 565.811 106.568 565.139 105.896C564.499 105.192 564.195 104.376 564.227 103.448C564.291 102.52 564.659 101.736 565.331 101.096C566.035 100.424 566.851 100.104 567.779 100.136C570.467 100.264 572.643 99.688 574.307 98.408C569.731 98.408 566.307 97.08 564.035 94.424C562.851 93.048 562.083 91.544 561.731 89.912C561.379 88.28 561.235 86.728 561.299 85.256C561.363 83.784 561.539 82.52 561.827 81.464C562.115 80.408 562.291 79.752 562.355 79.496C562.707 78.6 563.299 77.944 564.131 77.528C564.963 77.112 565.827 77.08 566.723 77.432C567.619 77.752 568.275 78.328 568.691 79.16C569.107 79.992 569.155 80.856 568.835 81.752C568.707 82.104 568.563 82.632 568.403 83.336C568.275 84.04 568.179 84.792 568.115 85.592C568.083 86.392 568.131 87.192 568.259 87.992C568.419 88.76 568.739 89.416 569.219 89.96C569.891 90.792 570.995 91.304 572.531 91.496C574.099 91.688 576.019 91.608 578.291 91.256C578.515 90.264 578.675 89.256 578.771 88.232C578.867 87.208 578.931 86.248 578.963 85.352C578.995 84.424 578.979 83.592 578.915 82.856C578.883 82.088 578.835 81.464 578.771 80.984C578.643 80.152 578.819 79.384 579.299 78.68C579.779 77.944 580.435 77.464 581.267 77.24C582.099 76.984 582.883 77.048 583.619 77.432C584.387 77.816 584.931 78.392 585.251 79.16C585.411 79.448 585.587 79.752 585.779 80.072C585.939 80.328 586.147 80.6 586.403 80.888C586.691 81.176 587.011 81.432 587.363 81.656Z" fill="#D2402D"/>
</g>
<defs>
<filter id="filter0_f_80_2" x="0.664001" y="68.856" width="590.331" height="44.7041" filterUnits="userSpaceOnUse" color-interpolation-filters="sRGB">
<feFlood flood-opacity="0" result="BackgroundImageFix"/>
<feBlend mode="normal" in="SourceGraphic" in2="BackgroundImageFix" result="shape"/>
<feGaussianBlur stdDeviation="1" result="effect1_foregroundBlur_80_2"/>
</filter>
</defs>
</svg>
