<svg width="503" height="123" viewBox="0 0 503 123" fill="none" xmlns="http://www.w3.org/2000/svg">
<path d="M4.8 24.264H22.56V78.696H54.912V93H4.8V24.264ZM76.2503 43.944C90.0743 43.944 98.5702 49.272 98.5702 60.696V93H82.8743L82.8262 85.656C80.4263 90.504 75.2902 94.056 67.6582 94.056C58.4422 94.056 52.2982 88.344 52.2982 79.416C52.2982 71.448 56.5222 67.416 62.4742 64.92C68.0422 62.616 74.7143 61.656 82.3462 61.224V60.36C82.3462 56.712 80.8583 54.36 75.8183 54.36C71.3063 54.36 69.2422 56.424 69.0022 60.648H53.5942C54.0742 48.984 62.4262 43.944 76.2503 43.944ZM74.3782 82.968C79.0342 82.968 82.3462 79.752 82.3462 75.48V69.672C78.4102 69.912 75.0502 70.584 72.7463 71.784C70.1062 73.08 68.8102 75 68.8102 77.784C68.8102 81.192 70.9703 82.968 74.3782 82.968ZM125.977 93H116.329C107.593 93 102.505 89.64 102.505 80.856V57.24H96.0735V45H102.505V34.344L118.777 24.264V45H125.977V57.24H118.777V77.736C118.777 79.848 119.401 80.76 121.993 80.76H125.977V93ZM171.866 68.088V71.928H139.274C139.274 78.552 141.53 83.016 148.154 83.016C153.386 83.016 155.69 80.04 156.026 76.2H171.77C171.098 87.336 162.266 94.056 147.866 94.056C131.93 94.056 122.906 85.272 122.906 69.336V68.76C122.906 52.632 132.266 43.944 147.77 43.944C162.266 43.944 171.866 52.152 171.866 68.088ZM147.674 54.456C142.154 54.456 139.802 57.624 139.37 63.144H155.642C155.21 57.576 152.906 54.456 147.674 54.456ZM192.908 94.056C178.412 94.056 169.58 89.448 168.86 76.2H183.068C183.452 82.2 187.148 83.688 192.86 83.688C198.188 83.688 200.492 82.2 200.492 79.32C200.492 76.968 198.86 76.104 195.164 75.336C191.036 74.424 184.796 73.848 179.372 72.264C173.66 70.536 170.06 66.792 170.06 59.832V59.736C170.06 49.56 178.316 43.944 191.468 43.944C205.724 43.944 213.932 48.84 214.652 60.648H200.444C199.964 55.896 197.036 54.264 192.044 54.264C187.676 54.264 185.468 55.512 185.468 58.104C185.468 60.264 187.004 61.176 190.7 61.896C194.876 62.76 201.404 63.576 206.588 65.064C212.3 66.744 215.9 70.392 215.9 77.544V77.64C215.9 88.44 206.876 94.056 192.908 94.056ZM240.724 93H231.076C222.34 93 217.252 89.64 217.252 80.856V57.24H210.82V45H217.252V34.344L233.524 24.264V45H240.724V57.24H233.524V77.736C233.524 79.848 234.148 80.76 236.74 80.76H240.724V93ZM327.467 24.264H344.795L327.659 93H307.499L297.851 49.752L288.251 93H268.091L251.003 24.264H268.907L279.371 74.088L289.403 24.264H307.019L317.003 74.04L327.467 24.264ZM360.181 94.056C345.109 94.056 334.837 85.08 334.837 69.432V68.568C334.837 52.92 345.109 43.944 360.181 43.944C375.253 43.944 385.525 52.92 385.525 68.568V69.432C385.525 85.08 375.253 94.056 360.181 94.056ZM360.181 81.864C366.277 81.864 368.773 76.968 368.773 69.144V68.856C368.773 61.032 366.277 56.136 360.181 56.136C354.085 56.136 351.541 61.032 351.541 68.856V69.144C351.541 76.968 354.085 81.864 360.181 81.864ZM412.429 45H416.797V58.968H410.269C403.837 58.968 401.581 63.048 401.581 68.52V93H385.117V45H400.957L401.005 53.832C402.925 47.88 406.861 45 412.429 45ZM463.636 45L448.948 62.472L463.3 93H445.3L436.996 74.424L431.14 81.432V93H414.772V24.264H431.14V63.816L444.724 45H463.636Z" fill="black"/>
<g filter="url(#filter0_f_85_79)">
<path d="M110.656 83.64C111.552 83.352 112.416 83.432 113.248 83.88C114.08 84.296 114.624 84.952 114.88 85.848C116.576 91.128 117.376 95.544 117.28 99.096C117.184 102.648 116.224 105.464 114.4 107.544C114.048 107.96 113.6 108.376 113.056 108.792C112.544 109.208 111.936 109.576 111.232 109.896C110.56 110.216 109.776 110.488 108.88 110.712C107.984 110.904 106.976 111 105.856 111C105.312 111 104.736 110.968 104.128 110.904C103.552 110.84 102.928 110.744 102.256 110.616C99.568 110.136 97.488 108.792 96.016 106.584C94.768 104.696 94.064 102.504 93.904 100.008C93.744 97.48 93.856 94.856 94.24 92.136C93.664 92.136 93.12 92.008 92.608 91.752C92.096 91.464 91.68 91.048 91.36 90.504C90.848 89.704 90.704 88.856 90.928 87.96C91.152 87.064 91.648 86.36 92.416 85.848C92.672 85.688 92.976 85.496 93.328 85.272C93.68 85.016 94.032 84.744 94.384 84.456C94.736 84.136 95.072 83.816 95.392 83.496C95.744 83.176 96.032 82.872 96.256 82.584C96.736 81.88 97.376 81.416 98.176 81.192C98.976 80.968 99.744 81.032 100.48 81.384C100.672 81.48 100.896 81.624 101.152 81.816C101.44 82.008 101.696 82.28 101.92 82.632C102.144 82.952 102.304 83.368 102.4 83.88C102.528 84.36 102.528 84.952 102.4 85.656C102.336 85.848 102.272 86.072 102.208 86.328C102.176 86.552 102.128 86.824 102.064 87.144C101.904 87.912 101.68 89 101.392 90.408C101.104 91.784 100.88 93.256 100.72 94.824C100.56 96.36 100.528 97.864 100.624 99.336C100.72 100.808 101.056 101.976 101.632 102.84C101.888 103.16 102.144 103.416 102.4 103.608C102.688 103.768 103.056 103.88 103.504 103.944C103.984 104.04 104.496 104.12 105.04 104.184C105.616 104.216 106.16 104.216 106.672 104.184C107.216 104.12 107.712 104.008 108.16 103.848C108.64 103.688 109.024 103.432 109.312 103.08C109.536 102.824 109.76 102.392 109.984 101.784C110.24 101.176 110.384 100.296 110.416 99.144C110.48 97.992 110.368 96.504 110.08 94.68C109.824 92.856 109.28 90.6 108.448 87.912C108.16 86.984 108.224 86.104 108.64 85.272C109.088 84.44 109.76 83.896 110.656 83.64ZM133.309 81.912C134.205 81.56 135.069 81.592 135.901 82.008C136.733 82.424 137.309 83.064 137.629 83.928C138.269 85.688 138.765 87.496 139.117 89.352C139.469 91.176 139.709 92.968 139.837 94.728C139.997 96.456 140.061 98.104 140.029 99.672C140.029 101.24 139.997 102.616 139.933 103.8C139.869 104.984 139.789 105.944 139.693 106.68C139.597 107.416 139.549 107.832 139.549 107.928C139.453 108.664 139.149 109.288 138.637 109.8C138.125 110.312 137.501 110.632 136.765 110.76C136.029 110.888 135.341 110.792 134.701 110.472C134.061 110.12 133.565 109.624 133.213 108.984C132.381 107.384 131.501 105.752 130.573 104.088C129.645 102.392 128.717 100.76 127.789 99.192C126.861 97.624 125.965 96.152 125.101 94.776C124.237 93.368 123.437 92.136 122.701 91.08C122.637 92.36 122.621 93.752 122.653 95.256C122.685 96.76 122.733 98.248 122.797 99.72C122.893 101.192 123.005 102.6 123.133 103.944C123.261 105.256 123.405 106.376 123.565 107.304C123.725 108.232 123.533 109.08 122.989 109.848C122.445 110.584 121.709 111.032 120.781 111.192C120.685 111.192 120.589 111.192 120.493 111.192C120.397 111.224 120.317 111.24 120.253 111.24C119.421 111.24 118.685 110.984 118.045 110.472C117.437 109.928 117.069 109.24 116.941 108.408C116.877 107.96 116.781 107.192 116.653 106.104C116.525 105.016 116.397 103.736 116.269 102.264C116.173 100.792 116.093 99.208 116.029 97.512C115.933 95.784 115.901 94.088 115.933 92.424C115.965 90.76 116.077 89.192 116.269 87.72C116.461 86.216 116.749 84.936 117.133 83.88C117.421 83.08 117.869 82.44 118.477 81.96C119.117 81.48 119.853 81.208 120.685 81.144C121.357 81.112 122.045 81.256 122.749 81.576C123.453 81.864 124.253 82.472 125.149 83.4C126.077 84.328 127.149 85.656 128.365 87.384C129.581 89.112 131.021 91.368 132.685 94.152C132.749 94.312 132.813 94.456 132.877 94.584C132.973 94.68 133.053 94.792 133.117 94.92C132.989 93.48 132.781 92.024 132.493 90.552C132.205 89.048 131.805 87.608 131.293 86.232C130.973 85.368 131.005 84.52 131.389 83.688C131.805 82.824 132.445 82.232 133.309 81.912ZM159.711 94.392C160.735 95.032 161.615 95.864 162.351 96.888C163.119 97.88 163.615 99.064 163.839 100.44C164.127 102.296 163.919 104.008 163.215 105.576C162.511 107.112 161.343 108.344 159.711 109.272C157.727 110.424 155.375 111 152.655 111C150.543 111 148.399 110.648 146.223 109.944C144.047 109.24 142.095 108.216 140.367 106.872C139.599 106.264 139.167 105.496 139.071 104.568C138.975 103.64 139.215 102.792 139.791 102.024C140.271 101.416 140.863 101.016 141.567 100.824C142.271 100.632 142.975 100.664 143.679 100.92C143.455 99.928 143.263 98.92 143.103 97.896C142.943 96.84 142.799 95.8 142.671 94.776C142.575 93.752 142.511 92.76 142.479 91.8C142.447 90.84 142.447 89.944 142.479 89.112C141.615 89.368 140.767 89.304 139.935 88.92C139.103 88.504 138.543 87.864 138.255 87C137.902 86.072 137.918 85.192 138.303 84.36C138.719 83.528 139.375 82.952 140.271 82.632C140.463 82.568 140.847 82.44 141.423 82.248C142.031 82.024 142.767 81.816 143.631 81.624C144.495 81.432 145.455 81.256 146.511 81.096C147.599 80.936 148.703 80.872 149.823 80.904C150.975 80.904 152.111 81.032 153.231 81.288C154.351 81.512 155.391 81.912 156.351 82.488C157.535 83.224 158.495 84.168 159.231 85.32C159.967 86.44 160.431 87.736 160.623 89.208C160.783 90.328 160.751 91.32 160.527 92.184C160.335 93.048 160.063 93.784 159.711 94.392ZM152.847 88.344C152.399 88.12 151.887 87.976 151.311 87.912C150.767 87.816 150.175 87.768 149.535 87.768C149.407 88.248 149.343 88.84 149.343 89.544C149.343 90.248 149.375 91 149.439 91.8C149.695 91.8 149.935 91.8 150.159 91.8C150.383 91.8 150.623 91.816 150.879 91.848C151.519 91.784 152.095 91.688 152.607 91.56C153.119 91.4 153.487 91.208 153.711 90.984C153.743 90.952 153.775 90.888 153.807 90.792C153.871 90.696 153.887 90.504 153.855 90.216C153.727 89.64 153.567 89.224 153.375 88.968C153.215 88.712 153.039 88.504 152.847 88.344ZM156.255 103.368C156.607 103.144 156.831 102.904 156.927 102.648C157.055 102.36 157.087 101.992 157.023 101.544C156.959 101.128 156.735 100.76 156.351 100.44C155.967 100.12 155.487 99.848 154.911 99.624C154.335 99.4 153.695 99.224 152.991 99.096C152.287 98.936 151.583 98.824 150.879 98.76H150.303C150.527 99.976 150.767 101.048 151.023 101.976C151.311 102.904 151.599 103.592 151.887 104.04C151.887 104.04 151.919 104.056 151.983 104.088C152.815 104.152 153.599 104.136 154.335 104.04C155.103 103.912 155.743 103.688 156.255 103.368ZM171.609 81.096C174.329 81.096 176.617 81.432 178.473 82.104C180.361 82.744 181.913 83.544 183.129 84.504C184.377 85.464 185.337 86.488 186.009 87.576C186.681 88.664 187.177 89.656 187.497 90.552C188.073 92.216 188.361 93.896 188.361 95.592C188.393 97.288 188.185 98.904 187.737 100.44C187.321 101.976 186.729 103.384 185.961 104.664C185.225 105.944 184.377 106.968 183.417 107.736C182.201 108.76 180.873 109.528 179.433 110.04C178.025 110.52 176.553 110.76 175.017 110.76C173.513 110.76 172.105 110.536 170.793 110.088C168.681 109.352 166.905 108.184 165.465 106.584C164.025 104.984 163.065 103.128 162.585 101.016C161.913 98.04 161.801 95.256 162.249 92.664C162.665 90.04 163.577 87.912 164.985 86.28C165.337 85.864 165.769 85.464 166.281 85.08C166.793 84.664 167.369 84.296 168.009 83.976C168.201 83.144 168.633 82.456 169.305 81.912C169.977 81.368 170.745 81.096 171.609 81.096ZM178.761 102.072C179.145 101.752 179.513 101.256 179.865 100.584C180.217 99.912 180.489 99.16 180.681 98.328C180.905 97.496 181.017 96.616 181.017 95.688C181.017 94.76 180.857 93.864 180.537 93C179.929 91.144 178.553 89.848 176.409 89.112C176.057 89.528 175.609 89.848 175.065 90.072C174.521 90.296 173.961 90.376 173.385 90.312C173.289 90.312 173.177 90.312 173.049 90.312C172.953 90.28 172.857 90.264 172.761 90.264C172.025 90.264 171.497 90.376 171.177 90.6C170.857 90.824 170.633 91 170.505 91.128C169.865 91.864 169.481 92.984 169.353 94.488C169.225 95.992 169.353 97.624 169.737 99.384C169.929 100.248 170.329 101.016 170.937 101.688C171.545 102.328 172.297 102.808 173.193 103.128C174.153 103.448 175.113 103.512 176.073 103.32C177.033 103.128 177.929 102.712 178.761 102.072ZM207.069 104.136C208.029 104.136 208.845 104.472 209.517 105.144C210.189 105.816 210.525 106.632 210.525 107.592C210.525 108.552 210.189 109.368 209.517 110.04C208.845 110.712 208.029 111.048 207.069 111.048C203.005 111.048 198.925 107.992 194.829 101.88C193.933 102.936 193.165 104.008 192.525 105.096C191.885 106.152 191.453 107.208 191.229 108.264C191.069 109.096 190.669 109.768 190.029 110.28C189.389 110.792 188.669 111.048 187.869 111.048C187.741 111.048 187.613 111.032 187.485 111C187.389 111 187.277 111 187.149 111C186.22 110.776 185.5 110.28 184.988 109.512C184.444 108.712 184.268 107.848 184.46 106.92C184.908 104.776 185.74 102.776 186.957 100.92C188.205 99.064 189.629 97.272 191.229 95.544C190.685 94.456 190.173 93.368 189.693 92.28C189.213 91.16 188.781 90.104 188.396 89.112C188.045 88.088 187.757 87.16 187.533 86.328C187.309 85.496 187.197 84.808 187.197 84.264C187.197 83.304 187.533 82.488 188.205 81.816C188.877 81.144 189.693 80.808 190.653 80.808C191.613 80.808 192.413 81.144 193.053 81.816C193.725 82.456 194.093 83.24 194.157 84.168C194.221 84.552 194.445 85.32 194.829 86.472C195.213 87.592 195.773 88.92 196.509 90.456C196.541 90.392 196.573 90.36 196.605 90.36C196.637 90.328 196.685 90.28 196.749 90.216C197.421 89.576 198.109 88.936 198.812 88.296C199.549 87.624 200.205 86.984 200.781 86.376C201.389 85.736 201.901 85.144 202.317 84.6C202.765 84.024 203.069 83.528 203.229 83.112C203.549 82.216 204.125 81.56 204.957 81.144C205.821 80.728 206.701 80.68 207.597 81C208.525 81.32 209.197 81.912 209.613 82.776C210.029 83.608 210.077 84.488 209.757 85.416C209.181 87.048 208.125 88.664 206.589 90.264C205.085 91.864 203.373 93.544 201.453 95.304C201.197 95.56 200.925 95.816 200.637 96.072C200.381 96.296 200.109 96.536 199.821 96.792C200.685 98.232 201.501 99.432 202.269 100.392C203.037 101.32 203.725 102.072 204.333 102.648C204.973 103.192 205.517 103.576 205.965 103.8C206.445 104.024 206.813 104.136 207.069 104.136ZM227.092 94.296C228.052 94.36 228.836 94.744 229.444 95.448C230.084 96.152 230.372 96.984 230.308 97.944C230.18 100.088 229.732 101.976 228.964 103.608C228.196 105.24 227.22 106.6 226.036 107.688C224.852 108.776 223.524 109.592 222.052 110.136C220.58 110.68 219.108 110.952 217.636 110.952H217.252C215.716 110.92 214.292 110.632 212.98 110.088C211.668 109.512 210.532 108.744 209.572 107.784C208.612 106.824 207.86 105.704 207.316 104.424C206.772 103.112 206.5 101.704 206.5 100.2C206.5 99.112 206.66 98.152 206.98 97.32C207.332 96.488 207.812 95.768 208.42 95.16C208.068 94.552 207.844 93.912 207.748 93.24C207.652 92.568 207.62 91.896 207.652 91.224C207.716 90.552 207.828 89.88 207.988 89.208C208.148 88.536 208.324 87.912 208.516 87.336C208.836 86.248 209.236 85.336 209.716 84.6C210.196 83.864 210.692 83.256 211.204 82.776C211.748 82.296 212.292 81.928 212.836 81.672C213.38 81.416 213.892 81.224 214.372 81.096C215.492 80.84 216.612 80.84 217.732 81.096C218.884 81.32 219.988 81.704 221.044 82.248C221.268 81.608 221.652 81.112 222.196 80.76C222.74 80.376 223.38 80.184 224.116 80.184C225.044 80.184 225.844 80.52 226.516 81.192C227.188 81.864 227.524 82.664 227.524 83.592C227.524 83.976 227.556 84.424 227.62 84.936C227.684 85.416 227.748 85.896 227.812 86.376C227.908 86.856 227.988 87.304 228.052 87.72C228.148 88.104 228.228 88.408 228.292 88.632C228.484 89.368 228.42 90.088 228.1 90.792C227.812 91.496 227.332 92.024 226.66 92.376C226.02 92.792 225.316 92.936 224.548 92.808C223.78 92.68 223.124 92.344 222.58 91.8C222.004 91.224 221.38 90.68 220.708 90.168C220.068 89.624 219.428 89.16 218.788 88.776C218.18 88.392 217.62 88.104 217.108 87.912C216.596 87.72 216.196 87.656 215.908 87.72C215.588 87.784 215.284 88.312 214.996 89.304C214.74 90.136 214.58 90.776 214.516 91.224C214.804 91.256 215.108 91.272 215.428 91.272C215.78 91.24 216.116 91.224 216.436 91.224C216.788 91.192 217.14 91.176 217.492 91.176C217.844 91.176 218.228 91.176 218.644 91.176C219.572 91.176 220.356 91.496 220.996 92.136C221.636 92.776 221.972 93.56 222.004 94.488C222.036 95.416 221.732 96.216 221.092 96.888C220.452 97.56 219.684 97.912 218.788 97.944C218.244 97.976 217.652 98.056 217.012 98.184C216.372 98.312 215.764 98.488 215.188 98.712C214.644 98.904 214.18 99.128 213.796 99.384C213.444 99.64 213.268 99.912 213.268 100.2C213.268 100.904 213.396 101.512 213.652 102.024C213.908 102.504 214.228 102.904 214.612 103.224C215.028 103.544 215.492 103.784 216.004 103.944C216.516 104.104 217.012 104.184 217.492 104.184C218.132 104.184 218.788 104.088 219.46 103.896C220.164 103.672 220.804 103.304 221.38 102.792C221.956 102.248 222.436 101.544 222.82 100.68C223.236 99.816 223.476 98.76 223.54 97.512C223.604 96.552 223.972 95.768 224.644 95.16C225.348 94.52 226.164 94.232 227.092 94.296ZM246.618 83.208C250.33 85.576 252.618 89.656 253.482 95.448C253.866 98.04 253.626 100.408 252.762 102.552C251.898 104.696 250.442 106.488 248.394 107.928C246.954 108.952 245.322 109.72 243.498 110.232C241.706 110.712 239.882 110.952 238.026 110.952C236.586 110.952 235.162 110.808 233.754 110.52C232.378 110.2 231.114 109.72 229.962 109.08C229.13 108.632 228.586 107.96 228.33 107.064C228.074 106.136 228.186 105.256 228.666 104.424C229.082 103.624 229.69 103.096 230.49 102.84C231.29 102.552 232.106 102.584 232.938 102.936C232.65 101.848 232.394 100.712 232.17 99.528C231.978 98.344 231.802 97.16 231.642 95.976C231.514 94.76 231.418 93.592 231.354 92.472C231.29 91.32 231.274 90.264 231.306 89.304C231.178 89.304 231.066 89.32 230.97 89.352C230.042 89.512 229.178 89.352 228.378 88.872C227.578 88.36 227.082 87.64 226.889 86.712C226.697 85.784 226.858 84.92 227.37 84.12C227.914 83.32 228.65 82.824 229.578 82.632C229.642 82.6 229.754 82.568 229.914 82.536C230.106 82.472 230.298 82.424 230.49 82.392C231.258 82.168 232.25 81.912 233.466 81.624C234.714 81.336 236.058 81.16 237.498 81.096C238.97 81 240.49 81.096 242.058 81.384C243.626 81.64 245.146 82.248 246.618 83.208ZM244.458 102.312C246.346 101.032 247.098 99.096 246.714 96.504C246.138 92.76 244.874 90.232 242.922 88.92C242.25 88.472 241.514 88.184 240.714 88.056C239.946 87.928 239.146 87.864 238.314 87.864C238.154 88.824 238.106 90.072 238.17 91.608C238.266 93.144 238.426 94.712 238.65 96.312C238.874 97.912 239.146 99.416 239.466 100.824C239.818 102.2 240.17 103.208 240.522 103.848C241.258 103.688 241.962 103.496 242.634 103.272C243.306 103.016 243.914 102.696 244.458 102.312ZM271.116 96.504C271.02 98.424 270.956 100.232 270.924 101.928C270.892 103.592 271.1 105.192 271.548 106.728C271.804 107.624 271.708 108.472 271.26 109.272C270.812 110.072 270.14 110.6 269.244 110.856C269.084 110.888 268.924 110.92 268.764 110.952C268.636 110.952 268.492 110.952 268.332 110.952C267.596 110.952 266.924 110.728 266.316 110.28C265.74 109.832 265.34 109.24 265.116 108.504C264.508 106.424 264.204 104.376 264.204 102.36C264.236 100.312 264.316 98.216 264.444 96.072C264.508 94.856 264.572 93.64 264.636 92.424C264.7 91.176 264.7 89.88 264.636 88.536C264.604 87.608 264.892 86.824 265.5 86.184C266.14 85.512 266.924 85.144 267.852 85.08C268.78 85.016 269.58 85.304 270.252 85.944C270.924 86.552 271.292 87.32 271.356 88.248C271.42 89.72 271.42 91.144 271.356 92.52C271.292 93.864 271.212 95.192 271.116 96.504ZM268.14 84.024C267.212 83.992 266.428 83.64 265.788 82.968C265.148 82.296 264.844 81.496 264.876 80.568L264.972 78.12C265.004 77.224 265.356 76.456 266.028 75.816C266.732 75.176 267.548 74.872 268.476 74.904C269.372 74.968 270.124 75.336 270.732 76.008C271.372 76.68 271.676 77.48 271.644 78.408L271.548 80.808C271.516 81.736 271.18 82.52 270.54 83.16C269.9 83.768 269.148 84.072 268.284 84.072C268.188 84.072 268.14 84.056 268.14 84.024ZM288.852 83.208C292.564 85.576 294.852 89.656 295.716 95.448C296.1 98.04 295.86 100.408 294.996 102.552C294.132 104.696 292.676 106.488 290.628 107.928C289.188 108.952 287.556 109.72 285.732 110.232C283.94 110.712 282.116 110.952 280.26 110.952C278.82 110.952 277.396 110.808 275.988 110.52C274.612 110.2 273.348 109.72 272.196 109.08C271.364 108.632 270.82 107.96 270.564 107.064C270.308 106.136 270.42 105.256 270.9 104.424C271.316 103.624 271.924 103.096 272.724 102.84C273.524 102.552 274.34 102.584 275.172 102.936C274.884 101.848 274.628 100.712 274.404 99.528C274.212 98.344 274.036 97.16 273.876 95.976C273.748 94.76 273.652 93.592 273.588 92.472C273.524 91.32 273.508 90.264 273.54 89.304C273.412 89.304 273.3 89.32 273.204 89.352C272.276 89.512 271.412 89.352 270.612 88.872C269.812 88.36 269.316 87.64 269.124 86.712C268.932 85.784 269.092 84.92 269.604 84.12C270.148 83.32 270.884 82.824 271.812 82.632C271.876 82.6 271.988 82.568 272.148 82.536C272.34 82.472 272.532 82.424 272.724 82.392C273.492 82.168 274.484 81.912 275.7 81.624C276.948 81.336 278.292 81.16 279.732 81.096C281.204 81 282.724 81.096 284.292 81.384C285.86 81.64 287.38 82.248 288.852 83.208ZM286.692 102.312C288.58 101.032 289.332 99.096 288.948 96.504C288.372 92.76 287.108 90.232 285.156 88.92C284.484 88.472 283.748 88.184 282.948 88.056C282.18 87.928 281.38 87.864 280.548 87.864C280.388 88.824 280.34 90.072 280.404 91.608C280.5 93.144 280.66 94.712 280.884 96.312C281.108 97.912 281.38 99.416 281.7 100.824C282.052 102.2 282.404 103.208 282.756 103.848C283.492 103.688 284.196 103.496 284.868 103.272C285.54 103.016 286.148 102.696 286.692 102.312ZM314.936 94.296C315.896 94.36 316.68 94.744 317.288 95.448C317.928 96.152 318.216 96.984 318.152 97.944C318.024 100.088 317.576 101.976 316.808 103.608C316.04 105.24 315.064 106.6 313.88 107.688C312.696 108.776 311.368 109.592 309.896 110.136C308.424 110.68 306.952 110.952 305.48 110.952H305.096C303.56 110.92 302.136 110.632 300.824 110.088C299.512 109.512 298.376 108.744 297.416 107.784C296.456 106.824 295.704 105.704 295.16 104.424C294.616 103.112 294.344 101.704 294.344 100.2C294.344 99.112 294.504 98.152 294.824 97.32C295.176 96.488 295.656 95.768 296.264 95.16C295.912 94.552 295.688 93.912 295.592 93.24C295.496 92.568 295.464 91.896 295.496 91.224C295.56 90.552 295.672 89.88 295.832 89.208C295.992 88.536 296.168 87.912 296.36 87.336C296.68 86.248 297.08 85.336 297.56 84.6C298.04 83.864 298.536 83.256 299.048 82.776C299.592 82.296 300.136 81.928 300.68 81.672C301.224 81.416 301.736 81.224 302.216 81.096C303.336 80.84 304.456 80.84 305.576 81.096C306.728 81.32 307.832 81.704 308.888 82.248C309.112 81.608 309.496 81.112 310.04 80.76C310.584 80.376 311.224 80.184 311.96 80.184C312.888 80.184 313.688 80.52 314.36 81.192C315.032 81.864 315.368 82.664 315.368 83.592C315.368 83.976 315.4 84.424 315.464 84.936C315.528 85.416 315.592 85.896 315.656 86.376C315.752 86.856 315.832 87.304 315.896 87.72C315.992 88.104 316.072 88.408 316.136 88.632C316.328 89.368 316.264 90.088 315.944 90.792C315.656 91.496 315.176 92.024 314.504 92.376C313.864 92.792 313.16 92.936 312.392 92.808C311.624 92.68 310.968 92.344 310.424 91.8C309.848 91.224 309.224 90.68 308.552 90.168C307.912 89.624 307.272 89.16 306.632 88.776C306.024 88.392 305.464 88.104 304.952 87.912C304.44 87.72 304.04 87.656 303.752 87.72C303.432 87.784 303.128 88.312 302.84 89.304C302.584 90.136 302.424 90.776 302.36 91.224C302.648 91.256 302.952 91.272 303.272 91.272C303.624 91.24 303.96 91.224 304.28 91.224C304.632 91.192 304.984 91.176 305.336 91.176C305.688 91.176 306.072 91.176 306.488 91.176C307.416 91.176 308.2 91.496 308.84 92.136C309.48 92.776 309.816 93.56 309.848 94.488C309.88 95.416 309.576 96.216 308.936 96.888C308.296 97.56 307.528 97.912 306.632 97.944C306.088 97.976 305.496 98.056 304.856 98.184C304.216 98.312 303.608 98.488 303.032 98.712C302.488 98.904 302.024 99.128 301.64 99.384C301.288 99.64 301.112 99.912 301.112 100.2C301.112 100.904 301.24 101.512 301.496 102.024C301.752 102.504 302.072 102.904 302.456 103.224C302.872 103.544 303.336 103.784 303.848 103.944C304.36 104.104 304.856 104.184 305.336 104.184C305.976 104.184 306.632 104.088 307.304 103.896C308.008 103.672 308.648 103.304 309.224 102.792C309.8 102.248 310.28 101.544 310.664 100.68C311.08 99.816 311.32 98.76 311.384 97.512C311.448 96.552 311.816 95.768 312.488 95.16C313.192 94.52 314.008 94.232 314.936 94.296ZM335.344 94.968C335.792 96.408 336.208 97.816 336.592 99.192C337.008 100.568 337.36 101.8 337.648 102.888C337.968 103.976 338.208 104.872 338.368 105.576C338.56 106.248 338.656 106.616 338.656 106.68C338.912 107.608 338.8 108.472 338.32 109.272C337.84 110.04 337.152 110.536 336.256 110.76C335.328 111.016 334.448 110.904 333.616 110.424C332.816 109.944 332.304 109.24 332.08 108.312C332.016 108.056 331.952 107.816 331.888 107.592C331.856 107.336 331.808 107.08 331.744 106.824C330.848 106.632 329.936 106.472 329.008 106.344C328.08 106.184 327.152 106.056 326.224 105.96C325.328 105.864 324.464 105.816 323.632 105.816C322.8 105.784 322.048 105.8 321.376 105.864C321.248 106.312 321.12 106.744 320.992 107.16C320.896 107.544 320.8 107.944 320.704 108.36C320.512 109.096 320.096 109.704 319.456 110.184C318.848 110.664 318.176 110.904 317.44 110.904C317.12 110.904 316.816 110.856 316.528 110.76C315.6 110.504 314.896 109.992 314.416 109.224C313.968 108.424 313.872 107.56 314.128 106.632C314.16 106.6 314.256 106.248 314.416 105.576C314.608 104.872 314.864 103.976 315.184 102.888C315.504 101.8 315.856 100.568 316.24 99.192C316.656 97.784 317.104 96.36 317.584 94.92C318.448 92.296 319.248 90.104 319.984 88.344C320.72 86.552 321.424 85.128 322.096 84.072C322.8 82.984 323.504 82.216 324.208 81.768C324.912 81.288 325.68 81.048 326.512 81.048C327.344 81.048 328.112 81.288 328.816 81.768C329.52 82.216 330.208 82.984 330.88 84.072C331.584 85.128 332.288 86.552 332.992 88.344C333.728 90.136 334.512 92.344 335.344 94.968ZM323.392 99C325.536 99 327.632 99.176 329.68 99.528C329.136 97.704 328.576 96.008 328 94.44C327.456 92.84 326.96 91.448 326.512 90.264C326.064 91.384 325.568 92.696 325.024 94.2C324.48 95.672 323.936 97.272 323.392 99ZM354.532 81.144C355.396 81.304 356.068 81.768 356.548 82.536C357.028 83.304 357.172 84.12 356.98 84.984C356.852 85.528 356.772 86.248 356.74 87.144C356.708 88.04 356.708 88.872 356.74 89.64V90.888C356.676 91.752 356.34 92.488 355.732 93.096C355.124 93.704 354.372 94.008 353.476 94.008C352.612 94.008 351.86 93.704 351.22 93.096C350.58 92.488 350.244 91.752 350.212 90.888V89.928C350.148 89.352 350.004 88.936 349.78 88.68C349.556 88.392 349.348 88.184 349.156 88.056C348.484 87.64 347.636 87.48 346.612 87.576C345.62 87.64 344.692 87.912 343.828 88.392C343.348 88.648 342.868 89.032 342.388 89.544C341.94 90.024 341.716 90.648 341.716 91.416V91.512C341.812 91.672 342.052 91.832 342.436 91.992C342.82 92.152 343.252 92.312 343.732 92.472C344.244 92.6 344.756 92.728 345.268 92.856C345.78 92.984 346.228 93.096 346.612 93.192C347.732 93.448 348.836 93.72 349.924 94.008C351.012 94.296 352.02 94.712 352.948 95.256C353.812 95.736 354.516 96.264 355.06 96.84C355.604 97.416 356.02 98.008 356.308 98.616C356.628 99.224 356.836 99.832 356.932 100.44C357.028 101.016 357.06 101.56 357.028 102.072C356.964 104.376 356.228 106.312 354.82 107.88C353.412 109.416 351.54 110.36 349.204 110.712C348.66 110.808 348.116 110.856 347.572 110.856C346.644 110.856 345.684 110.744 344.692 110.52C343.732 110.264 342.788 109.896 341.86 109.416C341.508 109.768 341.092 110.04 340.612 110.232C340.132 110.424 339.62 110.488 339.076 110.424C338.18 110.296 337.46 109.88 336.916 109.176C336.372 108.44 336.164 107.624 336.292 106.728C336.452 105.544 336.596 104.504 336.724 103.608C336.884 102.712 336.964 102.248 336.964 102.216C337.06 101.48 337.38 100.856 337.924 100.344C338.468 99.832 339.124 99.544 339.892 99.48C340.628 99.416 341.3 99.592 341.908 100.008C342.548 100.392 342.996 100.952 343.252 101.688C343.412 102.2 343.668 102.648 344.02 103.032C344.404 103.384 344.82 103.672 345.268 103.896C345.748 104.088 346.244 104.232 346.756 104.328C347.268 104.392 347.764 104.392 348.244 104.328C348.82 104.232 349.252 104.072 349.54 103.848C349.86 103.624 350.084 103.4 350.212 103.176C350.372 102.92 350.468 102.68 350.5 102.456C350.532 102.232 350.548 102.056 350.548 101.928C350.548 101.768 350.516 101.624 350.452 101.496C350.42 101.336 350.212 101.16 349.828 100.968C349.284 100.648 348.596 100.376 347.764 100.152C346.932 99.928 346.068 99.72 345.172 99.528C344.18 99.304 343.108 99.032 341.956 98.712C340.804 98.392 339.732 97.944 338.74 97.368C337.748 96.76 336.916 95.992 336.244 95.064C335.572 94.104 335.236 92.888 335.236 91.416C335.236 89.592 335.7 87.928 336.628 86.424C337.556 84.92 338.884 83.688 340.612 82.728C342.34 81.768 344.18 81.224 346.132 81.096C348.116 80.936 349.908 81.224 351.508 81.96C351.892 81.608 352.34 81.352 352.852 81.192C353.396 81.032 353.956 81.016 354.532 81.144Z" fill="#D2402D"/>
</g>
<defs>
<filter id="filter0_f_85_79" x="89.592" y="73.856" width="268.676" height="38.384" filterUnits="userSpaceOnUse" color-interpolation-filters="sRGB">
<feFlood flood-opacity="0" result="BackgroundImageFix"/>
<feBlend mode="normal" in="SourceGraphic" in2="BackgroundImageFix" result="shape"/>
<feGaussianBlur stdDeviation="0.5" result="effect1_foregroundBlur_85_79"/>
</filter>
</defs>
</svg>
