<svg width="1280" height="695" viewBox="0 0 1280 695" fill="none" xmlns="http://www.w3.org/2000/svg">
<path d="M170.425 342.85C93.95 342.85 49.15 296.3 49.15 214.925V212.475C49.15 131.1 93.95 84.55 170.425 84.55C246.9 84.55 291.7 131.1 291.7 212.475V214.925C291.7 296.3 246.9 342.85 170.425 342.85ZM170.425 291.75C210.85 291.75 225.55 261.475 225.55 214.925V212.475C225.55 165.925 210.85 135.65 170.425 135.65C129.825 135.65 115.3 165.925 115.3 212.475V214.925C115.3 261.475 129.825 291.75 170.425 291.75ZM409.109 342.85C332.634 342.85 287.834 296.3 287.834 214.925V212.475C287.834 131.1 332.634 84.55 409.109 84.55C485.584 84.55 530.384 131.1 530.384 212.475V214.925C530.384 296.3 485.584 342.85 409.109 342.85ZM409.109 291.75C449.534 291.75 464.234 261.475 464.234 214.925V212.475C464.234 165.925 449.534 135.65 409.109 135.65C368.509 135.65 353.984 165.925 353.984 212.475V214.925C353.984 261.475 368.509 291.75 409.109 291.75ZM594.447 140.55H513.947V88.4H739.697V140.55H659.197V339H594.447V140.55ZM914.063 207.925C939.263 215.625 955.888 233.825 955.888 267.95C955.888 321.15 917.388 339 859.638 339H738.713V88.4H856.313C911.438 88.4 949.588 103.1 949.588 154.025C949.588 182.725 935.413 200.225 914.063 207.925ZM850.363 136.525H802.763V190.425H854.213C874.513 190.425 885.713 183.775 885.713 163.475C885.713 141.775 872.938 136.525 850.363 136.525ZM854.563 290.875C877.663 290.875 891.663 284.925 891.663 262C891.663 240.475 878.713 233.65 856.313 233.65H802.763V290.875H854.563ZM1136.81 88.4H1206.98V339H1146.78V189.55L1080.63 342.675L1013.96 187.625V339H956.205V88.4H1024.63L1080.81 220L1136.81 88.4Z" fill="#BB3928"/>
<path d="M-73.575 602.85C-150.05 602.85 -194.85 556.3 -194.85 474.925V472.475C-194.85 391.1 -150.05 344.55 -73.575 344.55C2.90001 344.55 47.7 391.1 47.7 472.475V474.925C47.7 556.3 2.90001 602.85 -73.575 602.85ZM-73.575 551.75C-33.15 551.75 -18.45 521.475 -18.45 474.925V472.475C-18.45 425.925 -33.15 395.65 -73.575 395.65C-114.175 395.65 -128.7 425.925 -128.7 472.475V474.925C-128.7 521.475 -114.175 551.75 -73.575 551.75ZM49.0918 348.4H113.842V501.7C113.842 536.175 126.092 551.75 157.592 551.75C189.267 551.75 201.517 536.175 201.517 501.7V348.4H264.867V503.45C264.867 569.6 226.717 602.85 157.067 602.85C87.2418 602.85 49.0918 569.6 49.0918 503.45V348.4ZM342.586 400.55H262.086V348.4H487.836V400.55H407.336V599H342.586V400.55ZM655.573 602.85C579.098 602.85 534.298 556.3 534.298 474.925V472.475C534.298 391.1 579.098 344.55 655.573 344.55C732.048 344.55 776.848 391.1 776.848 472.475V474.925C776.848 556.3 732.048 602.85 655.573 602.85ZM655.573 551.75C695.998 551.75 710.698 521.475 710.698 474.925V472.475C710.698 425.925 695.998 395.65 655.573 395.65C614.973 395.65 600.448 425.925 600.448 472.475V474.925C600.448 521.475 614.973 551.75 655.573 551.75ZM779.99 348.4H968.29V400.025H844.74V447.8H962.34V498.55H844.74V599H779.99V348.4ZM1093.72 400.55H1013.22V348.4H1238.97V400.55H1158.47V599H1093.72V400.55ZM1237.98 348.4H1302.73V446.4H1389.18V348.4H1453.76V599H1389.18V497.85H1302.73V599H1237.98V348.4ZM1528.41 547.55H1653.71V599H1464.36V348.4H1652.66V399.85H1528.41V447.625H1646.89V496.8H1528.41V547.55ZM1890.47 467.925C1915.67 475.625 1932.29 493.825 1932.29 527.95C1932.29 581.15 1893.79 599 1836.04 599H1715.12V348.4H1832.72C1887.84 348.4 1925.99 363.1 1925.99 414.025C1925.99 442.725 1911.82 460.225 1890.47 467.925ZM1826.77 396.525H1779.17V450.425H1830.62C1850.92 450.425 1862.12 443.775 1862.12 423.475C1862.12 401.775 1849.34 396.525 1826.77 396.525ZM1830.97 550.875C1854.07 550.875 1868.07 544.925 1868.07 522C1868.07 500.475 1855.12 493.65 1832.72 493.65H1779.17V550.875H1830.97ZM2046.54 602.85C1970.06 602.85 1925.26 556.3 1925.26 474.925V472.475C1925.26 391.1 1970.06 344.55 2046.54 344.55C2123.01 344.55 2167.81 391.1 2167.81 472.475V474.925C2167.81 556.3 2123.01 602.85 2046.54 602.85ZM2046.54 551.75C2086.96 551.75 2101.66 521.475 2101.66 474.925V472.475C2101.66 425.925 2086.96 395.65 2046.54 395.65C2005.94 395.65 1991.41 425.925 1991.41 472.475V474.925C1991.41 521.475 2005.94 551.75 2046.54 551.75ZM2375.68 599H2304.63L2255.8 510.8L2206.8 599H2138.03L2215.55 470.725L2141.88 348.4H2212.75L2258.08 430.65L2303.23 348.4H2372.35L2298.33 470.725L2375.68 599ZM2612.9 348.4H2683.08V599H2622.88V449.55L2556.73 602.675L2490.05 447.625V599H2432.3V348.4H2500.73L2556.9 480L2612.9 348.4ZM2757.6 547.55H2882.9V599H2693.55V348.4H2881.85V399.85H2757.6V447.625H2876.07V496.8H2757.6V547.55ZM2982.86 348.4C3059.86 348.4 3110.96 385.325 3110.96 470.55V476.85C3110.96 562.075 3060.04 599 2982.69 599H2886.09V348.4H2982.86ZM3044.81 476.675V470.725C3044.81 418.75 3024.51 400.025 2980.41 400.025H2950.84V547.375H2980.41C3024.51 547.375 3044.81 528.65 3044.81 476.675ZM3113.83 348.4H3178.58V599H3113.83V348.4ZM3366.06 599L3349.79 549.475H3251.96L3235.69 599H3172.51L3263.34 348.4H3340.69L3431.51 599H3366.06ZM3267.19 502.925H3334.39L3300.79 400.55L3267.19 502.925Z" fill="black"/>
</svg>
