<svg width="517" height="160" viewBox="0 0 517 160" fill="none" xmlns="http://www.w3.org/2000/svg">
<path d="M36.048 94.056C15.072 94.056 2.784 81.288 2.784 58.968V58.296C2.784 35.976 15.072 23.208 36.048 23.208C57.024 23.208 69.312 35.976 69.312 58.296V58.968C69.312 81.288 57.024 94.056 36.048 94.056ZM36.048 80.04C47.136 80.04 51.168 71.736 51.168 58.968V58.296C51.168 45.528 47.136 37.224 36.048 37.224C24.912 37.224 20.928 45.528 20.928 58.296V58.968C20.928 71.736 24.912 80.04 36.048 80.04ZM99.7417 45H116.158V93H100.366L100.318 85.512C97.7737 90.648 92.9738 94.056 85.8697 94.056C75.0697 94.056 69.3577 87.096 69.3577 76.92V45H85.8218V74.952C85.8218 78.744 87.3578 81.48 92.1098 81.48C97.3417 81.48 99.7417 77.784 99.7417 73.368V45ZM145.031 45H149.399V58.968H142.871C136.439 58.968 134.183 63.048 134.183 68.52V93H117.719V45H133.559L133.607 53.832C135.527 47.88 139.463 45 145.031 45ZM192.862 94.056C173.614 94.056 161.662 86.76 160.99 68.136H177.694C178.078 78.024 183.646 81.192 192.91 81.192C201.07 81.192 204.958 78.552 204.958 73.416C204.958 69.336 202.942 67.608 197.374 66.264C191.806 64.872 182.83 64.056 175.39 61.656C167.95 59.256 163.102 54.408 163.102 44.376V44.28C163.102 30.84 173.758 23.208 190.99 23.208C209.422 23.208 220.222 30.552 220.99 47.496H204.382C203.758 38.952 199.342 36.072 191.134 36.072C184.414 36.072 180.67 38.52 180.67 42.888C180.67 46.584 182.35 48.264 187.966 49.608C193.582 51 203.134 51.912 210.43 54.312C217.678 56.712 222.574 61.512 222.574 71.64V71.736C222.574 86.184 211.102 94.056 192.862 94.056ZM268.864 68.088V71.928H236.272C236.272 78.552 238.528 83.016 245.152 83.016C250.384 83.016 252.688 80.04 253.024 76.2H268.768C268.096 87.336 259.264 94.056 244.864 94.056C228.928 94.056 219.904 85.272 219.904 69.336V68.76C219.904 52.632 229.264 43.944 244.768 43.944C259.264 43.944 268.864 52.152 268.864 68.088ZM244.672 54.456C239.152 54.456 236.8 57.624 236.368 63.144H252.64C252.208 57.576 249.904 54.456 244.672 54.456ZM295.714 45H300.082V58.968H293.554C287.122 58.968 284.866 63.048 284.866 68.52V93H268.402V45H284.242L284.29 53.832C286.21 47.88 290.146 45 295.714 45ZM328.009 45H344.473L328.969 93H309.673L294.217 45H311.305L319.609 77.832L328.009 45ZM342.149 38.808V24.984H358.613V38.808H342.149ZM342.149 93V45H358.613V93H342.149ZM382.931 94.056C368.339 94.056 358.211 85.128 358.211 69.432V68.568C358.211 52.92 368.339 43.944 382.931 43.944C396.323 43.944 406.595 51.144 407.267 64.968H390.851C390.419 59.688 388.019 56.184 383.219 56.184C377.363 56.184 374.915 60.984 374.915 68.856V69.144C374.915 76.92 377.363 81.816 383.219 81.816C388.163 81.816 390.563 78.024 390.947 72.456H407.267C406.835 86.568 396.419 94.056 382.931 94.056ZM453.795 68.088V71.928H421.203C421.203 78.552 423.459 83.016 430.083 83.016C435.315 83.016 437.619 80.04 437.955 76.2H453.699C453.027 87.336 444.195 94.056 429.795 94.056C413.859 94.056 404.835 85.272 404.835 69.336V68.76C404.835 52.632 414.195 43.944 429.699 43.944C444.195 43.944 453.795 52.152 453.795 68.088ZM429.603 54.456C424.083 54.456 421.731 57.624 421.299 63.144H437.571C437.139 57.576 434.835 54.456 429.603 54.456ZM474.837 94.056C460.341 94.056 451.509 89.448 450.789 76.2H464.997C465.381 82.2 469.077 83.688 474.789 83.688C480.117 83.688 482.421 82.2 482.421 79.32C482.421 76.968 480.789 76.104 477.093 75.336C472.965 74.424 466.725 73.848 461.301 72.264C455.589 70.536 451.989 66.792 451.989 59.832V59.736C451.989 49.56 460.245 43.944 473.397 43.944C487.653 43.944 495.861 48.84 496.581 60.648H482.373C481.893 55.896 478.965 54.264 473.973 54.264C469.605 54.264 467.397 55.512 467.397 58.104C467.397 60.264 468.933 61.176 472.629 61.896C476.805 62.76 483.333 63.576 488.517 65.064C494.229 66.744 497.829 70.392 497.829 77.544V77.64C497.829 88.44 488.805 94.056 474.837 94.056Z" fill="black"/>
<g filter="url(#filter0_f_92_11)">
<path d="M84.272 92.44C85.2 92.44 85.984 92.76 86.624 93.4C87.296 94.04 87.632 94.824 87.632 95.752C87.632 96.68 87.312 97.464 86.672 98.104C86.032 98.744 85.248 99.08 84.32 99.112H83.936C82.656 99.112 81.488 99.064 80.432 98.968C79.408 98.872 78.432 98.76 77.504 98.632C77.44 99.656 77.376 100.872 77.312 102.28C77.248 103.656 77.216 105.16 77.216 106.792C77.248 108.392 77.312 110.088 77.408 111.88C77.504 113.64 77.68 115.432 77.936 117.256C78.064 118.184 77.84 119.016 77.264 119.752C76.72 120.456 76 120.872 75.104 121C75.008 121 74.912 121 74.816 121C74.752 121.032 74.688 121.048 74.624 121.048C73.792 121.048 73.056 120.776 72.416 120.232C71.808 119.688 71.456 118.984 71.36 118.12C71.072 116.104 70.864 114.12 70.736 112.168C70.64 110.184 70.592 108.312 70.592 106.552C70.592 104.76 70.624 103.128 70.688 101.656C70.752 100.152 70.816 98.856 70.88 97.768C69.28 97.672 67.44 97.832 65.36 98.248C64.432 98.44 63.584 98.296 62.816 97.816C62.08 97.304 61.616 96.6 61.424 95.704C61.232 94.776 61.392 93.928 61.904 93.16C62.384 92.392 63.072 91.928 63.968 91.768C65.312 91.48 66.528 91.288 67.616 91.192C68.736 91.096 69.776 91.064 70.736 91.096C71.728 91.128 72.672 91.208 73.568 91.336C74.464 91.464 75.36 91.592 76.256 91.72C77.408 91.912 78.608 92.088 79.856 92.248C81.136 92.408 82.608 92.472 84.272 92.44ZM105.393 107.272C106.097 107.624 106.625 108.184 106.977 108.952C107.361 109.688 107.425 110.456 107.169 111.256C106.913 112.12 106.449 112.776 105.777 113.224C105.841 114.344 105.873 115.416 105.873 116.44C105.873 117.432 105.841 118.312 105.777 119.08C105.713 120.008 105.345 120.76 104.673 121.336C104.033 121.944 103.265 122.248 102.369 122.248H102.081C101.153 122.152 100.369 121.736 99.7288 121C99.1208 120.296 98.8488 119.48 98.9128 118.552C99.0728 117.048 99.0728 115.128 98.9128 112.792C97.5048 112.536 96.0968 112.328 94.6888 112.168C93.2808 111.976 91.9368 111.88 90.6568 111.88C90.8808 112.712 91.1048 113.48 91.3288 114.184C91.5528 114.888 91.7928 115.48 92.0488 115.96C92.4648 116.792 92.5288 117.672 92.2408 118.6C91.9848 119.496 91.4408 120.152 90.6088 120.568C90.0968 120.824 89.5688 120.952 89.0247 120.952C88.3848 120.952 87.7928 120.792 87.2488 120.472C86.7048 120.152 86.2888 119.688 86.0008 119.08C85.5528 118.248 85.1368 117.24 84.7528 116.056C84.3688 114.872 84.0328 113.56 83.7448 112.12C83.2968 111.928 82.9128 111.656 82.5928 111.304C82.2728 110.92 82.0327 110.472 81.8727 109.96C81.6807 109.32 81.6807 108.696 81.8727 108.088C82.0327 107.48 82.3368 106.952 82.7848 106.504C82.5928 105.224 82.4328 103.96 82.3048 102.712C82.2088 101.432 82.1288 100.248 82.0648 99.16C82.0328 98.04 82.0168 97.032 82.0168 96.136C82.0488 95.208 82.1288 94.44 82.2568 93.832C82.3208 93.384 82.4648 92.968 82.6888 92.584C82.9448 92.2 83.2488 91.896 83.6008 91.672C83.9848 91.416 84.3848 91.24 84.8008 91.144C85.2488 91.016 85.7128 90.984 86.1928 91.048C87.1208 91.208 87.8568 91.672 88.4008 92.44C88.9448 93.208 89.1368 94.056 88.9768 94.984C88.8168 95.816 88.7848 97.16 88.8808 99.016C88.9768 100.872 89.1688 102.888 89.4568 105.064C90.9288 105.032 92.4168 105.08 93.9208 105.208C95.4248 105.336 96.8968 105.528 98.3368 105.784C98.1448 103.736 97.9368 101.832 97.7128 100.072C97.4888 98.28 97.3128 96.872 97.1848 95.848C97.1208 95.368 97.1368 94.92 97.2328 94.504C97.3608 94.056 97.5528 93.672 97.8088 93.352C98.0648 93 98.3848 92.712 98.7688 92.488C99.1528 92.232 99.5848 92.072 100.065 92.008C100.993 91.848 101.825 92.056 102.561 92.632C103.297 93.208 103.745 93.96 103.905 94.888C103.905 94.984 103.953 95.4 104.049 96.136C104.177 96.872 104.305 97.816 104.433 98.968C104.593 100.088 104.753 101.368 104.913 102.808C105.073 104.248 105.233 105.736 105.393 107.272ZM112.226 106.504C112.13 108.424 112.066 110.232 112.034 111.928C112.002 113.592 112.21 115.192 112.658 116.728C112.914 117.624 112.818 118.472 112.37 119.272C111.922 120.072 111.25 120.6 110.354 120.856C110.194 120.888 110.034 120.92 109.874 120.952C109.746 120.952 109.602 120.952 109.442 120.952C108.706 120.952 108.034 120.728 107.426 120.28C106.85 119.832 106.45 119.24 106.226 118.504C105.618 116.424 105.314 114.376 105.314 112.36C105.346 110.312 105.426 108.216 105.554 106.072C105.618 104.856 105.682 103.64 105.746 102.424C105.81 101.176 105.81 99.88 105.746 98.536C105.714 97.608 106.002 96.824 106.61 96.184C107.25 95.512 108.034 95.144 108.962 95.08C109.89 95.016 110.69 95.304 111.362 95.944C112.034 96.552 112.402 97.32 112.466 98.248C112.53 99.72 112.53 101.144 112.466 102.52C112.402 103.864 112.322 105.192 112.226 106.504ZM109.25 94.024C108.322 93.992 107.538 93.64 106.898 92.968C106.258 92.296 105.954 91.496 105.986 90.568L106.082 88.12C106.114 87.224 106.466 86.456 107.138 85.816C107.842 85.176 108.658 84.872 109.586 84.904C110.482 84.968 111.234 85.336 111.842 86.008C112.482 86.68 112.786 87.48 112.754 88.408L112.658 90.808C112.626 91.736 112.29 92.52 111.65 93.16C111.01 93.768 110.258 94.072 109.394 94.072C109.298 94.072 109.25 94.056 109.25 94.024ZM129.575 91.912C130.471 91.56 131.335 91.592 132.167 92.008C132.999 92.424 133.575 93.064 133.895 93.928C134.535 95.688 135.031 97.496 135.383 99.352C135.735 101.176 135.975 102.968 136.103 104.728C136.263 106.456 136.327 108.104 136.295 109.672C136.295 111.24 136.263 112.616 136.199 113.8C136.135 114.984 136.055 115.944 135.959 116.68C135.863 117.416 135.815 117.832 135.815 117.928C135.719 118.664 135.415 119.288 134.903 119.8C134.391 120.312 133.767 120.632 133.031 120.76C132.295 120.888 131.607 120.792 130.967 120.472C130.327 120.12 129.831 119.624 129.479 118.984C128.647 117.384 127.767 115.752 126.839 114.088C125.911 112.392 124.983 110.76 124.055 109.192C123.127 107.624 122.231 106.152 121.367 104.776C120.503 103.368 119.703 102.136 118.967 101.08C118.903 102.36 118.887 103.752 118.919 105.256C118.951 106.76 118.999 108.248 119.063 109.72C119.159 111.192 119.271 112.6 119.399 113.944C119.527 115.256 119.671 116.376 119.831 117.304C119.991 118.232 119.799 119.08 119.255 119.848C118.711 120.584 117.975 121.032 117.047 121.192C116.951 121.192 116.855 121.192 116.759 121.192C116.663 121.224 116.583 121.24 116.519 121.24C115.687 121.24 114.951 120.984 114.311 120.472C113.703 119.928 113.335 119.24 113.207 118.408C113.143 117.96 113.047 117.192 112.919 116.104C112.791 115.016 112.663 113.736 112.535 112.264C112.439 110.792 112.359 109.208 112.295 107.512C112.199 105.784 112.167 104.088 112.199 102.424C112.231 100.76 112.343 99.192 112.535 97.72C112.727 96.216 113.015 94.936 113.399 93.88C113.687 93.08 114.135 92.44 114.743 91.96C115.383 91.48 116.119 91.208 116.951 91.144C117.623 91.112 118.311 91.256 119.015 91.576C119.719 91.864 120.519 92.472 121.415 93.4C122.343 94.328 123.415 95.656 124.631 97.384C125.847 99.112 127.287 101.368 128.951 104.152C129.015 104.312 129.079 104.456 129.143 104.584C129.239 104.68 129.319 104.792 129.383 104.92C129.255 103.48 129.047 102.024 128.759 100.552C128.471 99.048 128.071 97.608 127.559 96.232C127.239 95.368 127.271 94.52 127.655 93.688C128.071 92.824 128.711 92.232 129.575 91.912ZM151.345 104.392C152.817 105.416 154.305 106.84 155.809 108.664C157.345 110.488 158.881 112.872 160.417 115.816C160.609 116.232 160.721 116.68 160.753 117.16C160.785 117.608 160.721 118.04 160.561 118.456C160.433 118.872 160.225 119.256 159.937 119.608C159.649 119.96 159.297 120.248 158.881 120.472C158.625 120.632 158.353 120.744 158.065 120.808C157.809 120.84 157.553 120.856 157.297 120.856C156.657 120.856 156.049 120.696 155.473 120.376C154.929 120.056 154.497 119.592 154.177 118.984C153.025 116.744 151.905 114.936 150.817 113.56C149.729 112.184 148.689 111.128 147.697 110.392C146.737 109.624 145.857 109.128 145.057 108.904C144.257 108.648 143.601 108.568 143.089 108.664C143.569 111.352 144.481 113.656 145.825 115.576C146.369 116.376 146.545 117.24 146.353 118.168C146.161 119.096 145.665 119.832 144.865 120.376C144.321 120.792 143.681 121 142.945 121C142.369 121 141.825 120.872 141.313 120.616C140.833 120.36 140.417 119.976 140.065 119.464C139.201 118.184 138.449 116.76 137.809 115.192C137.169 113.624 136.673 111.992 136.321 110.296C135.969 108.568 135.761 106.808 135.697 105.016C135.665 103.224 135.825 101.464 136.177 99.736C135.537 99.64 134.945 99.384 134.401 98.968C133.889 98.52 133.521 97.944 133.297 97.24C133.041 96.312 133.137 95.432 133.585 94.6C134.033 93.768 134.721 93.208 135.649 92.92C136.257 92.728 136.865 92.536 137.473 92.344C138.081 92.12 138.625 91.912 139.105 91.72C139.617 91.528 140.017 91.368 140.305 91.24C140.625 91.08 140.785 91 140.785 91C141.521 90.712 142.257 90.664 142.993 90.856C143.761 91.016 144.385 91.4 144.865 92.008C145.377 92.616 145.633 93.32 145.633 94.12C145.665 94.888 145.457 95.592 145.009 96.232C144.465 96.968 144.017 97.784 143.665 98.68C143.345 99.576 143.105 100.52 142.945 101.512C143.425 101.288 143.985 101.016 144.625 100.696C145.265 100.344 145.857 99.944 146.401 99.496C146.945 99.048 147.409 98.552 147.793 98.008C148.177 97.464 148.369 96.888 148.369 96.28C148.369 95.32 148.705 94.504 149.377 93.832C150.081 93.128 150.913 92.776 151.873 92.776C152.801 92.776 153.601 93.128 154.273 93.832C154.977 94.504 155.329 95.32 155.329 96.28C155.329 98.008 154.945 99.544 154.177 100.888C153.409 102.2 152.465 103.368 151.345 104.392ZM175.503 118.792C175.599 118.792 175.647 118.824 175.647 118.888V119.032C175.615 119.064 175.567 119.08 175.503 119.08H175.407C175.311 119.048 175.263 119 175.263 118.936C175.263 118.936 175.279 118.904 175.311 118.84C175.375 118.808 175.439 118.792 175.503 118.792ZM180.399 120.808C180.463 120.808 180.527 120.84 180.591 120.904V121.048C180.591 121.048 180.575 121.064 180.543 121.096H180.495C180.495 121.192 180.447 121.192 180.351 121.096H180.303C180.271 121.064 180.255 121 180.255 120.904C180.255 120.84 180.303 120.808 180.399 120.808ZM196.959 110.248C197.279 112.168 197.071 113.912 196.335 115.48C195.599 117.016 194.415 118.28 192.783 119.272C191.759 119.848 190.639 120.28 189.423 120.568C188.239 120.856 186.975 121 185.631 121C183.999 121 182.367 120.808 180.735 120.424C180.671 120.424 180.639 120.456 180.639 120.52C180.543 120.584 180.431 120.664 180.303 120.76C180.207 120.856 180.079 120.904 179.919 120.904H179.871V120.952C179.871 121.016 179.855 121.048 179.823 121.048C179.791 121.048 179.759 121.064 179.727 121.096C179.727 121.16 179.727 121.24 179.727 121.336C179.759 121.432 179.775 121.512 179.775 121.576V121.816C179.807 121.976 179.823 122.12 179.823 122.248C179.855 122.408 179.839 122.552 179.775 122.68C179.615 122.936 179.407 123.064 179.151 123.064C179.055 123.064 178.959 123.048 178.863 123.016C178.703 123.016 178.591 122.936 178.527 122.776C178.495 122.616 178.479 122.456 178.479 122.296H178.431C178.431 122.264 178.447 122.232 178.479 122.2C178.479 122.2 178.479 122.168 178.479 122.104C178.479 122.072 178.495 122.056 178.527 122.056L178.479 122.008C178.479 121.976 178.463 121.96 178.431 121.96C178.431 121.96 178.431 121.944 178.431 121.912C178.399 121.912 178.383 121.864 178.383 121.768C178.319 121.672 178.271 121.512 178.239 121.288C178.239 121.064 178.255 120.824 178.287 120.568C178.287 120.568 178.271 120.552 178.239 120.52V120.472V120.424C178.239 120.36 178.271 120.312 178.335 120.28C178.335 120.12 178.319 119.992 178.287 119.896V119.8C178.063 119.8 177.951 120.104 177.951 120.712C177.983 120.84 177.999 121.016 177.999 121.24V121.336V121.432C177.999 121.752 177.999 122.056 177.999 122.344C177.999 122.664 178.015 122.984 178.047 123.304C178.047 123.432 178.063 123.512 178.095 123.544C178.159 123.896 178.143 124.184 178.047 124.408C177.951 124.664 177.759 124.792 177.471 124.792H177.183C177.023 124.76 176.911 124.664 176.847 124.504C176.783 124.376 176.751 124.232 176.751 124.072V124.024V123.928V123.832C176.751 123.832 176.767 123.816 176.799 123.784L176.751 123.736V123.64C176.719 123.64 176.703 123.608 176.703 123.544C176.639 123.416 176.591 123.24 176.559 123.016C176.559 122.792 176.575 122.552 176.607 122.296C176.607 122.264 176.607 122.232 176.607 122.2C176.639 122.168 176.655 122.136 176.655 122.104C176.655 121.976 176.639 121.848 176.607 121.72C176.607 121.624 176.607 121.512 176.607 121.384V120.904V120.76C176.607 120.44 176.575 120.248 176.511 120.184C176.479 120.216 176.415 120.264 176.319 120.328H176.367V120.376C176.367 120.472 176.351 120.52 176.319 120.52C176.255 120.584 176.207 120.616 176.175 120.616C176.143 120.616 176.127 120.6 176.127 120.568C176.031 120.504 175.999 120.44 176.031 120.376C176.031 120.312 176.063 120.28 176.127 120.28V120.184V120.136C176.127 120.104 176.175 120.056 176.271 119.992C176.239 119.928 176.159 119.864 176.031 119.8C175.999 119.8 175.967 119.8 175.935 119.8C175.935 119.768 175.919 119.752 175.887 119.752C175.887 119.72 175.871 119.688 175.839 119.656C175.807 119.656 175.791 119.624 175.791 119.56C175.791 119.528 175.775 119.512 175.743 119.512C175.743 119.512 175.743 119.496 175.743 119.464V119.416C175.711 119.32 175.695 119.224 175.695 119.128C175.695 118.936 175.711 118.824 175.743 118.792C175.775 118.728 175.791 118.696 175.791 118.696C175.823 118.664 175.855 118.616 175.887 118.552C174.831 118.008 173.919 117.416 173.151 116.776C172.383 116.168 171.935 115.4 171.807 114.472C171.679 113.512 171.919 112.648 172.527 111.88C173.007 111.24 173.615 110.824 174.351 110.632C175.087 110.44 175.807 110.472 176.511 110.728C176.063 108.712 175.727 106.632 175.503 104.488C175.279 102.344 175.199 100.424 175.263 98.728C174.367 98.984 173.503 98.92 172.671 98.536C171.839 98.12 171.263 97.464 170.943 96.568C170.591 95.64 170.623 94.744 171.039 93.88C171.455 93.016 172.111 92.408 173.007 92.056C173.167 91.992 173.551 91.864 174.159 91.672C174.767 91.48 175.503 91.288 176.367 91.096C177.263 90.872 178.255 90.696 179.343 90.568C180.463 90.408 181.599 90.344 182.751 90.376C183.903 90.376 185.039 90.504 186.159 90.76C187.311 90.984 188.383 91.384 189.375 91.96C191.807 93.464 193.263 95.752 193.743 98.824C193.903 99.976 193.871 100.984 193.647 101.848C193.423 102.68 193.135 103.416 192.783 104.056C193.839 104.728 194.735 105.576 195.471 106.6C196.239 107.592 196.735 108.808 196.959 110.248ZM182.367 97.336C182.303 97.88 182.255 98.504 182.223 99.208C182.223 99.88 182.239 100.632 182.271 101.464C182.527 101.464 182.783 101.464 183.039 101.464C183.295 101.464 183.551 101.48 183.807 101.512C184.479 101.448 185.071 101.336 185.583 101.176C186.095 101.016 186.463 100.824 186.687 100.6C186.719 100.568 186.751 100.504 186.783 100.408C186.847 100.312 186.847 100.104 186.783 99.784C186.719 99.208 186.575 98.808 186.351 98.584C186.159 98.328 185.967 98.136 185.775 98.008C185.359 97.752 184.863 97.576 184.287 97.48C183.711 97.384 183.071 97.336 182.367 97.336ZM189.231 113.224C189.615 113 189.855 112.744 189.951 112.456C190.079 112.168 190.111 111.8 190.047 111.352C189.983 110.936 189.743 110.568 189.327 110.248C188.943 109.896 188.447 109.608 187.839 109.384C187.263 109.16 186.607 108.984 185.871 108.856C185.167 108.696 184.463 108.584 183.759 108.52C183.631 108.552 183.439 108.568 183.183 108.568C183.439 109.784 183.711 110.872 183.999 111.832C184.287 112.76 184.575 113.448 184.863 113.896C184.895 113.896 184.911 113.912 184.911 113.944C185.775 114.008 186.575 113.976 187.311 113.848C188.079 113.72 188.719 113.512 189.231 113.224ZM202.038 106.504C201.942 108.424 201.878 110.232 201.846 111.928C201.814 113.592 202.022 115.192 202.47 116.728C202.726 117.624 202.63 118.472 202.182 119.272C201.734 120.072 201.062 120.6 200.166 120.856C200.006 120.888 199.846 120.92 199.686 120.952C199.558 120.952 199.414 120.952 199.254 120.952C198.518 120.952 197.846 120.728 197.238 120.28C196.662 119.832 196.262 119.24 196.038 118.504C195.43 116.424 195.126 114.376 195.126 112.36C195.158 110.312 195.238 108.216 195.366 106.072C195.43 104.856 195.494 103.64 195.558 102.424C195.622 101.176 195.622 99.88 195.558 98.536C195.526 97.608 195.814 96.824 196.422 96.184C197.062 95.512 197.846 95.144 198.774 95.08C199.702 95.016 200.502 95.304 201.174 95.944C201.846 96.552 202.214 97.32 202.278 98.248C202.342 99.72 202.342 101.144 202.278 102.52C202.214 103.864 202.134 105.192 202.038 106.504ZM199.062 94.024C198.134 93.992 197.35 93.64 196.71 92.968C196.07 92.296 195.766 91.496 195.798 90.568L195.894 88.12C195.926 87.224 196.278 86.456 196.95 85.816C197.654 85.176 198.47 84.872 199.398 84.904C200.294 84.968 201.046 85.336 201.654 86.008C202.294 86.68 202.598 87.48 202.566 88.408L202.47 90.808C202.438 91.736 202.102 92.52 201.462 93.16C200.822 93.768 200.07 94.072 199.206 94.072C199.11 94.072 199.062 94.056 199.062 94.024ZM221.947 105.304C222.843 105.304 223.611 105.608 224.251 106.216C224.923 106.824 225.291 107.576 225.355 108.472C225.355 108.632 225.355 109.032 225.355 109.672C225.355 110.28 225.259 111.032 225.067 111.928C224.875 112.792 224.555 113.736 224.107 114.76C223.691 115.752 223.051 116.696 222.187 117.592C221.835 117.976 221.387 118.376 220.843 118.792C220.331 119.176 219.723 119.528 219.019 119.848C218.315 120.168 217.499 120.44 216.571 120.664C215.675 120.856 214.667 120.952 213.547 120.952C211.243 120.952 209.179 120.296 207.355 118.984C205.563 117.672 204.123 115.816 203.035 113.416C202.331 111.848 201.835 110.2 201.547 108.472C201.291 106.712 201.243 105 201.403 103.336C201.563 101.672 201.915 100.104 202.459 98.632C203.035 97.128 203.803 95.848 204.763 94.792C206.107 93.288 207.595 92.216 209.227 91.576C210.891 90.936 212.603 90.76 214.363 91.048C215.675 91.24 216.907 91.672 218.059 92.344C218.507 91.8 219.067 91.416 219.739 91.192C220.443 90.968 221.163 90.984 221.899 91.24C222.795 91.56 223.435 92.136 223.819 92.968C224.235 93.8 224.299 94.664 224.011 95.56C223.915 95.816 223.867 96.136 223.867 96.52C223.867 96.872 223.883 97.24 223.915 97.624C223.979 98.008 224.043 98.376 224.107 98.728C224.203 99.048 224.283 99.304 224.347 99.496C224.667 100.36 224.635 101.208 224.251 102.04C223.867 102.872 223.259 103.464 222.427 103.816C221.595 104.168 220.747 104.168 219.883 103.816C219.019 103.464 218.395 102.856 218.011 101.992C217.531 100.872 216.859 99.928 215.995 99.16C215.131 98.392 214.251 97.944 213.355 97.816C213.099 97.752 212.667 97.768 212.059 97.864C211.451 97.928 210.731 98.424 209.899 99.352C209.387 99.928 208.987 100.664 208.699 101.56C208.411 102.456 208.235 103.416 208.171 104.44C208.139 105.464 208.203 106.52 208.363 107.608C208.555 108.696 208.859 109.704 209.275 110.632C209.467 111.048 209.691 111.464 209.947 111.88C210.203 112.296 210.507 112.68 210.859 113.032C211.211 113.352 211.611 113.624 212.059 113.848C212.507 114.04 213.003 114.136 213.547 114.136C215.243 114.136 216.475 113.72 217.243 112.888C217.339 112.792 217.435 112.68 217.531 112.552C217.627 112.424 217.707 112.296 217.771 112.168H215.515C214.555 112.168 213.739 111.848 213.067 111.208C212.427 110.536 212.091 109.736 212.059 108.808C212.059 107.848 212.379 107.032 213.019 106.36C213.691 105.688 214.507 105.352 215.467 105.352L221.899 105.304H221.947ZM229.058 114.328C229.538 114.328 229.986 114.424 230.402 114.616C230.818 114.776 231.186 115 231.506 115.288C232.178 116.024 232.514 116.856 232.514 117.784C232.514 118.712 232.178 119.512 231.506 120.184C230.834 120.856 230.018 121.192 229.058 121.192C228.13 121.192 227.33 120.856 226.658 120.184C225.986 119.512 225.65 118.712 225.65 117.784C225.65 116.856 225.986 116.024 226.658 115.288C226.978 115 227.346 114.776 227.762 114.616C228.178 114.424 228.61 114.328 229.058 114.328ZM261.943 105.352C262.839 105.832 263.559 106.376 264.103 106.984C264.679 107.592 265.127 108.216 265.447 108.856C265.767 109.464 265.975 110.088 266.071 110.728C266.167 111.336 266.215 111.896 266.215 112.408C266.183 113.56 265.959 114.648 265.543 115.672C265.159 116.664 264.615 117.56 263.911 118.36C263.207 119.128 262.359 119.768 261.367 120.28C260.407 120.792 259.335 121.128 258.151 121.288C257.863 121.352 257.575 121.384 257.287 121.384C257.031 121.384 256.759 121.384 256.471 121.384C256.055 121.384 255.623 121.368 255.175 121.336C254.727 121.304 254.295 121.224 253.879 121.096V121.384V121.432V121.528C253.879 121.848 253.879 122.152 253.879 122.44C253.879 122.728 253.895 123.032 253.927 123.352V123.64C253.959 123.736 253.975 123.864 253.975 124.024C253.975 124.184 253.943 124.312 253.879 124.408C253.783 124.664 253.591 124.792 253.303 124.792C253.175 124.792 253.079 124.776 253.015 124.744C252.887 124.712 252.791 124.616 252.727 124.456C252.663 124.328 252.647 124.2 252.679 124.072C252.679 124.04 252.663 124.024 252.631 124.024C252.631 123.96 252.647 123.928 252.679 123.928C252.679 123.928 252.679 123.896 252.679 123.832V123.736C252.679 123.704 252.663 123.688 252.631 123.688V123.592C252.567 123.464 252.519 123.288 252.487 123.064C252.487 122.872 252.503 122.648 252.535 122.392C252.535 122.328 252.535 122.28 252.535 122.248C252.567 122.248 252.583 122.216 252.583 122.152V121.48V121.048V120.856V120.808C252.519 120.808 252.487 120.792 252.487 120.76C252.487 120.824 252.455 120.888 252.391 120.952C252.327 121.048 252.263 121.096 252.199 121.096C251.975 121.16 251.863 121.464 251.863 122.008V122.536V122.584V122.68C251.863 123 251.863 123.304 251.863 123.592C251.863 123.912 251.879 124.216 251.911 124.504V124.744C251.943 124.904 251.959 125.048 251.959 125.176C251.959 125.304 251.927 125.432 251.863 125.56C251.767 125.816 251.591 125.944 251.335 125.944C251.303 125.944 251.255 125.928 251.191 125.896C251.159 125.896 251.127 125.896 251.095 125.896C250.935 125.864 250.823 125.768 250.759 125.608C250.727 125.48 250.711 125.336 250.711 125.176L250.663 125.128C250.663 125.096 250.679 125.08 250.711 125.08V124.984V124.936V124.888L250.663 124.84C250.631 124.84 250.615 124.792 250.615 124.696C250.551 124.6 250.519 124.44 250.519 124.216C250.519 124.024 250.519 123.8 250.519 123.544C250.519 123.544 250.535 123.512 250.567 123.448V123.352V122.632V122.2V122.008C250.567 121.72 250.535 121.544 250.471 121.48C250.471 121.576 250.423 121.624 250.327 121.624V121.672H250.375C250.375 121.768 250.359 121.832 250.327 121.864C250.295 121.864 250.263 121.864 250.231 121.864C250.231 121.896 250.215 121.912 250.183 121.912L250.135 121.864C250.007 121.864 249.975 121.8 250.039 121.672L250.087 121.624C250.087 121.56 250.119 121.528 250.183 121.528C250.183 121.528 250.167 121.512 250.135 121.48L250.183 121.384C250.183 121.384 250.199 121.352 250.231 121.288C250.231 121.224 250.183 121.144 250.087 121.048H249.991C249.927 121.048 249.895 121.032 249.895 121V120.952L249.847 120.904C249.847 120.872 249.831 120.84 249.799 120.808V120.568C249.479 120.728 249.143 120.84 248.791 120.904C248.439 120.968 248.071 120.968 247.687 120.904C246.791 120.808 246.055 120.392 245.479 119.656C244.903 118.92 244.695 118.088 244.855 117.16C245.015 115.944 245.159 114.872 245.287 113.944C245.447 113.016 245.527 112.536 245.527 112.504C245.655 111.736 245.991 111.096 246.535 110.584C247.079 110.072 247.751 109.784 248.551 109.72C249.319 109.656 250.007 109.832 250.615 110.248C251.255 110.664 251.703 111.24 251.959 111.976C252.151 112.488 252.423 112.936 252.775 113.32C253.159 113.704 253.591 114.008 254.071 114.232C254.551 114.456 255.063 114.616 255.607 114.712C256.151 114.776 256.663 114.76 257.143 114.664C257.719 114.6 258.167 114.456 258.487 114.232C258.807 114.008 259.031 113.768 259.159 113.512C259.319 113.256 259.415 113.016 259.447 112.792C259.479 112.536 259.495 112.36 259.495 112.264C259.495 112.04 259.463 111.864 259.399 111.736C259.335 111.608 259.111 111.432 258.727 111.208C258.151 110.92 257.447 110.664 256.615 110.44C255.783 110.216 254.903 109.976 253.975 109.72C252.951 109.496 251.847 109.224 250.663 108.904C249.479 108.584 248.375 108.12 247.351 107.512C246.327 106.904 245.479 106.12 244.807 105.16C244.103 104.168 243.751 102.92 243.751 101.416C243.751 99.56 244.231 97.864 245.191 96.328C246.151 94.76 247.511 93.464 249.271 92.44C250.167 91.96 251.095 91.576 252.055 91.288C253.047 91 254.023 90.824 254.983 90.76C255.975 90.696 256.935 90.744 257.863 90.904C258.791 91.064 259.671 91.336 260.503 91.72C261.335 90.888 262.359 90.6 263.575 90.856C264.471 91.016 265.175 91.496 265.687 92.296C266.199 93.064 266.343 93.896 266.119 94.792C265.991 95.336 265.911 96.072 265.879 97C265.847 97.928 265.831 98.776 265.831 99.544C265.831 99.8 265.831 100.04 265.831 100.264C265.863 100.456 265.863 100.664 265.831 100.888C265.831 101.784 265.511 102.536 264.871 103.144C264.231 103.752 263.447 104.056 262.519 104.056C261.591 104.056 260.807 103.752 260.167 103.144C259.527 102.536 259.207 101.784 259.207 100.888C259.175 100.824 259.159 100.488 259.159 99.88C259.095 99.272 258.951 98.84 258.727 98.584C258.503 98.296 258.279 98.088 258.055 97.96C257.383 97.544 256.519 97.368 255.463 97.432C254.439 97.496 253.479 97.784 252.583 98.296C252.071 98.552 251.575 98.936 251.095 99.448C250.647 99.96 250.423 100.616 250.423 101.416V101.512C250.519 101.704 250.759 101.88 251.143 102.04C251.527 102.2 251.975 102.36 252.487 102.52C252.999 102.648 253.527 102.776 254.071 102.904C254.615 103.032 255.095 103.144 255.511 103.24C256.631 103.496 257.735 103.784 258.823 104.104C259.943 104.392 260.983 104.808 261.943 105.352ZM285.272 92.44C286.2 92.44 286.984 92.76 287.624 93.4C288.296 94.04 288.632 94.824 288.632 95.752C288.632 96.68 288.312 97.464 287.672 98.104C287.032 98.744 286.248 99.08 285.32 99.112H284.936C283.656 99.112 282.488 99.064 281.432 98.968C280.408 98.872 279.432 98.76 278.504 98.632C278.44 99.656 278.376 100.872 278.312 102.28C278.248 103.656 278.216 105.16 278.216 106.792C278.248 108.392 278.312 110.088 278.408 111.88C278.504 113.64 278.68 115.432 278.936 117.256C279.064 118.184 278.84 119.016 278.264 119.752C277.72 120.456 277 120.872 276.104 121C276.008 121 275.912 121 275.816 121C275.752 121.032 275.688 121.048 275.624 121.048C274.792 121.048 274.056 120.776 273.416 120.232C272.808 119.688 272.456 118.984 272.36 118.12C272.072 116.104 271.864 114.12 271.736 112.168C271.64 110.184 271.592 108.312 271.592 106.552C271.592 104.76 271.624 103.128 271.688 101.656C271.752 100.152 271.816 98.856 271.88 97.768C270.28 97.672 268.44 97.832 266.36 98.248C265.432 98.44 264.584 98.296 263.816 97.816C263.08 97.304 262.616 96.6 262.424 95.704C262.232 94.776 262.392 93.928 262.904 93.16C263.384 92.392 264.072 91.928 264.968 91.768C266.312 91.48 267.528 91.288 268.616 91.192C269.736 91.096 270.776 91.064 271.736 91.096C272.728 91.128 273.672 91.208 274.568 91.336C275.464 91.464 276.36 91.592 277.256 91.72C278.408 91.912 279.608 92.088 280.856 92.248C282.136 92.408 283.608 92.472 285.272 92.44ZM305.967 117.112C306.159 117.848 306.095 118.568 305.775 119.272C305.455 119.976 304.975 120.52 304.335 120.904C304.399 120.904 304.463 120.92 304.527 120.952C304.591 120.952 304.591 120.984 304.527 121.048C304.495 121.08 304.431 121.096 304.335 121.096H304.287H304.239C304.207 121.064 304.191 121.032 304.191 121V120.952C304.031 121.048 303.855 121.128 303.663 121.192C303.663 121.224 303.647 121.24 303.615 121.24C303.551 121.336 303.487 121.384 303.423 121.384C303.199 121.384 303.087 121.608 303.087 122.056C303.087 122.12 303.087 122.184 303.087 122.248C303.119 122.312 303.135 122.376 303.135 122.44V122.488V122.536C303.135 122.792 303.119 123.016 303.087 123.208C303.087 123.432 303.103 123.672 303.135 123.928C303.135 123.96 303.135 123.992 303.135 124.024C303.167 124.056 303.183 124.088 303.183 124.12C303.183 124.184 303.183 124.264 303.183 124.36C303.215 124.488 303.199 124.6 303.135 124.696C303.039 124.888 302.831 124.984 302.511 124.984C302.415 124.984 302.351 124.968 302.319 124.936C302.159 124.936 302.047 124.872 301.983 124.744C301.951 124.648 301.935 124.536 301.935 124.408V124.312V124.264V124.216V124.168C301.935 124.168 301.919 124.152 301.887 124.12C301.887 124.12 301.887 124.104 301.887 124.072C301.823 124.008 301.775 123.88 301.743 123.688C301.743 123.528 301.759 123.352 301.791 123.16V123.016V122.488V122.2V122.056C301.791 121.864 301.775 121.72 301.743 121.624C301.679 121.72 301.615 121.768 301.551 121.768H301.599V121.816C301.599 121.848 301.583 121.88 301.551 121.912C301.551 121.944 301.503 121.96 301.407 121.96H301.359C301.263 121.896 301.231 121.832 301.263 121.768H301.311C301.311 121.768 301.343 121.752 301.407 121.72C301.375 121.688 301.359 121.656 301.359 121.624H301.407C301.407 121.56 301.423 121.512 301.455 121.48L301.407 121.432C301.375 121.4 301.343 121.384 301.311 121.384C301.311 121.384 301.295 121.368 301.263 121.336H301.167C301.103 121.272 301.071 121.24 301.071 121.24V121.192C301.039 121.192 301.023 121.16 301.023 121.096V120.952C300.959 120.92 300.879 120.904 300.783 120.904H300.735H300.687C300.655 120.872 300.639 120.824 300.639 120.76C299.967 120.28 299.503 119.624 299.247 118.792C299.183 118.536 299.119 118.28 299.055 118.024C299.023 117.768 298.975 117.512 298.911 117.256C297.087 116.84 295.215 116.536 293.295 116.344C291.375 116.152 289.727 116.136 288.351 116.296C288.223 116.712 288.111 117.128 288.015 117.544C287.919 117.96 287.823 118.392 287.727 118.84C287.535 119.608 287.119 120.232 286.479 120.712C285.871 121.16 285.183 121.384 284.415 121.384C284.095 121.384 283.791 121.336 283.503 121.24C283.023 121.144 282.607 120.968 282.255 120.712C281.903 120.424 281.615 120.088 281.391 119.704C281.167 119.32 281.023 118.904 280.959 118.456C280.895 118.008 280.927 117.544 281.055 117.064C281.087 117 281.199 116.632 281.391 115.96C281.583 115.256 281.823 114.36 282.111 113.272C282.431 112.152 282.799 110.888 283.215 109.48C283.663 108.072 284.127 106.632 284.607 105.16C285.471 102.504 286.255 100.28 286.959 98.488C287.695 96.696 288.415 95.256 289.119 94.168C289.823 93.048 290.543 92.264 291.279 91.816C292.015 91.336 292.799 91.096 293.631 91.096C294.463 91.096 295.231 91.336 295.935 91.816C296.671 92.264 297.375 93.048 298.047 94.168C298.751 95.256 299.455 96.696 300.159 98.488C300.895 100.28 301.695 102.504 302.559 105.16C303.039 106.664 303.471 108.12 303.855 109.528C304.271 110.904 304.623 112.152 304.911 113.272C305.231 114.36 305.471 115.256 305.631 115.96C305.823 116.664 305.935 117.048 305.967 117.112ZM290.463 109.336C291.583 109.336 292.671 109.384 293.727 109.48C294.815 109.576 295.855 109.688 296.847 109.816C296.303 107.992 295.743 106.28 295.167 104.68C294.591 103.048 294.063 101.64 293.583 100.456C293.135 101.576 292.639 102.904 292.095 104.44C291.551 105.944 291.007 107.576 290.463 109.336ZM320.45 91.912C321.346 91.56 322.21 91.592 323.042 92.008C323.874 92.424 324.45 93.064 324.77 93.928C325.41 95.688 325.906 97.496 326.258 99.352C326.61 101.176 326.85 102.968 326.978 104.728C327.138 106.456 327.202 108.104 327.17 109.672C327.17 111.24 327.138 112.616 327.074 113.8C327.01 114.984 326.93 115.944 326.834 116.68C326.738 117.416 326.69 117.832 326.69 117.928C326.594 118.664 326.29 119.288 325.778 119.8C325.266 120.312 324.642 120.632 323.906 120.76C323.17 120.888 322.482 120.792 321.842 120.472C321.202 120.12 320.706 119.624 320.354 118.984C319.522 117.384 318.642 115.752 317.714 114.088C316.786 112.392 315.858 110.76 314.93 109.192C314.002 107.624 313.106 106.152 312.242 104.776C311.378 103.368 310.578 102.136 309.842 101.08C309.778 102.36 309.762 103.752 309.794 105.256C309.826 106.76 309.874 108.248 309.938 109.72C310.034 111.192 310.146 112.6 310.274 113.944C310.402 115.256 310.546 116.376 310.706 117.304C310.866 118.232 310.674 119.08 310.13 119.848C309.586 120.584 308.85 121.032 307.922 121.192C307.826 121.192 307.73 121.192 307.634 121.192C307.538 121.224 307.458 121.24 307.394 121.24C306.562 121.24 305.826 120.984 305.186 120.472C304.578 119.928 304.21 119.24 304.082 118.408C304.018 117.96 303.922 117.192 303.794 116.104C303.666 115.016 303.538 113.736 303.41 112.264C303.314 110.792 303.234 109.208 303.17 107.512C303.074 105.784 303.042 104.088 303.074 102.424C303.106 100.76 303.218 99.192 303.41 97.72C303.602 96.216 303.89 94.936 304.274 93.88C304.562 93.08 305.01 92.44 305.618 91.96C306.258 91.48 306.994 91.208 307.826 91.144C308.498 91.112 309.186 91.256 309.89 91.576C310.594 91.864 311.394 92.472 312.29 93.4C313.218 94.328 314.29 95.656 315.506 97.384C316.722 99.112 318.162 101.368 319.826 104.152C319.89 104.312 319.954 104.456 320.018 104.584C320.114 104.68 320.194 104.792 320.258 104.92C320.13 103.48 319.922 102.024 319.634 100.552C319.346 99.048 318.946 97.608 318.434 96.232C318.114 95.368 318.146 94.52 318.53 93.688C318.946 92.824 319.586 92.232 320.45 91.912ZM344.321 93.208C348.033 95.576 350.321 99.656 351.185 105.448C351.569 108.04 351.329 110.408 350.465 112.552C349.601 114.696 348.145 116.488 346.097 117.928C344.657 118.952 343.025 119.72 341.201 120.232C339.409 120.712 337.585 120.952 335.729 120.952C334.289 120.952 332.865 120.808 331.457 120.52C330.081 120.2 328.817 119.72 327.665 119.08C326.833 118.632 326.289 117.96 326.033 117.064C325.777 116.136 325.889 115.256 326.369 114.424C326.785 113.624 327.393 113.096 328.193 112.84C328.993 112.552 329.809 112.584 330.641 112.936C330.353 111.848 330.097 110.712 329.873 109.528C329.681 108.344 329.505 107.16 329.345 105.976C329.217 104.76 329.121 103.592 329.057 102.472C328.993 101.32 328.977 100.264 329.009 99.304C328.881 99.304 328.769 99.32 328.673 99.352C327.745 99.512 326.881 99.352 326.081 98.872C325.281 98.36 324.785 97.64 324.593 96.712C324.401 95.784 324.561 94.92 325.073 94.12C325.617 93.32 326.353 92.824 327.281 92.632C327.345 92.6 327.457 92.568 327.617 92.536C327.809 92.472 328.001 92.424 328.193 92.392C328.961 92.168 329.953 91.912 331.169 91.624C332.417 91.336 333.761 91.16 335.201 91.096C336.673 91 338.193 91.096 339.761 91.384C341.329 91.64 342.849 92.248 344.321 93.208ZM342.161 112.312C344.049 111.032 344.801 109.096 344.417 106.504C343.841 102.76 342.577 100.232 340.625 98.92C339.953 98.472 339.217 98.184 338.417 98.056C337.649 97.928 336.849 97.864 336.017 97.864C335.857 98.824 335.809 100.072 335.873 101.608C335.969 103.144 336.129 104.712 336.353 106.312C336.577 107.912 336.849 109.416 337.169 110.824C337.521 112.2 337.873 113.208 338.225 113.848C338.961 113.688 339.665 113.496 340.337 113.272C341.009 113.016 341.617 112.696 342.161 112.312ZM382.403 119.272C382.531 119.208 382.643 119.224 382.739 119.32C382.835 119.416 382.835 119.464 382.739 119.464C382.739 119.528 382.707 119.56 382.643 119.56H382.595H382.451V119.512C382.419 119.512 382.387 119.496 382.355 119.464V119.416C382.355 119.352 382.371 119.304 382.403 119.272ZM387.155 100.456C387.763 102.12 388.067 103.816 388.067 105.544C388.067 107.24 387.859 108.872 387.443 110.44C387.027 111.976 386.435 113.384 385.667 114.664C384.931 115.912 384.083 116.936 383.123 117.736C382.675 118.088 382.243 118.376 381.827 118.6C381.891 118.696 381.891 118.776 381.827 118.84V119.08H381.779C381.747 119.176 381.747 119.24 381.779 119.272C381.843 119.464 381.827 119.624 381.731 119.752C381.699 119.816 381.667 119.864 381.635 119.896C381.603 119.896 381.571 119.912 381.539 119.944C381.283 120.008 381.155 120.328 381.155 120.904C381.187 121.032 381.203 121.224 381.203 121.48V121.576V121.672V123.688V123.976C381.235 124.104 381.251 124.248 381.251 124.408C381.283 124.568 381.267 124.712 381.203 124.84C381.075 125.096 380.867 125.224 380.579 125.224H380.243C380.083 125.16 379.971 125.048 379.907 124.888C379.875 124.76 379.859 124.616 379.859 124.456V124.408V124.312V124.216V124.12C379.859 124.088 379.843 124.056 379.811 124.024C379.747 123.992 379.747 123.944 379.811 123.88C379.715 123.752 379.667 123.56 379.667 123.304C379.667 123.08 379.683 122.84 379.715 122.584V122.344V121.576V121.096V120.952C379.715 120.632 379.683 120.424 379.619 120.328C379.555 120.424 379.507 120.472 379.475 120.472V120.52V120.568V120.712C379.411 120.776 379.347 120.808 379.283 120.808L379.235 120.76C379.139 120.728 379.091 120.648 379.091 120.52L379.139 120.472C379.139 120.472 379.171 120.456 379.235 120.424V120.328V120.232L379.331 120.136C379.331 120.04 379.299 119.992 379.235 119.992C378.499 120.248 377.747 120.44 376.979 120.568C376.211 120.696 375.443 120.76 374.675 120.76C373.139 120.76 371.715 120.536 370.403 120.088C368.291 119.352 366.499 118.184 365.027 116.584C363.587 114.952 362.627 113.08 362.147 110.968C361.475 107.96 361.347 105.16 361.763 102.568C362.179 99.944 363.107 97.816 364.547 96.184C364.931 95.768 365.363 95.368 365.843 94.984C366.355 94.568 366.947 94.184 367.619 93.832C367.811 93 368.227 92.312 368.867 91.768C369.539 91.224 370.323 90.952 371.219 90.952C373.939 90.952 376.243 91.288 378.131 91.96C380.019 92.6 381.571 93.4 382.787 94.36C384.035 95.32 384.995 96.36 385.667 97.48C386.339 98.568 386.835 99.56 387.155 100.456ZM375.779 100.504V100.552V100.504ZM372.803 113.08C373.763 113.432 374.723 113.512 375.683 113.32C376.675 113.128 377.587 112.696 378.419 112.024C378.803 111.704 379.171 111.208 379.523 110.536C379.875 109.864 380.147 109.112 380.339 108.28C380.563 107.448 380.675 106.568 380.675 105.64C380.675 104.68 380.515 103.768 380.195 102.904C380.003 102.36 379.731 101.864 379.379 101.416C379.027 100.936 378.627 100.52 378.179 100.168C378.115 100.264 378.035 100.328 377.939 100.36C377.715 100.392 377.603 100.712 377.603 101.32V101.896V101.992V102.088C377.603 102.44 377.603 102.776 377.603 103.096C377.603 103.416 377.619 103.752 377.651 104.104V104.344C377.715 104.728 377.699 105.032 377.603 105.256C377.507 105.544 377.299 105.688 376.979 105.688C376.883 105.688 376.787 105.672 376.691 105.64C376.531 105.576 376.419 105.48 376.355 105.352C376.291 105.192 376.259 105.032 376.259 104.872V104.824V104.728C376.259 104.696 376.275 104.664 376.307 104.632V104.536L376.211 104.44V104.296C376.147 104.168 376.099 103.992 376.067 103.768C376.067 103.544 376.083 103.304 376.115 103.048C376.115 102.984 376.115 102.936 376.115 102.904C376.147 102.84 376.163 102.792 376.163 102.76V102.04V101.56V101.32C376.163 101.032 376.131 100.856 376.067 100.792C376.003 100.856 375.939 100.904 375.875 100.936H375.923V100.984C375.923 101.048 375.907 101.096 375.875 101.128C375.843 101.16 375.811 101.176 375.779 101.176V101.896C375.779 101.96 375.779 102.008 375.779 102.04C375.811 102.072 375.827 102.12 375.827 102.184C375.827 102.344 375.827 102.504 375.827 102.664C375.859 102.824 375.843 102.952 375.779 103.048C375.619 103.336 375.411 103.48 375.155 103.48C375.027 103.48 374.915 103.464 374.819 103.432C374.659 103.432 374.547 103.352 374.483 103.192C374.451 103 374.435 102.824 374.435 102.664C374.371 102.6 374.371 102.568 374.435 102.568V102.424V102.376V102.328L374.387 102.28C374.355 102.248 374.339 102.2 374.339 102.136C374.275 102.008 374.243 101.832 374.243 101.608C374.243 101.384 374.259 101.128 374.291 100.84C374.291 100.712 374.307 100.632 374.339 100.6V100.12C373.859 100.216 373.411 100.248 372.995 100.216C372.899 100.216 372.787 100.216 372.659 100.216C372.563 100.184 372.483 100.168 372.419 100.168C371.651 100.168 371.091 100.28 370.739 100.504C370.419 100.728 370.211 100.904 370.115 101.032C369.475 101.768 369.091 102.888 368.963 104.392C368.835 105.896 368.963 107.544 369.347 109.336C369.539 110.2 369.939 110.968 370.547 111.64C371.155 112.28 371.907 112.76 372.803 113.08ZM404.437 93.64C405.333 93.352 406.197 93.432 407.029 93.88C407.861 94.296 408.405 94.952 408.661 95.848C410.357 101.128 411.157 105.544 411.061 109.096C410.965 112.648 410.005 115.464 408.181 117.544C407.829 117.96 407.381 118.376 406.837 118.792C406.325 119.208 405.717 119.576 405.013 119.896C404.341 120.216 403.557 120.488 402.661 120.712C401.765 120.904 400.757 121 399.637 121C399.093 121 398.517 120.968 397.909 120.904C397.333 120.84 396.709 120.744 396.037 120.616C393.349 120.136 391.269 118.792 389.797 116.584C388.549 114.696 387.845 112.504 387.685 110.008C387.525 107.48 387.637 104.856 388.021 102.136C387.445 102.136 386.901 102.008 386.389 101.752C385.877 101.464 385.461 101.048 385.141 100.504C384.629 99.704 384.485 98.856 384.709 97.96C384.933 97.064 385.429 96.36 386.197 95.848C386.453 95.688 386.757 95.496 387.109 95.272C387.461 95.016 387.813 94.744 388.165 94.456C388.517 94.136 388.853 93.816 389.173 93.496C389.525 93.176 389.813 92.872 390.037 92.584C390.517 91.88 391.157 91.416 391.957 91.192C392.757 90.968 393.525 91.032 394.261 91.384C394.453 91.48 394.677 91.624 394.933 91.816C395.221 92.008 395.477 92.28 395.701 92.632C395.925 92.952 396.085 93.368 396.181 93.88C396.309 94.36 396.309 94.952 396.181 95.656C396.117 95.848 396.053 96.072 395.989 96.328C395.957 96.552 395.909 96.824 395.845 97.144C395.685 97.912 395.461 99 395.173 100.408C394.885 101.784 394.661 103.256 394.501 104.824C394.341 106.36 394.309 107.864 394.405 109.336C394.501 110.808 394.837 111.976 395.413 112.84C395.669 113.16 395.925 113.416 396.181 113.608C396.469 113.768 396.837 113.88 397.285 113.944C397.765 114.04 398.277 114.12 398.821 114.184C399.397 114.216 399.941 114.216 400.453 114.184C400.997 114.12 401.493 114.008 401.941 113.848C402.421 113.688 402.805 113.432 403.093 113.08C403.317 112.824 403.541 112.392 403.765 111.784C404.021 111.176 404.165 110.296 404.197 109.144C404.261 107.992 404.149 106.504 403.861 104.68C403.605 102.856 403.061 100.6 402.229 97.912C401.941 96.984 402.005 96.104 402.421 95.272C402.869 94.44 403.541 93.896 404.437 93.64ZM427.866 92.44C428.794 92.44 429.578 92.76 430.218 93.4C430.89 94.04 431.226 94.824 431.226 95.752C431.226 96.68 430.906 97.464 430.266 98.104C429.626 98.744 428.842 99.08 427.914 99.112H427.53C426.25 99.112 425.082 99.064 424.026 98.968C423.002 98.872 422.026 98.76 421.098 98.632C421.034 99.656 420.97 100.872 420.906 102.28C420.842 103.656 420.81 105.16 420.81 106.792C420.842 108.392 420.906 110.088 421.002 111.88C421.098 113.64 421.274 115.432 421.53 117.256C421.658 118.184 421.434 119.016 420.858 119.752C420.314 120.456 419.594 120.872 418.698 121C418.602 121 418.506 121 418.41 121C418.346 121.032 418.282 121.048 418.218 121.048C417.386 121.048 416.65 120.776 416.01 120.232C415.402 119.688 415.05 118.984 414.954 118.12C414.666 116.104 414.458 114.12 414.33 112.168C414.234 110.184 414.186 108.312 414.186 106.552C414.186 104.76 414.218 103.128 414.282 101.656C414.346 100.152 414.41 98.856 414.474 97.768C412.874 97.672 411.034 97.832 408.954 98.248C408.026 98.44 407.178 98.296 406.41 97.816C405.674 97.304 405.21 96.6 405.018 95.704C404.826 94.776 404.986 93.928 405.498 93.16C405.978 92.392 406.666 91.928 407.562 91.768C408.906 91.48 410.122 91.288 411.21 91.192C412.33 91.096 413.37 91.064 414.33 91.096C415.322 91.128 416.266 91.208 417.162 91.336C418.058 91.464 418.954 91.592 419.85 91.72C421.002 91.912 422.202 92.088 423.45 92.248C424.73 92.408 426.202 92.472 427.866 92.44Z" fill="#D2402D"/>
</g>
<defs>
<filter id="filter0_f_92_11" x="59.136" y="82.856" width="374.09" height="45.0881" filterUnits="userSpaceOnUse" color-interpolation-filters="sRGB">
<feFlood flood-opacity="0" result="BackgroundImageFix"/>
<feBlend mode="normal" in="SourceGraphic" in2="BackgroundImageFix" result="shape"/>
<feGaussianBlur stdDeviation="1" result="effect1_foregroundBlur_92_11"/>
</filter>
</defs>
</svg>
